<svg width="121" height="74" viewBox="0 0 121 74" fill="none" xmlns="http://www.w3.org/2000/svg">
<path d="M26.2212 59.7989H18.7109L10.8929 35.273H10.7618L10.6734 35.9823C10.2042 39.1763 9.72116 42.0297 9.22437 44.5427L6.03987 59.7931H0L6.78648 27.373H14.6231L22.0906 51.2558H22.1847C22.3613 50.1326 22.6463 48.5284 23.0396 46.4433C23.4328 44.3581 24.7503 38.0013 26.992 27.373H33.0134L26.2212 59.7989Z" fill="#333333"/>
<path d="M51.2692 52.0783H40.8807L37.1035 59.7956H30.0762L46.8992 27.2432H55.0877L58.315 59.7956H51.7963L51.2692 52.0783ZM50.94 46.3134L50.3701 38.5443C50.2238 36.6078 50.1507 34.7374 50.1507 32.9333V32.1463C49.5057 33.9207 48.7078 35.7983 47.7569 37.7789L43.6249 46.3162L50.94 46.3134Z" fill="#333333"/>
<path d="M80.902 32.5849C79.0119 32.5701 77.1728 33.2037 75.6857 34.3819C74.1412 35.576 72.9006 37.3389 71.9641 39.6706C71.0156 42.0562 70.5378 44.6059 70.5577 47.1764C70.5577 49.6452 71.0593 51.4786 72.0624 52.6766C73.0655 53.8746 74.6651 54.4731 76.8612 54.4721C78.9985 54.4721 81.4729 53.9029 84.2846 52.7644V58.5308C81.4866 59.6462 78.5072 60.2249 75.4991 60.2371C71.7803 60.2371 68.8888 59.1341 66.8247 56.928C64.7606 54.722 63.7285 51.5923 63.7285 47.539C63.7285 43.6659 64.4884 40.0993 66.0083 36.8392C67.5281 33.5791 69.5632 31.1026 72.1137 29.4097C74.6613 27.7177 77.5893 26.8718 80.8978 26.8718C82.5364 26.8514 84.1721 27.0184 85.7735 27.3696C87.1927 27.7034 88.7154 28.3134 90.3416 29.1996L87.7541 34.7344C86.2019 33.8625 84.9196 33.287 83.907 33.0079C82.9287 32.7313 81.918 32.5891 80.902 32.5849Z" fill="#333333"/>
<path d="M120.001 38.996C120.001 43.1798 119.276 46.9233 117.827 50.2266C116.377 53.5299 114.393 56.0237 111.875 57.7079C109.357 59.3941 106.46 60.2367 103.184 60.2358C99.4354 60.2358 96.5107 59.1457 94.4095 56.9656C92.3084 54.7854 91.2578 51.7584 91.2578 47.8844C91.2578 43.9663 91.9826 40.3628 93.4321 37.0739C94.8816 33.7849 96.8802 31.261 99.4278 29.5019C101.975 27.7428 104.92 26.8633 108.262 26.8633C111.995 26.8633 114.886 27.9275 116.936 30.0558C118.986 32.1841 120.008 35.1642 120.001 38.996ZM107.703 32.5865C105.931 32.5865 104.305 33.2632 102.827 34.6165C101.349 35.9699 100.189 37.8287 99.3466 40.193C98.4872 42.6644 98.06 45.268 98.0842 47.8873C98.0842 50.0607 98.571 51.7018 99.5446 52.8105C100.518 53.9193 101.891 54.4737 103.662 54.4737C105.434 54.4737 107.049 53.8306 108.507 52.5444C109.965 51.2582 111.105 49.4396 111.926 47.0888C112.746 44.7389 113.156 42.1012 113.156 39.1758C113.156 37.0772 112.681 35.4548 111.731 34.3086C110.781 33.1625 109.439 32.5884 107.703 32.5865Z" fill="#333333"/>
<path d="M43.1122 30.0974C42.7474 28.2918 41.7002 26.0445 41.5648 24.213C41.4423 22.5441 41.5563 20.8795 41.7244 19.2221C42.1975 14.542 43.5168 10.1438 46.1599 6.22188C47.7913 3.79908 49.826 1.8266 52.5332 0.642536C52.9606 0.458381 53.3881 0.317386 53.8269 0.15625C51.6299 2.36037 50.3846 5.05652 49.3857 7.87785C48.6206 10.0359 47.7044 13.6572 47.3611 15.9217C46.8809 19.0869 46.6144 22.2621 46.7569 25.4647C46.7569 25.5755 46.7697 25.6849 46.784 25.7942C46.8025 25.9381 46.764 26.1337 46.9578 26.1913C47.1245 26.2416 47.2 26.0834 47.2955 25.987C49.95 23.3484 52.5446 20.6493 55.0138 17.8338C57.3178 15.2067 59.5192 12.4961 61.2461 9.43022C62.2164 7.70376 62.9559 5.90968 63.1653 3.79189C63.4503 4.32134 63.4716 4.81194 63.5657 5.26514C63.7989 6.43422 63.8946 7.62703 63.8507 8.81877C63.7745 11.213 63.2465 13.5706 62.2947 15.7649C60.7915 19.2653 58.5902 22.2765 56.0796 25.0691C55.6194 25.5813 55.0495 26.315 54.5978 26.8358C54.4949 26.9623 54.3638 27.0623 54.2152 27.1276C54.0665 27.1929 53.9046 27.2216 53.7429 27.2113C51.4831 27.1941 49.4784 27.1969 47.22 27.184C46.9151 27.184 46.717 27.6933 46.5646 27.9667C40.8496 39.7383 37.4855 46.529 32.0484 55.8001C31.3502 57.0575 30.843 58.3236 30.112 59.653C32.2307 59.653 34.5546 59.8084 36.6776 59.8084C35.4551 63.9806 31.876 69.2866 30.9527 73.4963L28.8995 58.8128C28.8148 58.592 28.8148 58.3473 28.8995 58.1265C30.6677 53.5413 32.6041 49.0338 34.8838 44.6774C34.8767 44.6774 40.3452 33.1719 43.1122 30.0974Z" fill="#EB1C23"/>
<path d="M59.206 10.2795C59.1062 8.28973 58.1402 6.86684 56.486 5.92736C54.8616 5.00514 53.186 4.76056 51.4648 5.90002C51.5147 5.47704 51.727 5.19937 51.8723 4.89292C52.5762 3.44269 53.4397 2.11619 54.6949 1.07025C56.6626 -0.579964 59.424 -0.194387 61.0397 1.35799C61.6937 1.98671 61.9017 2.78664 61.9146 3.65994C61.9359 5.09865 61.4102 6.3935 60.7975 7.64806C60.3613 8.57994 59.8278 9.46208 59.206 10.2795Z" fill="#EB1C23"/>
<path d="M57.6947 52.5746C57.6947 52.5746 62.3368 60.6616 63.8599 61.4946L60.5999 73.4072C60.5999 73.4072 50.9994 61.2069 48.7168 52.0566H51.3114L51.8301 58.9625L52.0025 59.8574L58.3173 59.8185L57.6947 52.5746Z" fill="#EB1C23"/>
</svg>
