<svg id="Layer_1" data-name="Layer 1" xmlns="http://www.w3.org/2000/svg" viewBox="0 0 1024 573.12"><defs><style>.cls-1{fill:#fff;}.cls-2{fill:#eb1c23;}</style></defs><title>NACO_LOGO</title><path class="cls-1" d="M265.33,432.18H212.62L157.75,261.71h-.92l-.62,4.93q-4.94,33.3-10.17,59.5l-22.35,106H81.3l47.63-225.34h55l52.41,166H237q1.86-11.71,6-33.45t27.74-132.55H313Z"/><path class="cls-1" d="M441.2,378.54H368.29l-26.51,53.64H292.46L410.53,205.92H468l22.65,226.26H444.9Zm-2.31-40.07-4-54q-1.54-20.19-1.54-39V240q-6.79,18.5-16.8,39.15l-29,59.34Z"/><path class="cls-1" d="M649.12,243.06a58.57,58.57,0,0,0-36.61,12.49Q596.25,268,586.39,292.31a137.15,137.15,0,0,0-9.87,52.17q0,25.74,10.56,38.23t33.68,12.48q22.5,0,52.1-11.87V423.4a169.76,169.76,0,0,1-61.66,11.86q-39.15,0-60.88-23T528.59,347q0-40.38,16-74.37t42.85-51.64q26.82-17.64,61.65-17.64a152.42,152.42,0,0,1,34.22,3.46q14.94,3.48,32.06,12.72L697.21,258q-16.34-9.09-27-12A79.42,79.42,0,0,0,649.12,243.06Z"/><path class="cls-1" d="M923.47,287.61q0,43.62-15.26,78.06t-41.77,52q-26.51,17.58-61,17.57-39.46,0-61.58-22.73t-22.12-63.12q0-40.85,15.26-75.14t42.08-52.63q26.82-18.34,62-18.34,39.3,0,60.88,22.19T923.47,287.61Zm-86.31-44.55q-18.66,0-34.22,14.11t-24.43,38.76a157,157,0,0,0-8.86,53.48q0,22.66,10.25,34.22t28.9,11.56q18.65,0,34-13.41t24-37.92q8.63-24.5,8.63-55,0-21.88-10-33.83T837.16,243.06Z"/><path class="cls-2" d="M383.88,225.79c-2.56-12.55-9.91-28.17-10.86-40.9-.86-11.6-.06-23.17,1.12-34.69,3.32-32.53,12.58-63.1,31.13-90.36C416.72,43,431,29.29,450,21.06c3-1.28,6-2.26,9.08-3.38C443.66,33,434.92,51.74,427.91,71.35c-5.37,15-11.8,40.17-14.21,55.91-3.37,22-5.24,44.07-4.24,66.33,0,.77.09,1.53.19,2.29.13,1-.14,2.36,1.22,2.76,1.17.35,1.7-.75,2.37-1.42,18.63-18.34,36.84-37.1,54.17-56.67,16.17-18.26,31.62-37.1,43.74-58.41,6.81-12,12-24.47,13.47-39.19,2,3.68,2.15,7.09,2.81,10.24a105.25,105.25,0,0,1,2,24.7,130.81,130.81,0,0,1-10.92,48.28c-10.55,24.33-26,45.26-43.62,64.67-3.23,3.56-7.23,8.66-10.4,12.28a7.18,7.18,0,0,1-6,2.61c-15.86-.12-29.93-.1-45.78-.19-2.14,0-3.53,3.54-4.6,5.44C368,292.8,344.39,340,306.23,404.44c-4.9,8.74-8.46,17.54-13.59,26.78,14.87,0,31.18,1.08,46.08,1.08-8.58,29-33.7,65.88-40.18,95.14L284.13,425.38a6.6,6.6,0,0,1,0-4.77c12.41-31.87,26-63.2,42-93.48C326.08,327.13,364.46,247.16,383.88,225.79Z"/><path class="cls-2" d="M496.82,88c-.7-13.83-7.48-23.72-19.09-30.25-11.4-6.41-23.16-8.11-35.24-.19.35-2.94,1.84-4.87,2.86-7,4.94-10.08,11-19.3,19.81-26.57,13.81-11.47,33.19-8.79,44.53,2,4.59,4.37,6.05,9.93,6.14,16,.15,10-3.54,19-7.84,27.72A100.57,100.57,0,0,1,496.82,88Z"/><path class="cls-2" d="M486.23,382s32.58,56.21,43.27,62l-22.88,82.8S439.24,442,423.22,378.4h18.21l3.64,48,1.21,6.22,44.32-.27Z"/></svg>