<svg width="61" height="63" viewBox="0 0 61 63" fill="none" xmlns="http://www.w3.org/2000/svg">
<rect x="0.570312" y="0.687988" width="60" height="61.5678" rx="6" fill="#5951AF"/>
<mask id="path-2-inside-1_5220_405" fill="white">
<path fill-rule="evenodd" clip-rule="evenodd" d="M19.5039 27.363C19.5039 21.2563 24.4627 16.2974 30.5696 16.2974C36.6763 16.2974 41.6352 21.2563 41.6352 27.363C41.6352 29.8121 40.8376 32.0766 39.4882 33.9106C44.1653 36.8727 47.2726 42.0932 47.2726 48.0323C47.2726 48.9551 46.5247 49.703 45.6019 49.703C44.6792 49.703 43.9313 48.9551 43.9313 48.0323C43.9313 43.0026 41.1471 38.6211 37.0383 36.3392C35.2184 37.6537 32.9837 38.4287 30.5696 38.4287C28.1556 38.4287 25.9209 37.6538 24.101 36.3394C19.9924 38.6208 17.2085 43.0022 17.2085 48.0323C17.2085 48.9551 16.4606 49.703 15.5378 49.703C14.6151 49.703 13.8672 48.9551 13.8672 48.0323C13.8672 42.0931 16.9744 36.873 21.6511 33.9109C20.3016 32.0768 19.5039 29.8122 19.5039 27.363ZM38.2941 27.3632C38.2941 23.0996 34.8332 19.6386 30.5696 19.6386C26.3059 19.6386 22.845 23.0996 22.845 27.3632C22.845 31.6268 26.3059 35.0878 30.5696 35.0878C34.8332 35.0878 38.2941 31.6268 38.2941 27.3632ZM36.416 47.1977V49.7031H39.7573V47.1977H42.2622V43.8564H39.7573V41.3511H36.416V43.8564H33.9102V47.1977H36.416Z"/>
</mask>
<path fill-rule="evenodd" clip-rule="evenodd" d="M19.5039 27.363C19.5039 21.2563 24.4627 16.2974 30.5696 16.2974C36.6763 16.2974 41.6352 21.2563 41.6352 27.363C41.6352 29.8121 40.8376 32.0766 39.4882 33.9106C44.1653 36.8727 47.2726 42.0932 47.2726 48.0323C47.2726 48.9551 46.5247 49.703 45.6019 49.703C44.6792 49.703 43.9313 48.9551 43.9313 48.0323C43.9313 43.0026 41.1471 38.6211 37.0383 36.3392C35.2184 37.6537 32.9837 38.4287 30.5696 38.4287C28.1556 38.4287 25.9209 37.6538 24.101 36.3394C19.9924 38.6208 17.2085 43.0022 17.2085 48.0323C17.2085 48.9551 16.4606 49.703 15.5378 49.703C14.6151 49.703 13.8672 48.9551 13.8672 48.0323C13.8672 42.0931 16.9744 36.873 21.6511 33.9109C20.3016 32.0768 19.5039 29.8122 19.5039 27.363ZM38.2941 27.3632C38.2941 23.0996 34.8332 19.6386 30.5696 19.6386C26.3059 19.6386 22.845 23.0996 22.845 27.3632C22.845 31.6268 26.3059 35.0878 30.5696 35.0878C34.8332 35.0878 38.2941 31.6268 38.2941 27.3632ZM36.416 47.1977V49.7031H39.7573V47.1977H42.2622V43.8564H39.7573V41.3511H36.416V43.8564H33.9102V47.1977H36.416Z" fill="white"/>
<path d="M39.4882 33.9106L39.0855 33.6143L38.7678 34.0462L39.2207 34.3331L39.4882 33.9106ZM37.0383 36.3392L37.2811 35.9021L37.0032 35.7477L36.7456 35.9338L37.0383 36.3392ZM24.101 36.3394L24.3938 35.934L24.1362 35.748L23.8583 35.9022L24.101 36.3394ZM21.6511 33.9109L21.9186 34.3333L22.3716 34.0465L22.0538 33.6146L21.6511 33.9109ZM36.416 49.7031H35.916V50.2031H36.416V49.7031ZM36.416 47.1977H36.916V46.6977H36.416V47.1977ZM39.7573 49.7031V50.2031H40.2573V49.7031H39.7573ZM39.7573 47.1977V46.6977H39.2573V47.1977H39.7573ZM42.2622 47.1977V47.6977H42.7622V47.1977H42.2622ZM42.2622 43.8564H42.7622V43.3564H42.2622V43.8564ZM39.7573 43.8564H39.2573V44.3564H39.7573V43.8564ZM39.7573 41.3511H40.2573V40.8511H39.7573V41.3511ZM36.416 41.3511V40.8511H35.916V41.3511H36.416ZM36.416 43.8564V44.3564H36.916V43.8564H36.416ZM33.9102 43.8564V43.3564H33.4102V43.8564H33.9102ZM33.9102 47.1977H33.4102V47.6977H33.9102V47.1977ZM30.5696 15.7974C24.1866 15.7974 19.0039 20.9801 19.0039 27.363H20.0039C20.0039 21.5324 24.7389 16.7974 30.5696 16.7974V15.7974ZM42.1352 27.363C42.1352 20.9801 36.9524 15.7974 30.5696 15.7974V16.7974C36.4001 16.7974 41.1352 21.5324 41.1352 27.363H42.1352ZM39.891 34.207C41.3013 32.2901 42.1352 29.9224 42.1352 27.363H41.1352C41.1352 29.7018 40.3739 31.8631 39.0855 33.6143L39.891 34.207ZM47.7726 48.0323C47.7726 41.9145 44.5713 36.538 39.7558 33.4882L39.2207 34.3331C43.7594 37.2075 46.7726 42.2719 46.7726 48.0323H47.7726ZM45.6019 50.203C46.8008 50.203 47.7726 49.2312 47.7726 48.0323H46.7726C46.7726 48.6789 46.2485 49.203 45.6019 49.203V50.203ZM43.4313 48.0323C43.4313 49.2312 44.403 50.203 45.6019 50.203V49.203C44.9553 49.203 44.4313 48.679 44.4313 48.0323H43.4313ZM36.7956 36.7763C40.7523 38.9738 43.4313 43.1918 43.4313 48.0323H44.4313C44.4313 42.8133 41.5418 38.2683 37.2811 35.9021L36.7956 36.7763ZM30.5696 38.9287C33.0924 38.9287 35.4289 38.1184 37.3311 36.7445L36.7456 35.9338C35.0079 37.1889 32.875 37.9287 30.5696 37.9287V38.9287ZM23.8083 36.7447C25.7104 38.1185 28.0468 38.9287 30.5696 38.9287V37.9287C28.2643 37.9287 26.1314 37.189 24.3938 35.934L23.8083 36.7447ZM17.7085 48.0323C17.7085 43.1915 20.3872 38.9736 24.3438 36.7765L23.8583 35.9022C19.5977 38.2681 16.7085 42.813 16.7085 48.0323H17.7085ZM15.5378 50.203C16.7367 50.203 17.7085 49.2312 17.7085 48.0323H16.7085C16.7085 48.6789 16.1844 49.203 15.5378 49.203V50.203ZM13.3672 48.0323C13.3672 49.2312 14.3389 50.203 15.5378 50.203V49.203C14.8912 49.203 14.3672 48.679 14.3672 48.0323H13.3672ZM21.3836 33.4885C16.5684 36.5383 13.3672 41.9144 13.3672 48.0323H14.3672C14.3672 42.2717 17.3803 37.2077 21.9186 34.3333L21.3836 33.4885ZM19.0039 27.363C19.0039 29.9226 19.8379 32.2903 21.2484 34.2073L22.0538 33.6146C20.7653 31.8634 20.0039 29.7019 20.0039 27.363H19.0039ZM30.5696 20.1386C34.557 20.1386 37.7941 23.3757 37.7941 27.3632H38.7941C38.7941 22.8234 35.1093 19.1386 30.5696 19.1386V20.1386ZM23.345 27.3632C23.345 23.3757 26.5821 20.1386 30.5696 20.1386V19.1386C26.0298 19.1386 22.345 22.8234 22.345 27.3632H23.345ZM30.5696 34.5878C26.5821 34.5878 23.345 31.3507 23.345 27.3632H22.345C22.345 31.903 26.0298 35.5878 30.5696 35.5878V34.5878ZM37.7941 27.3632C37.7941 31.3507 34.557 34.5878 30.5696 34.5878V35.5878C35.1093 35.5878 38.7941 31.903 38.7941 27.3632H37.7941ZM36.916 49.7031V47.1977H35.916V49.7031H36.916ZM39.7573 49.2031H36.416V50.2031H39.7573V49.2031ZM39.2573 47.1977V49.7031H40.2573V47.1977H39.2573ZM39.7573 47.6977H42.2622V46.6977H39.7573V47.6977ZM42.7622 47.1977V43.8564H41.7622V47.1977H42.7622ZM42.2622 43.3564H39.7573V44.3564H42.2622V43.3564ZM39.2573 41.3511V43.8564H40.2573V41.3511H39.2573ZM36.416 41.8511H39.7573V40.8511H36.416V41.8511ZM36.916 43.8564V41.3511H35.916V43.8564H36.916ZM36.416 43.3564H33.9102V44.3564H36.416V43.3564ZM33.4102 43.8564V47.1977H34.4102V43.8564H33.4102ZM33.9102 47.6977H36.416V46.6977H33.9102V47.6977Z" fill="#5951AF" mask="url(#path-2-inside-1_5220_405)"/>
</svg>
