<svg width="61" height="62" viewBox="0 0 61 62" fill="none" xmlns="http://www.w3.org/2000/svg">
<rect x="0.574219" width="60" height="61.5678" rx="6" fill="#FF710A"/>
<path d="M46.7242 11.6143V11.4643H46.5742H22.1818H22.0318V11.6143V15.6303H18.0761H17.9261V15.7803V19.0114H14.5742H14.4242V19.1614V49.9539V50.1039H14.5742H38.9667H39.1167V49.9539V46.7228H42.4686H42.6186V46.5728V42.5567H46.5742H46.7242V42.4067V11.6143ZM38.9663 18.9511H19.1318V16.836H41.4129L41.4126 45.5171H39.1163V19.1011V18.9511H38.9663ZM42.4682 15.6303H23.2975V12.6699H45.5186L45.5182 41.3511H42.6182V15.7803V15.6303H42.4682ZM37.9107 48.8982H15.6295V20.2171H37.9107V48.8982Z" fill="white" stroke="white" stroke-width="0.3"/>
<path d="M18.5625 23.1171H18.4125V23.2671V24.1728V24.3228H18.5625H34.9851H35.1351V24.1728V23.2671V23.1171H34.9851H18.5625Z" fill="white" stroke="white" stroke-width="0.3"/>
<path d="M18.5625 27.2836H18.4125V27.4336V28.3393V28.4893H18.5625H34.9851H35.1351V28.3393V27.4336V27.2836H34.9851H18.5625Z" fill="white" stroke="white" stroke-width="0.3"/>
<path d="M18.5625 31.3891H18.4125V31.5391V32.4447V32.5947H18.5625H34.9851H35.1351V32.4447V31.5391V31.3891H34.9851H18.5625Z" fill="white" stroke="white" stroke-width="0.3"/>
<path d="M18.5625 35.5546H18.4125V35.7046V36.6103V36.7603H18.5625H34.9851H35.1351V36.6103V35.7046V35.5546H34.9851H18.5625Z" fill="white" stroke="white" stroke-width="0.3"/>
<path d="M18.5625 39.7206H18.4125V39.8706V40.7763V40.9263H18.5625H34.9851H35.1351V40.7763V39.8706V39.7206H34.9851H18.5625Z" fill="white" stroke="white" stroke-width="0.3"/>
<path d="M18.5625 43.8866H18.4125V44.0366V44.9423V45.0923H18.5625H26.7738H26.9238V44.9423V44.0366V43.8866H26.7738H18.5625Z" fill="white" stroke="white" stroke-width="0.3"/>
</svg>
