<svg width="1426" height="110" viewBox="0 0 1426 110" fill="none" xmlns="http://www.w3.org/2000/svg">
<rect x="0.5" y="0.5" width="1425" height="109" rx="7.5" stroke="black" stroke-opacity="0.1" stroke-dasharray="2 2"/>
<path d="M661 35.25C661 37.0402 660.289 38.7571 659.023 40.023C657.757 41.2888 656.04 42 654.25 42C652.46 42 650.743 41.2888 649.477 40.023C648.211 38.7571 647.5 37.0402 647.5 35.25C647.5 33.4598 648.211 31.7429 649.477 30.477C650.743 29.2112 652.46 28.5 654.25 28.5C656.04 28.5 657.757 29.2112 659.023 30.477C660.289 31.7429 661 33.4598 661 35.25ZM655 32.25C655 32.0511 654.921 31.8603 654.78 31.7197C654.64 31.579 654.449 31.5 654.25 31.5C654.051 31.5 653.86 31.579 653.72 31.7197C653.579 31.8603 653.5 32.0511 653.5 32.25V34.5H651.25C651.051 34.5 650.86 34.579 650.72 34.7197C650.579 34.8603 650.5 35.0511 650.5 35.25C650.5 35.4489 650.579 35.6397 650.72 35.7803C650.86 35.921 651.051 36 651.25 36H653.5V38.25C653.5 38.4489 653.579 38.6397 653.72 38.7803C653.86 38.921 654.051 39 654.25 39C654.449 39 654.64 38.921 654.78 38.7803C654.921 38.6397 655 38.4489 655 38.25V36H657.25C657.449 36 657.64 35.921 657.78 35.7803C657.921 35.6397 658 35.4489 658 35.25C658 35.0511 657.921 34.8603 657.78 34.7197C657.64 34.579 657.449 34.5 657.25 34.5H655V32.25ZM667 33H662.19C662.043 32.4819 661.845 31.9794 661.6 31.5H667C668.193 31.5 669.338 31.9741 670.182 32.818C671.026 33.6619 671.5 34.8065 671.5 36V48C671.5 49.1935 671.026 50.3381 670.182 51.182C669.338 52.0259 668.193 52.5 667 52.5H655C653.807 52.5 652.662 52.0259 651.818 51.182C650.974 50.3381 650.5 49.1935 650.5 48V42.6C650.976 42.843 651.477 43.041 652 43.1895V48C652 48.5595 652.153 49.083 652.42 49.53L659.424 42.648C659.844 42.2348 660.41 42.0034 661 42.0034C661.59 42.0034 662.156 42.2348 662.576 42.648L669.581 49.53C669.856 49.0671 670.001 48.5384 670 48V36C670 35.2044 669.684 34.4413 669.121 33.8787C668.559 33.3161 667.796 33 667 33ZM667 38.25C667 38.5455 666.942 38.8381 666.829 39.111C666.716 39.384 666.55 39.6321 666.341 39.841C666.132 40.0499 665.884 40.2157 665.611 40.3287C665.338 40.4418 665.045 40.5 664.75 40.5C664.455 40.5 664.162 40.4418 663.889 40.3287C663.616 40.2157 663.368 40.0499 663.159 39.841C662.95 39.6321 662.784 39.384 662.671 39.111C662.558 38.8381 662.5 38.5455 662.5 38.25C662.5 37.6533 662.737 37.081 663.159 36.659C663.581 36.2371 664.153 36 664.75 36C665.347 36 665.919 36.2371 666.341 36.659C666.763 37.081 667 37.6533 667 38.25ZM665.5 38.25C665.5 38.0511 665.421 37.8603 665.28 37.7197C665.14 37.579 664.949 37.5 664.75 37.5C664.551 37.5 664.36 37.579 664.22 37.7197C664.079 37.8603 664 38.0511 664 38.25C664 38.4489 664.079 38.6397 664.22 38.7803C664.36 38.921 664.551 39 664.75 39C664.949 39 665.14 38.921 665.28 38.7803C665.421 38.6397 665.5 38.4489 665.5 38.25ZM653.482 50.589C653.942 50.8592 654.466 51.0012 655 51H667C667.555 51 668.073 50.85 668.518 50.589L661.525 43.719C661.385 43.5816 661.196 43.5046 661 43.5046C660.804 43.5046 660.615 43.5816 660.475 43.719L653.482 50.589Z" fill="#E2BC72"/>
<path d="M684.172 46.0979C683.528 46.0979 682.949 45.9859 682.436 45.7619C681.932 45.5286 681.535 45.2113 681.246 44.8099C680.957 44.3993 680.807 43.9279 680.798 43.3959H682.156C682.203 43.8533 682.389 44.2406 682.716 44.5579C683.052 44.8659 683.537 45.0199 684.172 45.0199C684.779 45.0199 685.255 44.8706 685.6 44.5719C685.955 44.2639 686.132 43.8719 686.132 43.3959C686.132 43.0226 686.029 42.7193 685.824 42.4859C685.619 42.2526 685.362 42.0753 685.054 41.9539C684.746 41.8326 684.331 41.7019 683.808 41.5619C683.164 41.3939 682.646 41.2259 682.254 41.0579C681.871 40.8899 681.54 40.6286 681.26 40.2739C680.989 39.9099 680.854 39.4246 680.854 38.8179C680.854 38.2859 680.989 37.8146 681.26 37.4039C681.531 36.9933 681.909 36.6759 682.394 36.4519C682.889 36.2279 683.453 36.1159 684.088 36.1159C685.003 36.1159 685.749 36.3446 686.328 36.8019C686.916 37.2593 687.247 37.8659 687.322 38.6219H685.922C685.875 38.2486 685.679 37.9219 685.334 37.6419C684.989 37.3526 684.531 37.2079 683.962 37.2079C683.43 37.2079 682.996 37.3479 682.66 37.6279C682.324 37.8986 682.156 38.2813 682.156 38.7759C682.156 39.1306 682.254 39.4199 682.45 39.6439C682.655 39.8679 682.903 40.0406 683.192 40.1619C683.491 40.2739 683.906 40.4046 684.438 40.5539C685.082 40.7313 685.6 40.9086 685.992 41.0859C686.384 41.2539 686.72 41.5199 687 41.8839C687.28 42.2386 687.42 42.7239 687.42 43.3399C687.42 43.8159 687.294 44.2639 687.042 44.6839C686.79 45.1039 686.417 45.4446 685.922 45.7059C685.427 45.9673 684.844 46.0979 684.172 46.0979Z" fill="#E2BC72"/>
<path d="M696.295 41.8699C696.295 42.1126 696.281 42.3693 696.253 42.6399H690.121C690.167 43.3959 690.424 43.9886 690.891 44.4179C691.367 44.8379 691.941 45.0479 692.613 45.0479C693.163 45.0479 693.621 44.9219 693.985 44.6699C694.358 44.4086 694.619 44.0633 694.769 43.6339H696.141C695.935 44.3713 695.525 44.9733 694.909 45.4399C694.293 45.8973 693.527 46.1259 692.613 46.1259C691.885 46.1259 691.231 45.9626 690.653 45.6359C690.083 45.3093 689.635 44.8473 689.309 44.2499C688.982 43.6433 688.819 42.9433 688.819 42.1499C688.819 41.3566 688.977 40.6613 689.295 40.0639C689.612 39.4666 690.055 39.0093 690.625 38.6919C691.203 38.3653 691.866 38.2019 692.613 38.2019C693.341 38.2019 693.985 38.3606 694.545 38.6779C695.105 38.9953 695.534 39.4339 695.833 39.9939C696.141 40.5446 696.295 41.1699 696.295 41.8699ZM694.979 41.6039C694.979 41.1186 694.871 40.7033 694.657 40.3579C694.442 40.0033 694.148 39.7373 693.775 39.5599C693.411 39.3733 693.005 39.2799 692.557 39.2799C691.913 39.2799 691.362 39.4853 690.905 39.8959C690.457 40.3066 690.2 40.8759 690.135 41.6039H694.979Z" fill="#E2BC72"/>
<path d="M699.25 35.6399V45.9999H697.976V35.6399H699.25Z" fill="#E2BC72"/>
<path d="M708.422 41.8699C708.422 42.1126 708.408 42.3693 708.38 42.6399H702.248C702.294 43.3959 702.551 43.9886 703.018 44.4179C703.494 44.8379 704.068 45.0479 704.74 45.0479C705.29 45.0479 705.748 44.9219 706.112 44.6699C706.485 44.4086 706.746 44.0633 706.896 43.6339H708.268C708.062 44.3713 707.652 44.9733 707.036 45.4399C706.42 45.8973 705.654 46.1259 704.74 46.1259C704.012 46.1259 703.358 45.9626 702.78 45.6359C702.21 45.3093 701.762 44.8473 701.436 44.2499C701.109 43.6433 700.946 42.9433 700.946 42.1499C700.946 41.3566 701.104 40.6613 701.422 40.0639C701.739 39.4666 702.182 39.0093 702.752 38.6919C703.33 38.3653 703.993 38.2019 704.74 38.2019C705.468 38.2019 706.112 38.3606 706.672 38.6779C707.232 38.9953 707.661 39.4339 707.96 39.9939C708.268 40.5446 708.422 41.1699 708.422 41.8699ZM707.106 41.6039C707.106 41.1186 706.998 40.7033 706.784 40.3579C706.569 40.0033 706.275 39.7373 705.902 39.5599C705.538 39.3733 705.132 39.2799 704.684 39.2799C704.04 39.2799 703.489 39.4853 703.032 39.8959C702.584 40.3066 702.327 40.8759 702.262 41.6039H707.106Z" fill="#E2BC72"/>
<path d="M709.627 42.1499C709.627 41.3566 709.786 40.6659 710.103 40.0779C710.421 39.4806 710.859 39.0186 711.419 38.6919C711.989 38.3653 712.637 38.2019 713.365 38.2019C714.308 38.2019 715.083 38.4306 715.689 38.8879C716.305 39.3453 716.711 39.9799 716.907 40.7919H715.535C715.405 40.3253 715.148 39.9566 714.765 39.6859C714.392 39.4153 713.925 39.2799 713.365 39.2799C712.637 39.2799 712.049 39.5319 711.601 40.0359C711.153 40.5306 710.929 41.2353 710.929 42.1499C710.929 43.0739 711.153 43.7879 711.601 44.2919C712.049 44.7959 712.637 45.0479 713.365 45.0479C713.925 45.0479 714.392 44.9173 714.765 44.6559C715.139 44.3946 715.395 44.0213 715.535 43.5359H716.907C716.702 44.3199 716.291 44.9499 715.675 45.4259C715.059 45.8926 714.289 46.1259 713.365 46.1259C712.637 46.1259 711.989 45.9626 711.419 45.6359C710.859 45.3093 710.421 44.8473 710.103 44.2499C709.786 43.6526 709.627 42.9526 709.627 42.1499Z" fill="#E2BC72"/>
<path d="M720.161 39.3779V43.8999C720.161 44.2733 720.241 44.5393 720.399 44.6979C720.558 44.8473 720.833 44.9219 721.225 44.9219H722.163V45.9999H721.015C720.306 45.9999 719.774 45.8366 719.419 45.5099C719.065 45.1833 718.887 44.6466 718.887 43.8999V39.3779H717.893V38.3279H718.887V36.3959H720.161V38.3279H722.163V39.3779H720.161Z" fill="#E2BC72"/>
<path d="M728.097 37.0819C727.855 37.0819 727.649 36.9979 727.481 36.8299C727.313 36.6619 727.229 36.4566 727.229 36.2139C727.229 35.9713 727.313 35.7659 727.481 35.5979C727.649 35.4299 727.855 35.3459 728.097 35.3459C728.331 35.3459 728.527 35.4299 728.685 35.5979C728.853 35.7659 728.937 35.9713 728.937 36.2139C728.937 36.4566 728.853 36.6619 728.685 36.8299C728.527 36.9979 728.331 37.0819 728.097 37.0819ZM728.713 38.3279V45.9999H727.439V38.3279H728.713Z" fill="#E2BC72"/>
<path d="M740.111 38.1879C740.708 38.1879 741.24 38.3139 741.707 38.5659C742.173 38.8086 742.542 39.1773 742.813 39.6719C743.083 40.1666 743.219 40.7686 743.219 41.4779V45.9999H741.959V41.6599C741.959 40.8946 741.767 40.3113 741.385 39.9099C741.011 39.4993 740.503 39.2939 739.859 39.2939C739.196 39.2939 738.669 39.5086 738.277 39.9379C737.885 40.3579 737.689 40.9693 737.689 41.7719V45.9999H736.429V41.6599C736.429 40.8946 736.237 40.3113 735.855 39.9099C735.481 39.4993 734.973 39.2939 734.329 39.2939C733.666 39.2939 733.139 39.5086 732.747 39.9379C732.355 40.3579 732.159 40.9693 732.159 41.7719V45.9999H730.885V38.3279H732.159V39.4339C732.411 39.0326 732.747 38.7246 733.167 38.5099C733.596 38.2953 734.067 38.1879 734.581 38.1879C735.225 38.1879 735.794 38.3326 736.289 38.6219C736.783 38.9113 737.152 39.3359 737.395 39.8959C737.609 39.3546 737.964 38.9346 738.459 38.6359C738.953 38.3373 739.504 38.1879 740.111 38.1879Z" fill="#E2BC72"/>
<path d="M744.832 42.1359C744.832 41.3519 744.991 40.6659 745.308 40.0779C745.626 39.4806 746.06 39.0186 746.61 38.6919C747.17 38.3653 747.791 38.2019 748.472 38.2019C749.144 38.2019 749.728 38.3466 750.222 38.6359C750.717 38.9253 751.086 39.2893 751.328 39.7279V38.3279H752.616V45.9999H751.328V44.5719C751.076 45.0199 750.698 45.3933 750.194 45.6919C749.7 45.9813 749.121 46.1259 748.458 46.1259C747.777 46.1259 747.161 45.9579 746.61 45.6219C746.06 45.2859 745.626 44.8146 745.308 44.2079C744.991 43.6013 744.832 42.9106 744.832 42.1359ZM751.328 42.1499C751.328 41.5713 751.212 41.0673 750.978 40.6379C750.745 40.2086 750.428 39.8819 750.026 39.6579C749.634 39.4246 749.2 39.3079 748.724 39.3079C748.248 39.3079 747.814 39.4199 747.422 39.6439C747.03 39.8679 746.718 40.1946 746.484 40.6239C746.251 41.0533 746.134 41.5573 746.134 42.1359C746.134 42.7239 746.251 43.2373 746.484 43.6759C746.718 44.1053 747.03 44.4366 747.422 44.6699C747.814 44.8939 748.248 45.0059 748.724 45.0059C749.2 45.0059 749.634 44.8939 750.026 44.6699C750.428 44.4366 750.745 44.1053 750.978 43.6759C751.212 43.2373 751.328 42.7286 751.328 42.1499Z" fill="#E2BC72"/>
<path d="M757.933 38.2019C758.596 38.2019 759.175 38.3466 759.669 38.6359C760.173 38.9253 760.547 39.2893 760.789 39.7279V38.3279H762.077V46.1679C762.077 46.8679 761.928 47.4886 761.629 48.0299C761.331 48.5806 760.901 49.0099 760.341 49.3179C759.791 49.6259 759.147 49.7799 758.409 49.7799C757.401 49.7799 756.561 49.5419 755.889 49.0659C755.217 48.5899 754.821 47.9413 754.699 47.1199H755.959C756.099 47.5866 756.389 47.9599 756.827 48.2399C757.266 48.5293 757.793 48.6739 758.409 48.6739C759.109 48.6739 759.679 48.4546 760.117 48.0159C760.565 47.5773 760.789 46.9613 760.789 46.1679V44.5579C760.537 45.0059 760.164 45.3793 759.669 45.6779C759.175 45.9766 758.596 46.1259 757.933 46.1259C757.252 46.1259 756.631 45.9579 756.071 45.6219C755.521 45.2859 755.087 44.8146 754.769 44.2079C754.452 43.6013 754.293 42.9106 754.293 42.1359C754.293 41.3519 754.452 40.6659 754.769 40.0779C755.087 39.4806 755.521 39.0186 756.071 38.6919C756.631 38.3653 757.252 38.2019 757.933 38.2019ZM760.789 42.1499C760.789 41.5713 760.673 41.0673 760.439 40.6379C760.206 40.2086 759.889 39.8819 759.487 39.6579C759.095 39.4246 758.661 39.3079 758.185 39.3079C757.709 39.3079 757.275 39.4199 756.883 39.6439C756.491 39.8679 756.179 40.1946 755.945 40.6239C755.712 41.0533 755.595 41.5573 755.595 42.1359C755.595 42.7239 755.712 43.2373 755.945 43.6759C756.179 44.1053 756.491 44.4366 756.883 44.6699C757.275 44.8939 757.709 45.0059 758.185 45.0059C758.661 45.0059 759.095 44.8939 759.487 44.6699C759.889 44.4366 760.206 44.1053 760.439 43.6759C760.673 43.2373 760.789 42.7286 760.789 42.1499Z" fill="#E2BC72"/>
<path d="M771.23 41.8699C771.23 42.1126 771.216 42.3693 771.188 42.6399H765.056C765.103 43.3959 765.36 43.9886 765.826 44.4179C766.302 44.8379 766.876 45.0479 767.548 45.0479C768.099 45.0479 768.556 44.9219 768.92 44.6699C769.294 44.4086 769.555 44.0633 769.704 43.6339H771.076C770.871 44.3713 770.46 44.9733 769.844 45.4399C769.228 45.8973 768.463 46.1259 767.548 46.1259C766.82 46.1259 766.167 45.9626 765.588 45.6359C765.019 45.3093 764.571 44.8473 764.244 44.2499C763.918 43.6433 763.754 42.9433 763.754 42.1499C763.754 41.3566 763.913 40.6613 764.23 40.0639C764.548 39.4666 764.991 39.0093 765.56 38.6919C766.139 38.3653 766.802 38.2019 767.548 38.2019C768.276 38.2019 768.92 38.3606 769.48 38.6779C770.04 38.9953 770.47 39.4339 770.768 39.9939C771.076 40.5446 771.23 41.1699 771.23 41.8699ZM769.914 41.6039C769.914 41.1186 769.807 40.7033 769.592 40.3579C769.378 40.0033 769.084 39.7373 768.71 39.5599C768.346 39.3733 767.94 39.2799 767.492 39.2799C766.848 39.2799 766.298 39.4853 765.84 39.8959C765.392 40.3066 765.136 40.8759 765.07 41.6039H769.914Z" fill="#E2BC72"/>
<path d="M775.628 46.1259C775.04 46.1259 774.513 46.0279 774.046 45.8319C773.579 45.6266 773.211 45.3466 772.94 44.9919C772.669 44.6279 772.52 44.2126 772.492 43.7459H773.808C773.845 44.1286 774.023 44.4413 774.34 44.6839C774.667 44.9266 775.091 45.0479 775.614 45.0479C776.099 45.0479 776.482 44.9406 776.762 44.7259C777.042 44.5113 777.182 44.2406 777.182 43.9139C777.182 43.5779 777.033 43.3306 776.734 43.1719C776.435 43.0039 775.973 42.8406 775.348 42.6819C774.779 42.5326 774.312 42.3833 773.948 42.2339C773.593 42.0753 773.285 41.8466 773.024 41.5479C772.772 41.2399 772.646 40.8386 772.646 40.3439C772.646 39.9519 772.763 39.5926 772.996 39.2659C773.229 38.9393 773.561 38.6826 773.99 38.4959C774.419 38.2999 774.909 38.2019 775.46 38.2019C776.309 38.2019 776.995 38.4166 777.518 38.8459C778.041 39.2753 778.321 39.8633 778.358 40.6099H777.084C777.056 40.2086 776.893 39.8866 776.594 39.6439C776.305 39.4013 775.913 39.2799 775.418 39.2799C774.961 39.2799 774.597 39.3779 774.326 39.5739C774.055 39.7699 773.92 40.0266 773.92 40.3439C773.92 40.5959 773.999 40.8059 774.158 40.9739C774.326 41.1326 774.531 41.2633 774.774 41.3659C775.026 41.4593 775.371 41.5666 775.81 41.6879C776.361 41.8373 776.809 41.9866 777.154 42.1359C777.499 42.2759 777.793 42.4906 778.036 42.7799C778.288 43.0693 778.419 43.4473 778.428 43.9139C778.428 44.3339 778.311 44.7119 778.078 45.0479C777.845 45.3839 777.513 45.6499 777.084 45.8459C776.664 46.0326 776.179 46.1259 775.628 46.1259Z" fill="#E2BC72"/>
<path d="M680 47.3999H779.142V48.0999H680V47.3999Z" fill="#E2BC72"/>
<path d="M669.639 78.6041C668.743 77.7267 668.043 76.6114 667.539 75.2581C667.044 73.9047 666.797 72.4441 666.797 70.8761C666.797 69.2707 667.058 67.7727 667.581 66.3821C668.113 64.9821 668.869 63.8294 669.849 62.9241H671.179V63.0501C670.134 64.0301 669.345 65.2107 668.813 66.5921C668.29 67.9641 668.029 69.3921 668.029 70.8761C668.029 72.3227 668.276 73.7041 668.771 75.0201C669.275 76.3361 670.008 77.4887 670.969 78.4781V78.6041H669.639Z" fill="black" fill-opacity="0.4"/>
<path d="M682.618 66.3121V76.0001H681.344V68.7761L678.124 76.0001H677.228L673.994 68.7621V76.0001H672.72V66.3121H674.092L677.676 74.3201L681.26 66.3121H682.618Z" fill="black" fill-opacity="0.4"/>
<path d="M685.437 67.0821C685.194 67.0821 684.989 66.9981 684.821 66.8301C684.653 66.6621 684.569 66.4567 684.569 66.2141C684.569 65.9714 684.653 65.7661 684.821 65.5981C684.989 65.4301 685.194 65.3461 685.437 65.3461C685.67 65.3461 685.866 65.4301 686.025 65.5981C686.193 65.7661 686.277 65.9714 686.277 66.2141C686.277 66.4567 686.193 66.6621 686.025 66.8301C685.866 66.9981 685.67 67.0821 685.437 67.0821ZM686.053 68.3281V76.0001H684.779V68.3281H686.053Z" fill="black" fill-opacity="0.4"/>
<path d="M691.962 68.1881C692.896 68.1881 693.652 68.4727 694.23 69.0421C694.809 69.6021 695.098 70.4141 695.098 71.4781V76.0001H693.838V71.6601C693.838 70.8947 693.647 70.3114 693.264 69.9101C692.882 69.4994 692.359 69.2941 691.696 69.2941C691.024 69.2941 690.488 69.5041 690.086 69.9241C689.694 70.3441 689.498 70.9554 689.498 71.7581V76.0001H688.224V68.3281H689.498V69.4201C689.75 69.0281 690.091 68.7247 690.52 68.5101C690.959 68.2954 691.44 68.1881 691.962 68.1881Z" fill="black" fill-opacity="0.4"/>
<path d="M697.837 67.0821C697.595 67.0821 697.389 66.9981 697.221 66.8301C697.053 66.6621 696.969 66.4567 696.969 66.2141C696.969 65.9714 697.053 65.7661 697.221 65.5981C697.389 65.4301 697.595 65.3461 697.837 65.3461C698.071 65.3461 698.267 65.4301 698.425 65.5981C698.593 65.7661 698.677 65.9714 698.677 66.2141C698.677 66.4567 698.593 66.6621 698.425 66.8301C698.267 66.9981 698.071 67.0821 697.837 67.0821ZM698.453 68.3281V76.0001H697.179V68.3281H698.453Z" fill="black" fill-opacity="0.4"/>
<path d="M709.851 68.1881C710.448 68.1881 710.98 68.3141 711.447 68.5661C711.913 68.8087 712.282 69.1774 712.553 69.6721C712.823 70.1667 712.959 70.7687 712.959 71.4781V76.0001H711.699V71.6601C711.699 70.8947 711.507 70.3114 711.125 69.9101C710.751 69.4994 710.243 69.2941 709.599 69.2941C708.936 69.2941 708.409 69.5087 708.017 69.9381C707.625 70.3581 707.429 70.9694 707.429 71.7721V76.0001H706.169V71.6601C706.169 70.8947 705.977 70.3114 705.595 69.9101C705.221 69.4994 704.713 69.2941 704.069 69.2941C703.406 69.2941 702.879 69.5087 702.487 69.9381C702.095 70.3581 701.899 70.9694 701.899 71.7721V76.0001H700.625V68.3281H701.899V69.4341C702.151 69.0327 702.487 68.7247 702.907 68.5101C703.336 68.2954 703.807 68.1881 704.321 68.1881C704.965 68.1881 705.534 68.3327 706.029 68.6221C706.523 68.9114 706.892 69.3361 707.135 69.8961C707.349 69.3547 707.704 68.9347 708.199 68.6361C708.693 68.3374 709.244 68.1881 709.851 68.1881Z" fill="black" fill-opacity="0.4"/>
<path d="M721.852 68.3281V76.0001H720.578V74.8661C720.336 75.2581 719.995 75.5661 719.556 75.7901C719.127 76.0047 718.651 76.1121 718.128 76.1121C717.531 76.1121 716.994 75.9907 716.518 75.7481C716.042 75.4961 715.664 75.1227 715.384 74.6281C715.114 74.1334 714.978 73.5314 714.978 72.8221V68.3281H716.238V72.6541C716.238 73.4101 716.43 73.9934 716.812 74.4041C717.195 74.8054 717.718 75.0061 718.38 75.0061C719.062 75.0061 719.598 74.7961 719.99 74.3761C720.382 73.9561 720.578 73.3447 720.578 72.5421V68.3281H721.852Z" fill="black" fill-opacity="0.4"/>
<path d="M733.229 68.1881C733.827 68.1881 734.359 68.3141 734.826 68.5661C735.292 68.8087 735.661 69.1774 735.931 69.6721C736.202 70.1667 736.338 70.7687 736.338 71.4781V76.0001H735.077V71.6601C735.077 70.8947 734.886 70.3114 734.504 69.9101C734.13 69.4994 733.622 69.2941 732.978 69.2941C732.315 69.2941 731.788 69.5087 731.396 69.9381C731.004 70.3581 730.808 70.9694 730.808 71.7721V76.0001H729.548V71.6601C729.548 70.8947 729.356 70.3114 728.973 69.9101C728.6 69.4994 728.091 69.2941 727.447 69.2941C726.785 69.2941 726.257 69.5087 725.865 69.9381C725.473 70.3581 725.278 70.9694 725.278 71.7721V76.0001H724.003V68.3281H725.278V69.4341C725.53 69.0327 725.865 68.7247 726.285 68.5101C726.715 68.2954 727.186 68.1881 727.7 68.1881C728.344 68.1881 728.913 68.3327 729.408 68.6221C729.902 68.9114 730.271 69.3361 730.513 69.8961C730.728 69.3547 731.083 68.9347 731.577 68.6361C732.072 68.3374 732.623 68.1881 733.229 68.1881Z" fill="black" fill-opacity="0.4"/>
<path d="M741.614 67.0401V65.8781H744.246V76.0001H742.958V67.0401H741.614Z" fill="black" fill-opacity="0.4"/>
<path d="M746.434 70.8341C746.434 69.2287 746.695 67.9781 747.218 67.0821C747.741 66.1767 748.655 65.7241 749.962 65.7241C751.259 65.7241 752.169 66.1767 752.692 67.0821C753.215 67.9781 753.476 69.2287 753.476 70.8341C753.476 72.4674 753.215 73.7367 752.692 74.6421C752.169 75.5474 751.259 76.0001 749.962 76.0001C748.655 76.0001 747.741 75.5474 747.218 74.6421C746.695 73.7367 746.434 72.4674 746.434 70.8341ZM752.216 70.8341C752.216 70.0221 752.16 69.3361 752.048 68.7761C751.945 68.2067 751.726 67.7494 751.39 67.4041C751.063 67.0587 750.587 66.8861 749.962 66.8861C749.327 66.8861 748.842 67.0587 748.506 67.4041C748.179 67.7494 747.96 68.2067 747.848 68.7761C747.745 69.3361 747.694 70.0221 747.694 70.8341C747.694 71.6741 747.745 72.3787 747.848 72.9481C747.96 73.5174 748.179 73.9747 748.506 74.3201C748.842 74.6654 749.327 74.8381 749.962 74.8381C750.587 74.8381 751.063 74.6654 751.39 74.3201C751.726 73.9747 751.945 73.5174 752.048 72.9481C752.16 72.3787 752.216 71.6741 752.216 70.8341Z" fill="black" fill-opacity="0.4"/>
<path d="M755.029 78.6041V78.4781C755.99 77.4887 756.718 76.3361 757.213 75.0201C757.717 73.7041 757.969 72.3227 757.969 70.8761C757.969 69.3921 757.703 67.9641 757.171 66.5921C756.648 65.2107 755.864 64.0301 754.819 63.0501V62.9241H756.149C757.129 63.8294 757.88 64.9821 758.403 66.3821C758.935 67.7727 759.201 69.2707 759.201 70.8761C759.201 72.4441 758.949 73.9047 758.445 75.2581C757.95 76.6114 757.255 77.7267 756.359 78.6041H755.029Z" fill="black" fill-opacity="0.4"/>
</svg>
