<svg width="1426" height="110" viewBox="0 0 1426 110" fill="none" xmlns="http://www.w3.org/2000/svg">
<rect x="0.5" y="0.5" width="1425" height="109" rx="7.5" stroke="black" stroke-opacity="0.1" stroke-dasharray="2 2"/>
<path d="M660 48.25C660 50.0402 659.289 51.7571 658.023 53.023C656.757 54.2888 655.04 55 653.25 55C651.46 55 649.743 54.2888 648.477 53.023C647.211 51.7571 646.5 50.0402 646.5 48.25C646.5 46.4598 647.211 44.7429 648.477 43.477C649.743 42.2112 651.46 41.5 653.25 41.5C655.04 41.5 656.757 42.2112 658.023 43.477C659.289 44.7429 660 46.4598 660 48.25ZM654 45.25C654 45.0511 653.921 44.8603 653.78 44.7197C653.64 44.579 653.449 44.5 653.25 44.5C653.051 44.5 652.86 44.579 652.72 44.7197C652.579 44.8603 652.5 45.0511 652.5 45.25V47.5H650.25C650.051 47.5 649.86 47.579 649.72 47.7197C649.579 47.8603 649.5 48.0511 649.5 48.25C649.5 48.4489 649.579 48.6397 649.72 48.7803C649.86 48.921 650.051 49 650.25 49H652.5V51.25C652.5 51.4489 652.579 51.6397 652.72 51.7803C652.86 51.921 653.051 52 653.25 52C653.449 52 653.64 51.921 653.78 51.7803C653.921 51.6397 654 51.4489 654 51.25V49H656.25C656.449 49 656.64 48.921 656.78 48.7803C656.921 48.6397 657 48.4489 657 48.25C657 48.0511 656.921 47.8603 656.78 47.7197C656.64 47.579 656.449 47.5 656.25 47.5H654V45.25ZM666 46H661.19C661.043 45.4819 660.845 44.9794 660.6 44.5H666C667.193 44.5 668.338 44.9741 669.182 45.818C670.026 46.6619 670.5 47.8065 670.5 49V61C670.5 62.1935 670.026 63.3381 669.182 64.182C668.338 65.0259 667.193 65.5 666 65.5H654C652.807 65.5 651.662 65.0259 650.818 64.182C649.974 63.3381 649.5 62.1935 649.5 61V55.6C649.976 55.843 650.477 56.041 651 56.1895V61C651 61.5595 651.153 62.083 651.42 62.53L658.424 55.648C658.844 55.2348 659.41 55.0034 660 55.0034C660.59 55.0034 661.156 55.2348 661.576 55.648L668.581 62.53C668.856 62.0671 669.001 61.5384 669 61V49C669 48.2044 668.684 47.4413 668.121 46.8787C667.559 46.3161 666.796 46 666 46ZM666 51.25C666 51.5455 665.942 51.8381 665.829 52.111C665.716 52.384 665.55 52.6321 665.341 52.841C665.132 53.0499 664.884 53.2157 664.611 53.3287C664.338 53.4418 664.045 53.5 663.75 53.5C663.455 53.5 663.162 53.4418 662.889 53.3287C662.616 53.2157 662.368 53.0499 662.159 52.841C661.95 52.6321 661.784 52.384 661.671 52.111C661.558 51.8381 661.5 51.5455 661.5 51.25C661.5 50.6533 661.737 50.081 662.159 49.659C662.581 49.2371 663.153 49 663.75 49C664.347 49 664.919 49.2371 665.341 49.659C665.763 50.081 666 50.6533 666 51.25ZM664.5 51.25C664.5 51.0511 664.421 50.8603 664.28 50.7197C664.14 50.579 663.949 50.5 663.75 50.5C663.551 50.5 663.36 50.579 663.22 50.7197C663.079 50.8603 663 51.0511 663 51.25C663 51.4489 663.079 51.6397 663.22 51.7803C663.36 51.921 663.551 52 663.75 52C663.949 52 664.14 51.921 664.28 51.7803C664.421 51.6397 664.5 51.4489 664.5 51.25ZM652.482 63.589C652.942 63.8592 653.466 64.0012 654 64H666C666.555 64 667.073 63.85 667.518 63.589L660.525 56.719C660.385 56.5816 660.196 56.5046 660 56.5046C659.804 56.5046 659.615 56.5816 659.475 56.719L652.482 63.589Z" fill="#E2BC72"/>
<path d="M686.172 59.0982C685.528 59.0982 684.949 58.9862 684.436 58.7622C683.932 58.5289 683.535 58.2115 683.246 57.8102C682.957 57.3995 682.807 56.9282 682.798 56.3962H684.156C684.203 56.8535 684.389 57.2409 684.716 57.5582C685.052 57.8662 685.537 58.0202 686.172 58.0202C686.779 58.0202 687.255 57.8709 687.6 57.5722C687.955 57.2642 688.132 56.8722 688.132 56.3962C688.132 56.0229 688.029 55.7195 687.824 55.4862C687.619 55.2529 687.362 55.0755 687.054 54.9542C686.746 54.8329 686.331 54.7022 685.808 54.5622C685.164 54.3942 684.646 54.2262 684.254 54.0582C683.871 53.8902 683.54 53.6289 683.26 53.2742C682.989 52.9102 682.854 52.4249 682.854 51.8182C682.854 51.2862 682.989 50.8149 683.26 50.4042C683.531 49.9935 683.909 49.6762 684.394 49.4522C684.889 49.2282 685.453 49.1162 686.088 49.1162C687.003 49.1162 687.749 49.3449 688.328 49.8022C688.916 50.2595 689.247 50.8662 689.322 51.6222H687.922C687.875 51.2489 687.679 50.9222 687.334 50.6422C686.989 50.3529 686.531 50.2082 685.962 50.2082C685.43 50.2082 684.996 50.3482 684.66 50.6282C684.324 50.8989 684.156 51.2815 684.156 51.7762C684.156 52.1309 684.254 52.4202 684.45 52.6442C684.655 52.8682 684.903 53.0409 685.192 53.1622C685.491 53.2742 685.906 53.4049 686.438 53.5542C687.082 53.7315 687.6 53.9089 687.992 54.0862C688.384 54.2542 688.72 54.5202 689 54.8842C689.28 55.2389 689.42 55.7242 689.42 56.3402C689.42 56.8162 689.294 57.2642 689.042 57.6842C688.79 58.1042 688.417 58.4449 687.922 58.7062C687.427 58.9675 686.844 59.0982 686.172 59.0982Z" fill="#E2BC72"/>
<path d="M698.295 54.8702C698.295 55.1129 698.281 55.3695 698.253 55.6402H692.121C692.167 56.3962 692.424 56.9889 692.891 57.4182C693.367 57.8382 693.941 58.0482 694.613 58.0482C695.163 58.0482 695.621 57.9222 695.985 57.6702C696.358 57.4089 696.619 57.0635 696.769 56.6342H698.141C697.935 57.3715 697.525 57.9735 696.909 58.4402C696.293 58.8975 695.527 59.1262 694.613 59.1262C693.885 59.1262 693.231 58.9629 692.653 58.6362C692.083 58.3095 691.635 57.8475 691.309 57.2502C690.982 56.6435 690.819 55.9435 690.819 55.1502C690.819 54.3569 690.977 53.6615 691.295 53.0642C691.612 52.4669 692.055 52.0095 692.625 51.6922C693.203 51.3655 693.866 51.2022 694.613 51.2022C695.341 51.2022 695.985 51.3609 696.545 51.6782C697.105 51.9955 697.534 52.4342 697.833 52.9942C698.141 53.5449 698.295 54.1702 698.295 54.8702ZM696.979 54.6042C696.979 54.1189 696.871 53.7035 696.657 53.3582C696.442 53.0035 696.148 52.7375 695.775 52.5602C695.411 52.3735 695.005 52.2802 694.557 52.2802C693.913 52.2802 693.362 52.4855 692.905 52.8962C692.457 53.3069 692.2 53.8762 692.135 54.6042H696.979Z" fill="#E2BC72"/>
<path d="M701.25 48.6402V59.0002H699.976V48.6402H701.25Z" fill="#E2BC72"/>
<path d="M710.422 54.8702C710.422 55.1129 710.408 55.3695 710.38 55.6402H704.248C704.294 56.3962 704.551 56.9889 705.018 57.4182C705.494 57.8382 706.068 58.0482 706.74 58.0482C707.29 58.0482 707.748 57.9222 708.112 57.6702C708.485 57.4089 708.746 57.0635 708.896 56.6342H710.268C710.062 57.3715 709.652 57.9735 709.036 58.4402C708.42 58.8975 707.654 59.1262 706.74 59.1262C706.012 59.1262 705.358 58.9629 704.78 58.6362C704.21 58.3095 703.762 57.8475 703.436 57.2502C703.109 56.6435 702.946 55.9435 702.946 55.1502C702.946 54.3569 703.104 53.6615 703.422 53.0642C703.739 52.4669 704.182 52.0095 704.752 51.6922C705.33 51.3655 705.993 51.2022 706.74 51.2022C707.468 51.2022 708.112 51.3609 708.672 51.6782C709.232 51.9955 709.661 52.4342 709.96 52.9942C710.268 53.5449 710.422 54.1702 710.422 54.8702ZM709.106 54.6042C709.106 54.1189 708.998 53.7035 708.784 53.3582C708.569 53.0035 708.275 52.7375 707.902 52.5602C707.538 52.3735 707.132 52.2802 706.684 52.2802C706.04 52.2802 705.489 52.4855 705.032 52.8962C704.584 53.3069 704.327 53.8762 704.262 54.6042H709.106Z" fill="#E2BC72"/>
<path d="M711.627 55.1502C711.627 54.3569 711.786 53.6662 712.103 53.0782C712.421 52.4809 712.859 52.0189 713.419 51.6922C713.989 51.3655 714.637 51.2022 715.365 51.2022C716.308 51.2022 717.083 51.4309 717.689 51.8882C718.305 52.3455 718.711 52.9802 718.907 53.7922H717.535C717.405 53.3255 717.148 52.9569 716.765 52.6862C716.392 52.4155 715.925 52.2802 715.365 52.2802C714.637 52.2802 714.049 52.5322 713.601 53.0362C713.153 53.5309 712.929 54.2355 712.929 55.1502C712.929 56.0742 713.153 56.7882 713.601 57.2922C714.049 57.7962 714.637 58.0482 715.365 58.0482C715.925 58.0482 716.392 57.9175 716.765 57.6562C717.139 57.3949 717.395 57.0215 717.535 56.5362H718.907C718.702 57.3202 718.291 57.9502 717.675 58.4262C717.059 58.8929 716.289 59.1262 715.365 59.1262C714.637 59.1262 713.989 58.9629 713.419 58.6362C712.859 58.3095 712.421 57.8475 712.103 57.2502C711.786 56.6529 711.627 55.9529 711.627 55.1502Z" fill="#E2BC72"/>
<path d="M722.161 52.3782V56.9002C722.161 57.2735 722.241 57.5395 722.399 57.6982C722.558 57.8475 722.833 57.9222 723.225 57.9222H724.163V59.0002H723.015C722.306 59.0002 721.774 58.8369 721.419 58.5102C721.065 58.1835 720.887 57.6469 720.887 56.9002V52.3782H719.893V51.3282H720.887V49.3962H722.161V51.3282H724.163V52.3782H722.161Z" fill="#E2BC72"/>
<path d="M730.097 50.0822C729.855 50.0822 729.649 49.9982 729.481 49.8302C729.313 49.6622 729.229 49.4569 729.229 49.2142C729.229 48.9715 729.313 48.7662 729.481 48.5982C729.649 48.4302 729.855 48.3462 730.097 48.3462C730.331 48.3462 730.527 48.4302 730.685 48.5982C730.853 48.7662 730.937 48.9715 730.937 49.2142C730.937 49.4569 730.853 49.6622 730.685 49.8302C730.527 49.9982 730.331 50.0822 730.097 50.0822ZM730.713 51.3282V59.0002H729.439V51.3282H730.713Z" fill="#E2BC72"/>
<path d="M742.111 51.1882C742.708 51.1882 743.24 51.3142 743.707 51.5662C744.173 51.8089 744.542 52.1775 744.813 52.6722C745.083 53.1669 745.219 53.7689 745.219 54.4782V59.0002H743.959V54.6602C743.959 53.8949 743.767 53.3115 743.385 52.9102C743.011 52.4995 742.503 52.2942 741.859 52.2942C741.196 52.2942 740.669 52.5089 740.277 52.9382C739.885 53.3582 739.689 53.9695 739.689 54.7722V59.0002H738.429V54.6602C738.429 53.8949 738.237 53.3115 737.855 52.9102C737.481 52.4995 736.973 52.2942 736.329 52.2942C735.666 52.2942 735.139 52.5089 734.747 52.9382C734.355 53.3582 734.159 53.9695 734.159 54.7722V59.0002H732.885V51.3282H734.159V52.4342C734.411 52.0329 734.747 51.7249 735.167 51.5102C735.596 51.2955 736.067 51.1882 736.581 51.1882C737.225 51.1882 737.794 51.3329 738.289 51.6222C738.783 51.9115 739.152 52.3362 739.395 52.8962C739.609 52.3549 739.964 51.9349 740.459 51.6362C740.953 51.3375 741.504 51.1882 742.111 51.1882Z" fill="#E2BC72"/>
<path d="M746.832 55.1362C746.832 54.3522 746.991 53.6662 747.308 53.0782C747.626 52.4809 748.06 52.0189 748.61 51.6922C749.17 51.3655 749.791 51.2022 750.472 51.2022C751.144 51.2022 751.728 51.3469 752.222 51.6362C752.717 51.9255 753.086 52.2895 753.328 52.7282V51.3282H754.616V59.0002H753.328V57.5722C753.076 58.0202 752.698 58.3935 752.194 58.6922C751.7 58.9815 751.121 59.1262 750.458 59.1262C749.777 59.1262 749.161 58.9582 748.61 58.6222C748.06 58.2862 747.626 57.8149 747.308 57.2082C746.991 56.6015 746.832 55.9109 746.832 55.1362ZM753.328 55.1502C753.328 54.5715 753.212 54.0675 752.978 53.6382C752.745 53.2089 752.428 52.8822 752.026 52.6582C751.634 52.4249 751.2 52.3082 750.724 52.3082C750.248 52.3082 749.814 52.4202 749.422 52.6442C749.03 52.8682 748.718 53.1949 748.484 53.6242C748.251 54.0535 748.134 54.5575 748.134 55.1362C748.134 55.7242 748.251 56.2375 748.484 56.6762C748.718 57.1055 749.03 57.4369 749.422 57.6702C749.814 57.8942 750.248 58.0062 750.724 58.0062C751.2 58.0062 751.634 57.8942 752.026 57.6702C752.428 57.4369 752.745 57.1055 752.978 56.6762C753.212 56.2375 753.328 55.7289 753.328 55.1502Z" fill="#E2BC72"/>
<path d="M759.933 51.2022C760.596 51.2022 761.175 51.3469 761.669 51.6362C762.173 51.9255 762.547 52.2895 762.789 52.7282V51.3282H764.077V59.1682C764.077 59.8682 763.928 60.4889 763.629 61.0302C763.331 61.5809 762.901 62.0102 762.341 62.3182C761.791 62.6262 761.147 62.7802 760.409 62.7802C759.401 62.7802 758.561 62.5422 757.889 62.0662C757.217 61.5902 756.821 60.9415 756.699 60.1202H757.959C758.099 60.5869 758.389 60.9602 758.827 61.2402C759.266 61.5295 759.793 61.6742 760.409 61.6742C761.109 61.6742 761.679 61.4549 762.117 61.0162C762.565 60.5775 762.789 59.9615 762.789 59.1682V57.5582C762.537 58.0062 762.164 58.3795 761.669 58.6782C761.175 58.9769 760.596 59.1262 759.933 59.1262C759.252 59.1262 758.631 58.9582 758.071 58.6222C757.521 58.2862 757.087 57.8149 756.769 57.2082C756.452 56.6015 756.293 55.9109 756.293 55.1362C756.293 54.3522 756.452 53.6662 756.769 53.0782C757.087 52.4809 757.521 52.0189 758.071 51.6922C758.631 51.3655 759.252 51.2022 759.933 51.2022ZM762.789 55.1502C762.789 54.5715 762.673 54.0675 762.439 53.6382C762.206 53.2089 761.889 52.8822 761.487 52.6582C761.095 52.4249 760.661 52.3082 760.185 52.3082C759.709 52.3082 759.275 52.4202 758.883 52.6442C758.491 52.8682 758.179 53.1949 757.945 53.6242C757.712 54.0535 757.595 54.5575 757.595 55.1362C757.595 55.7242 757.712 56.2375 757.945 56.6762C758.179 57.1055 758.491 57.4369 758.883 57.6702C759.275 57.8942 759.709 58.0062 760.185 58.0062C760.661 58.0062 761.095 57.8942 761.487 57.6702C761.889 57.4369 762.206 57.1055 762.439 56.6762C762.673 56.2375 762.789 55.7289 762.789 55.1502Z" fill="#E2BC72"/>
<path d="M773.23 54.8702C773.23 55.1129 773.216 55.3695 773.188 55.6402H767.056C767.103 56.3962 767.36 56.9889 767.826 57.4182C768.302 57.8382 768.876 58.0482 769.548 58.0482C770.099 58.0482 770.556 57.9222 770.92 57.6702C771.294 57.4089 771.555 57.0635 771.704 56.6342H773.076C772.871 57.3715 772.46 57.9735 771.844 58.4402C771.228 58.8975 770.463 59.1262 769.548 59.1262C768.82 59.1262 768.167 58.9629 767.588 58.6362C767.019 58.3095 766.571 57.8475 766.244 57.2502C765.918 56.6435 765.754 55.9435 765.754 55.1502C765.754 54.3569 765.913 53.6615 766.23 53.0642C766.548 52.4669 766.991 52.0095 767.56 51.6922C768.139 51.3655 768.802 51.2022 769.548 51.2022C770.276 51.2022 770.92 51.3609 771.48 51.6782C772.04 51.9955 772.47 52.4342 772.768 52.9942C773.076 53.5449 773.23 54.1702 773.23 54.8702ZM771.914 54.6042C771.914 54.1189 771.807 53.7035 771.592 53.3582C771.378 53.0035 771.084 52.7375 770.71 52.5602C770.346 52.3735 769.94 52.2802 769.492 52.2802C768.848 52.2802 768.298 52.4855 767.84 52.8962C767.392 53.3069 767.136 53.8762 767.07 54.6042H771.914Z" fill="#E2BC72"/>
<path d="M777.628 59.1262C777.04 59.1262 776.513 59.0282 776.046 58.8322C775.579 58.6269 775.211 58.3469 774.94 57.9922C774.669 57.6282 774.52 57.2129 774.492 56.7462H775.808C775.845 57.1289 776.023 57.4415 776.34 57.6842C776.667 57.9269 777.091 58.0482 777.614 58.0482C778.099 58.0482 778.482 57.9409 778.762 57.7262C779.042 57.5115 779.182 57.2409 779.182 56.9142C779.182 56.5782 779.033 56.3309 778.734 56.1722C778.435 56.0042 777.973 55.8409 777.348 55.6822C776.779 55.5329 776.312 55.3835 775.948 55.2342C775.593 55.0755 775.285 54.8469 775.024 54.5482C774.772 54.2402 774.646 53.8389 774.646 53.3442C774.646 52.9522 774.763 52.5929 774.996 52.2662C775.229 51.9395 775.561 51.6829 775.99 51.4962C776.419 51.3002 776.909 51.2022 777.46 51.2022C778.309 51.2022 778.995 51.4169 779.518 51.8462C780.041 52.2755 780.321 52.8635 780.358 53.6102H779.084C779.056 53.2089 778.893 52.8869 778.594 52.6442C778.305 52.4015 777.913 52.2802 777.418 52.2802C776.961 52.2802 776.597 52.3782 776.326 52.5742C776.055 52.7702 775.92 53.0269 775.92 53.3442C775.92 53.5962 775.999 53.8062 776.158 53.9742C776.326 54.1329 776.531 54.2635 776.774 54.3662C777.026 54.4595 777.371 54.5669 777.81 54.6882C778.361 54.8375 778.809 54.9869 779.154 55.1362C779.499 55.2762 779.793 55.4909 780.036 55.7802C780.288 56.0695 780.419 56.4475 780.428 56.9142C780.428 57.3342 780.311 57.7122 780.078 58.0482C779.845 58.3842 779.513 58.6502 779.084 58.8462C778.664 59.0329 778.179 59.1262 777.628 59.1262Z" fill="#E2BC72"/>
<path d="M682 60.4002H781.142V61.1002H682V60.4002Z" fill="#E2BC72"/>
</svg>
