<svg width="1426" height="110" viewBox="0 0 1426 110" fill="none" xmlns="http://www.w3.org/2000/svg">
<rect x="0.5" y="0.5" width="1425" height="109" rx="7.5" stroke="black" stroke-opacity="0.1" stroke-dasharray="2 2"/>
<g clip-path="url(#clip0_4327_9006)">
<path d="M651.25 41H660.719L660.484 41.2344L659.688 42.0312L659.078 42.8281L658.516 43.7656L658.141 44.6094L657.859 45.4531L657.672 46.2969L657.578 47V48.4531L657.719 49.4375L658 50.5156L658.281 51.2188L658.656 51.9688L658.984 52.5312L659.547 53.2812L660.062 53.8438L660.531 54.3125L661.328 54.9219L661.938 55.2969L662.688 55.6719L663.625 56.0469L664.797 56.3281L665.547 56.4219H666.953L667.938 56.2812L668.875 56.0469H669.016V62.6562L668.828 63.3594L668.5 63.9219L668.125 64.3438L667.656 64.6719L667.141 64.9062L666.766 65H651.25L650.641 64.8125L650.172 64.5781L649.609 64.0625L649.281 63.5938L649.047 62.9844L649 62.75V43.2031L649.188 42.6406L649.422 42.1719L649.938 41.6094L650.406 41.2812L651.016 41.0469L651.25 41ZM652.562 57.0312L652.234 57.2188L652.047 57.5L652 57.7812V62.2344L652.141 62.6562L652.469 62.9375L652.891 62.9844L653.172 62.8438L653.406 62.5625L653.5 62.2344V60.9688H654.344L654.859 60.7812L655.234 60.5469L655.609 60.1719L655.891 59.6094L655.984 59.2344V58.7656L655.797 58.1562L655.516 57.7344L655.141 57.3594L654.672 57.125L654.344 57.0312H652.562ZM657.531 57.0312L657.25 57.2188L657.062 57.4531L657.016 57.5938V62.375L657.203 62.75L657.484 62.9375L657.625 62.9844H659.453L660.062 62.7969L660.484 62.4688L660.766 62.0938L660.953 61.625L661 61.25V58.7656L660.906 58.2031L660.672 57.7344L660.297 57.3594L659.734 57.0781L659.547 57.0312H657.531ZM663.438 57.0312L662.922 57.2188L662.547 57.5L662.266 57.8281L662.078 58.25L662.031 58.4375V62.4688L662.219 62.75L662.453 62.9375L662.875 62.9844L663.25 62.7969L663.438 62.5156L663.484 62.375V60.9688H665.453L665.781 60.7812L665.969 60.4531V60.0312L665.781 59.75L665.547 59.5625L665.406 59.5156H663.484L663.531 58.5312L665.406 58.4844L665.688 58.3438L665.922 58.0625L665.969 57.9219V57.5469L665.781 57.2188L665.453 57.0312H663.438Z" fill="#E2BC72"/>
<path d="M665.453 41H667.047L667.844 41.1406L668.594 41.375L669.156 41.6094L669.859 41.9844L670.516 42.4531L671.125 43.0156L671.594 43.5312L672.062 44.2344L672.531 45.125L672.812 45.9688L672.953 46.625L673 46.9531V48.5469L672.859 49.3438L672.625 50.0938L672.391 50.6562L672.016 51.3594L671.547 52.0156L670.984 52.625L670.469 53.0938L669.766 53.5625L668.875 54.0312L668.031 54.3125L667.375 54.4531L667.047 54.5H665.453L664.656 54.3594L663.906 54.125L663.156 53.7969L662.5 53.4219L661.938 53L661.375 52.4844L660.906 51.9688L660.344 51.125L659.922 50.2344L659.688 49.5312L659.547 48.875L659.5 48.5469V46.9531L659.641 46.1562L659.875 45.4062L660.109 44.8438L660.484 44.1406L660.953 43.4844L661.516 42.875L662.031 42.4062L662.734 41.9375L663.531 41.5156L664.328 41.2344L665.125 41.0469L665.453 41ZM665.969 44.0469L665.641 44.2344L665.359 44.5625L665.266 44.8438V46.7656H663.344L662.969 46.9062L662.594 47.3281L662.547 47.4688V48.0312L662.734 48.3594L663.062 48.6406L663.344 48.7344H665.266V50.6562L665.406 51.0312L665.828 51.4062L665.969 51.4531H666.531L666.859 51.2656L667.141 50.9375L667.234 50.6562V48.7344H669.156L669.531 48.5938L669.906 48.1719L669.953 48.0312V47.4688L669.766 47.1406L669.438 46.8594L669.156 46.7656H667.234V44.8438L667.094 44.4688L666.672 44.0938L666.531 44.0469H665.969Z" fill="#E2BC72"/>
<path d="M658.469 58.4844H659.406L659.5 58.5781V61.4375L659.359 61.5312H658.469V58.4844Z" fill="#E2BC72"/>
<path d="M653.5 58.4844H654.203L654.484 58.7188L654.531 59.1406L654.391 59.375L654.203 59.5156H653.5V58.4844Z" fill="#E2BC72"/>
</g>
<path d="M680 60.4H751.423V61.1H680V60.4Z" fill="#E2BC72"/>
<path d="M750.961 49.2421V50.2781H746.719V53.5681H750.163V54.6041H746.719V59.0001H745.445V49.2421H750.961Z" fill="#E2BC72"/>
<path d="M738.585 49.2421C739.649 49.2421 740.568 49.4427 741.343 49.8441C742.127 50.2361 742.724 50.8007 743.135 51.5381C743.555 52.2754 743.765 53.1434 743.765 54.1421C743.765 55.1407 743.555 56.0087 743.135 56.7461C742.724 57.4741 742.127 58.0341 741.343 58.4261C740.568 58.8087 739.649 59.0001 738.585 59.0001H735.547V49.2421H738.585ZM738.585 57.9501C739.845 57.9501 740.806 57.6187 741.469 56.9561C742.132 56.2841 742.463 55.3461 742.463 54.1421C742.463 52.9287 742.127 51.9814 741.455 51.3001C740.792 50.6187 739.836 50.2781 738.585 50.2781H736.821V57.9501H738.585Z" fill="#E2BC72"/>
<path d="M733.963 52.0981C733.963 52.9101 733.683 53.5867 733.123 54.1281C732.573 54.6601 731.728 54.9261 730.589 54.9261H728.713V59.0001H727.439V49.2421H730.589C731.691 49.2421 732.526 49.5081 733.095 50.0401C733.674 50.5721 733.963 51.2581 733.963 52.0981ZM730.589 53.8761C731.299 53.8761 731.821 53.7221 732.157 53.4141C732.493 53.1061 732.661 52.6674 732.661 52.0981C732.661 50.8941 731.971 50.2921 730.589 50.2921H728.713V53.8761H730.589Z" fill="#E2BC72"/>
<path d="M720.162 52.378V56.9C720.162 57.2733 720.241 57.5393 720.4 57.698C720.558 57.8473 720.834 57.922 721.226 57.922H722.164V59H721.016C720.306 59 719.774 58.8367 719.42 58.51C719.065 58.1833 718.888 57.6467 718.888 56.9V52.378H717.894V51.328H718.888V49.396H720.162V51.328H722.164V52.378H720.162Z" fill="#E2BC72"/>
<path d="M709.627 55.15C709.627 54.3567 709.786 53.666 710.103 53.078C710.42 52.4807 710.859 52.0187 711.419 51.692C711.988 51.3654 712.637 51.202 713.365 51.202C714.308 51.202 715.082 51.4307 715.689 51.888C716.305 52.3454 716.711 52.98 716.907 53.792H715.535C715.404 53.3254 715.148 52.9567 714.765 52.686C714.392 52.4154 713.925 52.28 713.365 52.28C712.637 52.28 712.049 52.532 711.601 53.036C711.153 53.5307 710.929 54.2354 710.929 55.15C710.929 56.074 711.153 56.788 711.601 57.292C712.049 57.796 712.637 58.048 713.365 58.048C713.925 58.048 714.392 57.9174 714.765 57.656C715.138 57.3947 715.395 57.0214 715.535 56.536H716.907C716.702 57.32 716.291 57.95 715.675 58.426C715.059 58.8927 714.289 59.126 713.365 59.126C712.637 59.126 711.988 58.9627 711.419 58.636C710.859 58.3094 710.42 57.8474 710.103 57.25C709.786 56.6527 709.627 55.9527 709.627 55.15Z" fill="#E2BC72"/>
<path d="M708.421 54.87C708.421 55.1127 708.407 55.3694 708.379 55.64H702.247C702.294 56.396 702.551 56.9887 703.017 57.418C703.493 57.838 704.067 58.048 704.739 58.048C705.29 58.048 705.747 57.922 706.111 57.67C706.485 57.4087 706.746 57.0634 706.895 56.634H708.267C708.062 57.3714 707.651 57.9734 707.035 58.44C706.419 58.8974 705.654 59.126 704.739 59.126C704.011 59.126 703.358 58.9627 702.779 58.636C702.21 58.3094 701.762 57.8474 701.435 57.25C701.109 56.6434 700.945 55.9434 700.945 55.15C700.945 54.3567 701.104 53.6614 701.421 53.064C701.739 52.4667 702.182 52.0094 702.751 51.692C703.33 51.3654 703.993 51.202 704.739 51.202C705.467 51.202 706.111 51.3607 706.671 51.678C707.231 51.9954 707.661 52.434 707.959 52.994C708.267 53.5447 708.421 54.17 708.421 54.87ZM707.105 54.604C707.105 54.1187 706.998 53.7034 706.783 53.358C706.569 53.0034 706.275 52.7374 705.901 52.56C705.537 52.3734 705.131 52.28 704.683 52.28C704.039 52.28 703.489 52.4854 703.031 52.896C702.583 53.3067 702.327 53.876 702.261 54.604H707.105Z" fill="#E2BC72"/>
<path d="M699.251 48.64V59H697.977V48.64H699.251Z" fill="#E2BC72"/>
<path d="M696.294 54.87C696.294 55.1127 696.28 55.3694 696.252 55.64H690.12C690.167 56.396 690.424 56.9887 690.89 57.418C691.366 57.838 691.94 58.048 692.612 58.048C693.163 58.048 693.62 57.922 693.984 57.67C694.358 57.4087 694.619 57.0634 694.768 56.634H696.14C695.935 57.3714 695.524 57.9734 694.908 58.44C694.292 58.8974 693.527 59.126 692.612 59.126C691.884 59.126 691.231 58.9627 690.652 58.636C690.083 58.3094 689.635 57.8474 689.308 57.25C688.982 56.6434 688.818 55.9434 688.818 55.15C688.818 54.3567 688.977 53.6614 689.294 53.064C689.612 52.4667 690.055 52.0094 690.624 51.692C691.203 51.3654 691.866 51.202 692.612 51.202C693.34 51.202 693.984 51.3607 694.544 51.678C695.104 51.9954 695.534 52.434 695.832 52.994C696.14 53.5447 696.294 54.17 696.294 54.87ZM694.978 54.604C694.978 54.1187 694.871 53.7034 694.656 53.358C694.442 53.0034 694.148 52.7374 693.774 52.56C693.41 52.3734 693.004 52.28 692.556 52.28C691.912 52.28 691.362 52.4854 690.904 52.896C690.456 53.3067 690.2 53.876 690.134 54.604H694.978Z" fill="#E2BC72"/>
<path d="M684.172 59.098C683.528 59.098 682.949 58.986 682.436 58.762C681.932 58.5286 681.535 58.2113 681.246 57.81C680.957 57.3993 680.807 56.928 680.798 56.396H682.156C682.203 56.8533 682.389 57.2406 682.716 57.558C683.052 57.866 683.537 58.02 684.172 58.02C684.779 58.02 685.255 57.8706 685.6 57.572C685.955 57.264 686.132 56.872 686.132 56.396C686.132 56.0226 686.029 55.7193 685.824 55.486C685.619 55.2526 685.362 55.0753 685.054 54.954C684.746 54.8326 684.331 54.702 683.808 54.562C683.164 54.394 682.646 54.226 682.254 54.058C681.871 53.89 681.54 53.6286 681.26 53.274C680.989 52.91 680.854 52.4246 680.854 51.818C680.854 51.286 680.989 50.8146 681.26 50.404C681.531 49.9933 681.909 49.676 682.394 49.452C682.889 49.228 683.453 49.116 684.088 49.116C685.003 49.116 685.749 49.3446 686.328 49.802C686.916 50.2593 687.247 50.866 687.322 51.622H685.922C685.875 51.2486 685.679 50.922 685.334 50.642C684.989 50.3526 684.531 50.208 683.962 50.208C683.43 50.208 682.996 50.348 682.66 50.628C682.324 50.8986 682.156 51.2813 682.156 51.776C682.156 52.1306 682.254 52.42 682.45 52.644C682.655 52.868 682.903 53.0406 683.192 53.162C683.491 53.274 683.906 53.4046 684.438 53.554C685.082 53.7313 685.6 53.9086 685.992 54.086C686.384 54.254 686.72 54.52 687 54.884C687.28 55.2386 687.42 55.724 687.42 56.34C687.42 56.816 687.294 57.264 687.042 57.684C686.79 58.104 686.417 58.4446 685.922 58.706C685.427 58.9673 684.844 59.098 684.172 59.098Z" fill="#E2BC72"/>
<defs>
<clipPath id="clip0_4327_9006">
<rect width="24" height="24" fill="white" transform="translate(649 41)"/>
</clipPath>
</defs>
</svg>
