<svg width="1426" height="110" viewBox="0 0 1426 110" fill="none" xmlns="http://www.w3.org/2000/svg">
<rect x="0.5" y="0.5" width="1425" height="109" rx="7.5" stroke="black" stroke-opacity="0.1" stroke-dasharray="2 2"/>
<path d="M615 35.25C615 37.0402 614.289 38.7571 613.023 40.023C611.757 41.2888 610.04 42 608.25 42C606.46 42 604.743 41.2888 603.477 40.023C602.211 38.7571 601.5 37.0402 601.5 35.25C601.5 33.4598 602.211 31.7429 603.477 30.477C604.743 29.2112 606.46 28.5 608.25 28.5C610.04 28.5 611.757 29.2112 613.023 30.477C614.289 31.7429 615 33.4598 615 35.25ZM609 32.25C609 32.0511 608.921 31.8603 608.78 31.7197C608.64 31.579 608.449 31.5 608.25 31.5C608.051 31.5 607.86 31.579 607.72 31.7197C607.579 31.8603 607.5 32.0511 607.5 32.25V34.5H605.25C605.051 34.5 604.86 34.579 604.72 34.7197C604.579 34.8603 604.5 35.0511 604.5 35.25C604.5 35.4489 604.579 35.6397 604.72 35.7803C604.86 35.921 605.051 36 605.25 36H607.5V38.25C607.5 38.4489 607.579 38.6397 607.72 38.7803C607.86 38.921 608.051 39 608.25 39C608.449 39 608.64 38.921 608.78 38.7803C608.921 38.6397 609 38.4489 609 38.25V36H611.25C611.449 36 611.64 35.921 611.78 35.7803C611.921 35.6397 612 35.4489 612 35.25C612 35.0511 611.921 34.8603 611.78 34.7197C611.64 34.579 611.449 34.5 611.25 34.5H609V32.25ZM621 33H616.19C616.043 32.4819 615.845 31.9794 615.6 31.5H621C622.193 31.5 623.338 31.9741 624.182 32.818C625.026 33.6619 625.5 34.8065 625.5 36V48C625.5 49.1935 625.026 50.3381 624.182 51.182C623.338 52.0259 622.193 52.5 621 52.5H609C607.807 52.5 606.662 52.0259 605.818 51.182C604.974 50.3381 604.5 49.1935 604.5 48V42.6C604.976 42.843 605.477 43.041 606 43.1895V48C606 48.5595 606.153 49.083 606.42 49.53L613.424 42.648C613.844 42.2348 614.41 42.0034 615 42.0034C615.59 42.0034 616.156 42.2348 616.576 42.648L623.581 49.53C623.856 49.0671 624.001 48.5384 624 48V36C624 35.2044 623.684 34.4413 623.121 33.8787C622.559 33.3161 621.796 33 621 33ZM621 38.25C621 38.5455 620.942 38.8381 620.829 39.111C620.716 39.384 620.55 39.6321 620.341 39.841C620.132 40.0499 619.884 40.2157 619.611 40.3287C619.338 40.4418 619.045 40.5 618.75 40.5C618.455 40.5 618.162 40.4418 617.889 40.3287C617.616 40.2157 617.368 40.0499 617.159 39.841C616.95 39.6321 616.784 39.384 616.671 39.111C616.558 38.8381 616.5 38.5455 616.5 38.25C616.5 37.6533 616.737 37.081 617.159 36.659C617.581 36.2371 618.153 36 618.75 36C619.347 36 619.919 36.2371 620.341 36.659C620.763 37.081 621 37.6533 621 38.25ZM619.5 38.25C619.5 38.0511 619.421 37.8603 619.28 37.7197C619.14 37.579 618.949 37.5 618.75 37.5C618.551 37.5 618.36 37.579 618.22 37.7197C618.079 37.8603 618 38.0511 618 38.25C618 38.4489 618.079 38.6397 618.22 38.7803C618.36 38.921 618.551 39 618.75 39C618.949 39 619.14 38.921 619.28 38.7803C619.421 38.6397 619.5 38.4489 619.5 38.25ZM607.482 50.589C607.942 50.8592 608.466 51.0012 609 51H621C621.555 51 622.073 50.85 622.518 50.589L615.525 43.719C615.385 43.5816 615.196 43.5046 615 43.5046C614.804 43.5046 614.615 43.5816 614.475 43.719L607.482 50.589Z" fill="#E2BC72"/>
<path d="M641.172 46.098C640.528 46.098 639.949 45.986 639.436 45.762C638.932 45.5287 638.535 45.2113 638.246 44.81C637.957 44.3993 637.807 43.928 637.798 43.396H639.156C639.203 43.8533 639.389 44.2407 639.716 44.558C640.052 44.866 640.537 45.02 641.172 45.02C641.779 45.02 642.255 44.8707 642.6 44.572C642.955 44.264 643.132 43.872 643.132 43.396C643.132 43.0227 643.029 42.7193 642.824 42.486C642.619 42.2527 642.362 42.0753 642.054 41.954C641.746 41.8327 641.331 41.702 640.808 41.562C640.164 41.394 639.646 41.226 639.254 41.058C638.871 40.89 638.54 40.6287 638.26 40.274C637.989 39.91 637.854 39.4247 637.854 38.818C637.854 38.286 637.989 37.8147 638.26 37.404C638.531 36.9933 638.909 36.676 639.394 36.452C639.889 36.228 640.453 36.116 641.088 36.116C642.003 36.116 642.749 36.3447 643.328 36.802C643.916 37.2593 644.247 37.866 644.322 38.622H642.922C642.875 38.2487 642.679 37.922 642.334 37.642C641.989 37.3527 641.531 37.208 640.962 37.208C640.43 37.208 639.996 37.348 639.66 37.628C639.324 37.8987 639.156 38.2813 639.156 38.776C639.156 39.1307 639.254 39.42 639.45 39.644C639.655 39.868 639.903 40.0407 640.192 40.162C640.491 40.274 640.906 40.4047 641.438 40.554C642.082 40.7313 642.6 40.9087 642.992 41.086C643.384 41.254 643.72 41.52 644 41.884C644.28 42.2387 644.42 42.724 644.42 43.34C644.42 43.816 644.294 44.264 644.042 44.684C643.79 45.104 643.417 45.4447 642.922 45.706C642.427 45.9673 641.844 46.098 641.172 46.098ZM653.295 41.87C653.295 42.1127 653.281 42.3693 653.253 42.64H647.121C647.167 43.396 647.424 43.9887 647.891 44.418C648.367 44.838 648.941 45.048 649.613 45.048C650.163 45.048 650.621 44.922 650.985 44.67C651.358 44.4087 651.619 44.0633 651.769 43.634H653.141C652.935 44.3713 652.525 44.9733 651.909 45.44C651.293 45.8973 650.527 46.126 649.613 46.126C648.885 46.126 648.231 45.9627 647.653 45.636C647.083 45.3093 646.635 44.8473 646.309 44.25C645.982 43.6433 645.819 42.9433 645.819 42.15C645.819 41.3567 645.977 40.6613 646.295 40.064C646.612 39.4667 647.055 39.0093 647.625 38.692C648.203 38.3653 648.866 38.202 649.613 38.202C650.341 38.202 650.985 38.3607 651.545 38.678C652.105 38.9953 652.534 39.434 652.833 39.994C653.141 40.5447 653.295 41.17 653.295 41.87ZM651.979 41.604C651.979 41.1187 651.871 40.7033 651.657 40.358C651.442 40.0033 651.148 39.7373 650.775 39.56C650.411 39.3733 650.005 39.28 649.557 39.28C648.913 39.28 648.362 39.4853 647.905 39.896C647.457 40.3067 647.2 40.876 647.135 41.604H651.979ZM656.25 35.64V46H654.976V35.64H656.25ZM665.422 41.87C665.422 42.1127 665.408 42.3693 665.38 42.64H659.248C659.294 43.396 659.551 43.9887 660.018 44.418C660.494 44.838 661.068 45.048 661.74 45.048C662.29 45.048 662.748 44.922 663.112 44.67C663.485 44.4087 663.746 44.0633 663.896 43.634H665.268C665.062 44.3713 664.652 44.9733 664.036 45.44C663.42 45.8973 662.654 46.126 661.74 46.126C661.012 46.126 660.358 45.9627 659.78 45.636C659.21 45.3093 658.762 44.8473 658.436 44.25C658.109 43.6433 657.946 42.9433 657.946 42.15C657.946 41.3567 658.104 40.6613 658.422 40.064C658.739 39.4667 659.182 39.0093 659.752 38.692C660.33 38.3653 660.993 38.202 661.74 38.202C662.468 38.202 663.112 38.3607 663.672 38.678C664.232 38.9953 664.661 39.434 664.96 39.994C665.268 40.5447 665.422 41.17 665.422 41.87ZM664.106 41.604C664.106 41.1187 663.998 40.7033 663.784 40.358C663.569 40.0033 663.275 39.7373 662.902 39.56C662.538 39.3733 662.132 39.28 661.684 39.28C661.04 39.28 660.489 39.4853 660.032 39.896C659.584 40.3067 659.327 40.876 659.262 41.604H664.106ZM666.627 42.15C666.627 41.3567 666.786 40.666 667.103 40.078C667.421 39.4807 667.859 39.0187 668.419 38.692C668.989 38.3653 669.637 38.202 670.365 38.202C671.308 38.202 672.083 38.4307 672.689 38.888C673.305 39.3453 673.711 39.98 673.907 40.792H672.535C672.405 40.3253 672.148 39.9567 671.765 39.686C671.392 39.4153 670.925 39.28 670.365 39.28C669.637 39.28 669.049 39.532 668.601 40.036C668.153 40.5307 667.929 41.2353 667.929 42.15C667.929 43.074 668.153 43.788 668.601 44.292C669.049 44.796 669.637 45.048 670.365 45.048C670.925 45.048 671.392 44.9173 671.765 44.656C672.139 44.3947 672.395 44.0213 672.535 43.536H673.907C673.702 44.32 673.291 44.95 672.675 45.426C672.059 45.8927 671.289 46.126 670.365 46.126C669.637 46.126 668.989 45.9627 668.419 45.636C667.859 45.3093 667.421 44.8473 667.103 44.25C666.786 43.6527 666.627 42.9527 666.627 42.15ZM677.161 39.378V43.9C677.161 44.2733 677.241 44.5393 677.399 44.698C677.558 44.8473 677.833 44.922 678.225 44.922H679.163V46H678.015C677.306 46 676.774 45.8367 676.419 45.51C676.065 45.1833 675.887 44.6467 675.887 43.9V39.378H674.893V38.328H675.887V36.396H677.161V38.328H679.163V39.378H677.161ZM687.785 46.126C687.067 46.126 686.413 45.9627 685.825 45.636C685.247 45.3093 684.789 44.8473 684.453 44.25C684.127 43.6433 683.963 42.9433 683.963 42.15C683.963 41.366 684.131 40.6753 684.467 40.078C684.813 39.4713 685.279 39.0093 685.867 38.692C686.455 38.3653 687.113 38.202 687.841 38.202C688.569 38.202 689.227 38.3653 689.815 38.692C690.403 39.0093 690.865 39.4667 691.201 40.064C691.547 40.6613 691.719 41.3567 691.719 42.15C691.719 42.9433 691.542 43.6433 691.187 44.25C690.842 44.8473 690.371 45.3093 689.773 45.636C689.176 45.9627 688.513 46.126 687.785 46.126ZM687.785 45.006C688.243 45.006 688.672 44.8987 689.073 44.684C689.475 44.4693 689.797 44.1473 690.039 43.718C690.291 43.2887 690.417 42.766 690.417 42.15C690.417 41.534 690.296 41.0113 690.053 40.582C689.811 40.1527 689.493 39.8353 689.101 39.63C688.709 39.4153 688.285 39.308 687.827 39.308C687.361 39.308 686.931 39.4153 686.539 39.63C686.157 39.8353 685.849 40.1527 685.615 40.582C685.382 41.0113 685.265 41.534 685.265 42.15C685.265 42.7753 685.377 43.3027 685.601 43.732C685.835 44.1613 686.143 44.4833 686.525 44.698C686.908 44.9033 687.328 45.006 687.785 45.006ZM694.668 39.574C694.892 39.1353 695.21 38.7947 695.62 38.552C696.04 38.3093 696.549 38.188 697.146 38.188V39.504H696.81C695.382 39.504 694.668 40.2787 694.668 41.828V46H693.394V38.328H694.668V39.574ZM701.873 42.136C701.873 41.352 702.032 40.666 702.349 40.078C702.667 39.4807 703.101 39.0187 703.651 38.692C704.211 38.3653 704.837 38.202 705.527 38.202C706.125 38.202 706.68 38.342 707.193 38.622C707.707 38.8927 708.099 39.252 708.369 39.7V35.64H709.657V46H708.369V44.558C708.117 45.0153 707.744 45.3933 707.249 45.692C706.755 45.9813 706.176 46.126 705.513 46.126C704.832 46.126 704.211 45.958 703.651 45.622C703.101 45.286 702.667 44.8147 702.349 44.208C702.032 43.6013 701.873 42.9107 701.873 42.136ZM708.369 42.15C708.369 41.5713 708.253 41.0673 708.019 40.638C707.786 40.2087 707.469 39.882 707.067 39.658C706.675 39.4247 706.241 39.308 705.765 39.308C705.289 39.308 704.855 39.42 704.463 39.644C704.071 39.868 703.759 40.1947 703.525 40.624C703.292 41.0533 703.175 41.5573 703.175 42.136C703.175 42.724 703.292 43.2373 703.525 43.676C703.759 44.1053 704.071 44.4367 704.463 44.67C704.855 44.894 705.289 45.006 705.765 45.006C706.241 45.006 706.675 44.894 707.067 44.67C707.469 44.4367 707.786 44.1053 708.019 43.676C708.253 43.2373 708.369 42.7287 708.369 42.15ZM713.084 39.574C713.308 39.1353 713.626 38.7947 714.036 38.552C714.456 38.3093 714.965 38.188 715.562 38.188V39.504H715.226C713.798 39.504 713.084 40.2787 713.084 41.828V46H711.81V38.328H713.084V39.574ZM716.557 42.136C716.557 41.352 716.716 40.666 717.033 40.078C717.35 39.4807 717.784 39.0187 718.335 38.692C718.895 38.3653 719.516 38.202 720.197 38.202C720.869 38.202 721.452 38.3467 721.947 38.636C722.442 38.9253 722.81 39.2893 723.053 39.728V38.328H724.341V46H723.053V44.572C722.801 45.02 722.423 45.3933 721.919 45.692C721.424 45.9813 720.846 46.126 720.183 46.126C719.502 46.126 718.886 45.958 718.335 45.622C717.784 45.286 717.35 44.8147 717.033 44.208C716.716 43.6013 716.557 42.9107 716.557 42.136ZM723.053 42.15C723.053 41.5713 722.936 41.0673 722.703 40.638C722.47 40.2087 722.152 39.882 721.751 39.658C721.359 39.4247 720.925 39.308 720.449 39.308C719.973 39.308 719.539 39.42 719.147 39.644C718.755 39.868 718.442 40.1947 718.209 40.624C717.976 41.0533 717.859 41.5573 717.859 42.136C717.859 42.724 717.976 43.2373 718.209 43.676C718.442 44.1053 718.755 44.4367 719.147 44.67C719.539 44.894 719.973 45.006 720.449 45.006C720.925 45.006 721.359 44.894 721.751 44.67C722.152 44.4367 722.47 44.1053 722.703 43.676C722.936 43.2373 723.053 42.7287 723.053 42.15ZM729.658 38.202C730.321 38.202 730.899 38.3467 731.394 38.636C731.898 38.9253 732.271 39.2893 732.514 39.728V38.328H733.802V46.168C733.802 46.868 733.653 47.4887 733.354 48.03C733.055 48.5807 732.626 49.01 732.066 49.318C731.515 49.626 730.871 49.78 730.134 49.78C729.126 49.78 728.286 49.542 727.614 49.066C726.942 48.59 726.545 47.9413 726.424 47.12H727.684C727.824 47.5867 728.113 47.96 728.552 48.24C728.991 48.5293 729.518 48.674 730.134 48.674C730.834 48.674 731.403 48.4547 731.842 48.016C732.29 47.5773 732.514 46.9613 732.514 46.168V44.558C732.262 45.006 731.889 45.3793 731.394 45.678C730.899 45.9767 730.321 46.126 729.658 46.126C728.977 46.126 728.356 45.958 727.796 45.622C727.245 45.286 726.811 44.8147 726.494 44.208C726.177 43.6013 726.018 42.9107 726.018 42.136C726.018 41.352 726.177 40.666 726.494 40.078C726.811 39.4807 727.245 39.0187 727.796 38.692C728.356 38.3653 728.977 38.202 729.658 38.202ZM732.514 42.15C732.514 41.5713 732.397 41.0673 732.164 40.638C731.931 40.2087 731.613 39.882 731.212 39.658C730.82 39.4247 730.386 39.308 729.91 39.308C729.434 39.308 729 39.42 728.608 39.644C728.216 39.868 727.903 40.1947 727.67 40.624C727.437 41.0533 727.32 41.5573 727.32 42.136C727.32 42.724 727.437 43.2373 727.67 43.676C727.903 44.1053 728.216 44.4367 728.608 44.67C729 44.894 729.434 45.006 729.91 45.006C730.386 45.006 730.82 44.894 731.212 44.67C731.613 44.4367 731.931 44.1053 732.164 43.676C732.397 43.2373 732.514 42.7287 732.514 42.15ZM740.345 37.082C740.103 37.082 739.897 36.998 739.729 36.83C739.561 36.662 739.477 36.4567 739.477 36.214C739.477 35.9713 739.561 35.766 739.729 35.598C739.897 35.43 740.103 35.346 740.345 35.346C740.579 35.346 740.775 35.43 740.933 35.598C741.101 35.766 741.185 35.9713 741.185 36.214C741.185 36.4567 741.101 36.662 740.933 36.83C740.775 36.998 740.579 37.082 740.345 37.082ZM740.961 38.328V46H739.687V38.328H740.961ZM752.359 38.188C752.956 38.188 753.488 38.314 753.955 38.566C754.421 38.8087 754.79 39.1773 755.061 39.672C755.331 40.1667 755.467 40.7687 755.467 41.478V46H754.207V41.66C754.207 40.8947 754.015 40.3113 753.633 39.91C753.259 39.4993 752.751 39.294 752.107 39.294C751.444 39.294 750.917 39.5087 750.525 39.938C750.133 40.358 749.937 40.9693 749.937 41.772V46H748.677V41.66C748.677 40.8947 748.485 40.3113 748.103 39.91C747.729 39.4993 747.221 39.294 746.577 39.294C745.914 39.294 745.387 39.5087 744.995 39.938C744.603 40.358 744.407 40.9693 744.407 41.772V46H743.133V38.328H744.407V39.434C744.659 39.0327 744.995 38.7247 745.415 38.51C745.844 38.2953 746.315 38.188 746.829 38.188C747.473 38.188 748.042 38.3327 748.537 38.622C749.031 38.9113 749.4 39.336 749.643 39.896C749.857 39.3547 750.212 38.9347 750.707 38.636C751.201 38.3373 751.752 38.188 752.359 38.188ZM757.081 42.136C757.081 41.352 757.239 40.666 757.557 40.078C757.874 39.4807 758.308 39.0187 758.859 38.692C759.419 38.3653 760.039 38.202 760.721 38.202C761.393 38.202 761.976 38.3467 762.471 38.636C762.965 38.9253 763.334 39.2893 763.577 39.728V38.328H764.865V46H763.577V44.572C763.325 45.02 762.947 45.3933 762.443 45.692C761.948 45.9813 761.369 46.126 760.707 46.126C760.025 46.126 759.409 45.958 758.859 45.622C758.308 45.286 757.874 44.8147 757.557 44.208C757.239 43.6013 757.081 42.9107 757.081 42.136ZM763.577 42.15C763.577 41.5713 763.46 41.0673 763.227 40.638C762.993 40.2087 762.676 39.882 762.275 39.658C761.883 39.4247 761.449 39.308 760.973 39.308C760.497 39.308 760.063 39.42 759.671 39.644C759.279 39.868 758.966 40.1947 758.733 40.624C758.499 41.0533 758.383 41.5573 758.383 42.136C758.383 42.724 758.499 43.2373 758.733 43.676C758.966 44.1053 759.279 44.4367 759.671 44.67C760.063 44.894 760.497 45.006 760.973 45.006C761.449 45.006 761.883 44.894 762.275 44.67C762.676 44.4367 762.993 44.1053 763.227 43.676C763.46 43.2373 763.577 42.7287 763.577 42.15ZM770.181 38.202C770.844 38.202 771.423 38.3467 771.917 38.636C772.421 38.9253 772.795 39.2893 773.037 39.728V38.328H774.325V46.168C774.325 46.868 774.176 47.4887 773.877 48.03C773.579 48.5807 773.149 49.01 772.589 49.318C772.039 49.626 771.395 49.78 770.657 49.78C769.649 49.78 768.809 49.542 768.137 49.066C767.465 48.59 767.069 47.9413 766.947 47.12H768.207C768.347 47.5867 768.637 47.96 769.075 48.24C769.514 48.5293 770.041 48.674 770.657 48.674C771.357 48.674 771.927 48.4547 772.365 48.016C772.813 47.5773 773.037 46.9613 773.037 46.168V44.558C772.785 45.006 772.412 45.3793 771.917 45.678C771.423 45.9767 770.844 46.126 770.181 46.126C769.5 46.126 768.879 45.958 768.319 45.622C767.769 45.286 767.335 44.8147 767.017 44.208C766.7 43.6013 766.541 42.9107 766.541 42.136C766.541 41.352 766.7 40.666 767.017 40.078C767.335 39.4807 767.769 39.0187 768.319 38.692C768.879 38.3653 769.5 38.202 770.181 38.202ZM773.037 42.15C773.037 41.5713 772.921 41.0673 772.687 40.638C772.454 40.2087 772.137 39.882 771.735 39.658C771.343 39.4247 770.909 39.308 770.433 39.308C769.957 39.308 769.523 39.42 769.131 39.644C768.739 39.868 768.427 40.1947 768.193 40.624C767.96 41.0533 767.843 41.5573 767.843 42.136C767.843 42.724 767.96 43.2373 768.193 43.676C768.427 44.1053 768.739 44.4367 769.131 44.67C769.523 44.894 769.957 45.006 770.433 45.006C770.909 45.006 771.343 44.894 771.735 44.67C772.137 44.4367 772.454 44.1053 772.687 43.676C772.921 43.2373 773.037 42.7287 773.037 42.15ZM783.478 41.87C783.478 42.1127 783.464 42.3693 783.436 42.64H777.304C777.351 43.396 777.608 43.9887 778.074 44.418C778.55 44.838 779.124 45.048 779.796 45.048C780.347 45.048 780.804 44.922 781.168 44.67C781.542 44.4087 781.803 44.0633 781.952 43.634H783.324C783.119 44.3713 782.708 44.9733 782.092 45.44C781.476 45.8973 780.711 46.126 779.796 46.126C779.068 46.126 778.415 45.9627 777.836 45.636C777.267 45.3093 776.819 44.8473 776.492 44.25C776.166 43.6433 776.002 42.9433 776.002 42.15C776.002 41.3567 776.161 40.6613 776.478 40.064C776.796 39.4667 777.239 39.0093 777.808 38.692C778.387 38.3653 779.05 38.202 779.796 38.202C780.524 38.202 781.168 38.3607 781.728 38.678C782.288 38.9953 782.718 39.434 783.016 39.994C783.324 40.5447 783.478 41.17 783.478 41.87ZM782.162 41.604C782.162 41.1187 782.055 40.7033 781.84 40.358C781.626 40.0033 781.332 39.7373 780.958 39.56C780.594 39.3733 780.188 39.28 779.74 39.28C779.096 39.28 778.546 39.4853 778.088 39.896C777.64 40.3067 777.384 40.876 777.318 41.604H782.162ZM787.876 46.126C787.288 46.126 786.761 46.028 786.294 45.832C785.827 45.6267 785.459 45.3467 785.188 44.992C784.917 44.628 784.768 44.2127 784.74 43.746H786.056C786.093 44.1287 786.271 44.4413 786.588 44.684C786.915 44.9267 787.339 45.048 787.862 45.048C788.347 45.048 788.73 44.9407 789.01 44.726C789.29 44.5113 789.43 44.2407 789.43 43.914C789.43 43.578 789.281 43.3307 788.982 43.172C788.683 43.004 788.221 42.8407 787.596 42.682C787.027 42.5327 786.56 42.3833 786.196 42.234C785.841 42.0753 785.533 41.8467 785.272 41.548C785.02 41.24 784.894 40.8387 784.894 40.344C784.894 39.952 785.011 39.5927 785.244 39.266C785.477 38.9393 785.809 38.6827 786.238 38.496C786.667 38.3 787.157 38.202 787.708 38.202C788.557 38.202 789.243 38.4167 789.766 38.846C790.289 39.2753 790.569 39.8633 790.606 40.61H789.332C789.304 40.2087 789.141 39.8867 788.842 39.644C788.553 39.4013 788.161 39.28 787.666 39.28C787.209 39.28 786.845 39.378 786.574 39.574C786.303 39.77 786.168 40.0267 786.168 40.344C786.168 40.596 786.247 40.806 786.406 40.974C786.574 41.1327 786.779 41.2633 787.022 41.366C787.274 41.4593 787.619 41.5667 788.058 41.688C788.609 41.8373 789.057 41.9867 789.402 42.136C789.747 42.276 790.041 42.4907 790.284 42.78C790.536 43.0693 790.667 43.4473 790.676 43.914C790.676 44.334 790.559 44.712 790.326 45.048C790.093 45.384 789.761 45.65 789.332 45.846C788.912 46.0327 788.427 46.126 787.876 46.126ZM800.015 38.188C800.594 38.188 801.116 38.314 801.583 38.566C802.05 38.8087 802.414 39.1773 802.675 39.672C802.946 40.1667 803.081 40.7687 803.081 41.478V46H801.821V41.66C801.821 40.8947 801.63 40.3113 801.247 39.91C800.864 39.4993 800.342 39.294 799.679 39.294C799.007 39.294 798.47 39.504 798.069 39.924C797.677 40.344 797.481 40.9553 797.481 41.758V46H796.207V35.64H797.481V39.42C797.733 39.028 798.078 38.7247 798.517 38.51C798.965 38.2953 799.464 38.188 800.015 38.188ZM812.162 41.87C812.162 42.1127 812.148 42.3693 812.12 42.64H805.988C806.035 43.396 806.291 43.9887 806.758 44.418C807.234 44.838 807.808 45.048 808.48 45.048C809.031 45.048 809.488 44.922 809.852 44.67C810.225 44.4087 810.487 44.0633 810.636 43.634H812.008C811.803 44.3713 811.392 44.9733 810.776 45.44C810.16 45.8973 809.395 46.126 808.48 46.126C807.752 46.126 807.099 45.9627 806.52 45.636C805.951 45.3093 805.503 44.8473 805.176 44.25C804.849 43.6433 804.686 42.9433 804.686 42.15C804.686 41.3567 804.845 40.6613 805.162 40.064C805.479 39.4667 805.923 39.0093 806.492 38.692C807.071 38.3653 807.733 38.202 808.48 38.202C809.208 38.202 809.852 38.3607 810.412 38.678C810.972 38.9953 811.401 39.434 811.7 39.994C812.008 40.5447 812.162 41.17 812.162 41.87ZM810.846 41.604C810.846 41.1187 810.739 40.7033 810.524 40.358C810.309 40.0033 810.015 39.7373 809.642 39.56C809.278 39.3733 808.872 39.28 808.424 39.28C807.78 39.28 807.229 39.4853 806.772 39.896C806.324 40.3067 806.067 40.876 806.002 41.604H810.846ZM815.118 39.574C815.342 39.1353 815.659 38.7947 816.07 38.552C816.49 38.3093 816.998 38.188 817.596 38.188V39.504H817.26C815.832 39.504 815.118 40.2787 815.118 41.828V46H813.844V38.328H815.118V39.574ZM826.066 41.87C826.066 42.1127 826.052 42.3693 826.024 42.64H819.892C819.939 43.396 820.196 43.9887 820.662 44.418C821.138 44.838 821.712 45.048 822.384 45.048C822.935 45.048 823.392 44.922 823.756 44.67C824.13 44.4087 824.391 44.0633 824.54 43.634H825.912C825.707 44.3713 825.296 44.9733 824.68 45.44C824.064 45.8973 823.299 46.126 822.384 46.126C821.656 46.126 821.003 45.9627 820.424 45.636C819.855 45.3093 819.407 44.8473 819.08 44.25C818.754 43.6433 818.59 42.9433 818.59 42.15C818.59 41.3567 818.749 40.6613 819.066 40.064C819.384 39.4667 819.827 39.0093 820.396 38.692C820.975 38.3653 821.638 38.202 822.384 38.202C823.112 38.202 823.756 38.3607 824.316 38.678C824.876 38.9953 825.306 39.434 825.604 39.994C825.912 40.5447 826.066 41.17 826.066 41.87ZM824.75 41.604C824.75 41.1187 824.643 40.7033 824.428 40.358C824.214 40.0033 823.92 39.7373 823.546 39.56C823.182 39.3733 822.776 39.28 822.328 39.28C821.684 39.28 821.134 39.4853 820.676 39.896C820.228 40.3067 819.972 40.876 819.906 41.604H824.75Z" fill="#E2BC72"/>
<path d="M637 47.4H826.668V48.1H637V47.4Z" fill="#E2BC72"/>
<path d="M658.409 78.604C657.513 77.7267 656.813 76.6113 656.309 75.258C655.814 73.9047 655.567 72.444 655.567 70.876C655.567 69.2707 655.828 67.7727 656.351 66.382C656.883 64.982 657.639 63.8293 658.619 62.924H659.949V63.05C658.903 64.03 658.115 65.2107 657.583 66.592C657.06 67.964 656.799 69.392 656.799 70.876C656.799 72.3227 657.046 73.704 657.541 75.02C658.045 76.336 658.777 77.4887 659.739 78.478V78.604H658.409ZM662.736 66.242V72.416C662.736 73.284 662.946 73.928 663.366 74.348C663.795 74.768 664.388 74.978 665.144 74.978C665.891 74.978 666.474 74.768 666.894 74.348C667.323 73.928 667.538 73.284 667.538 72.416V66.242H668.812V72.402C668.812 73.214 668.649 73.9 668.322 74.46C667.995 75.0107 667.552 75.4213 666.992 75.692C666.441 75.9627 665.821 76.098 665.13 76.098C664.439 76.098 663.814 75.9627 663.254 75.692C662.703 75.4213 662.265 75.0107 661.938 74.46C661.621 73.9 661.462 73.214 661.462 72.402V66.242H662.736ZM672.211 69.742C672.463 69.3033 672.837 68.9393 673.331 68.65C673.835 68.3513 674.419 68.202 675.081 68.202C675.763 68.202 676.379 68.3653 676.929 68.692C677.489 69.0187 677.928 69.4807 678.245 70.078C678.563 70.666 678.721 71.352 678.721 72.136C678.721 72.9107 678.563 73.6013 678.245 74.208C677.928 74.8147 677.489 75.286 676.929 75.622C676.379 75.958 675.763 76.126 675.081 76.126C674.428 76.126 673.849 75.9813 673.345 75.692C672.851 75.3933 672.473 75.0247 672.211 74.586V79.64H670.937V68.328H672.211V69.742ZM677.419 72.136C677.419 71.5573 677.303 71.0533 677.069 70.624C676.836 70.1947 676.519 69.868 676.117 69.644C675.725 69.42 675.291 69.308 674.815 69.308C674.349 69.308 673.915 69.4247 673.513 69.658C673.121 69.882 672.804 70.2133 672.561 70.652C672.328 71.0813 672.211 71.5807 672.211 72.15C672.211 72.7287 672.328 73.2373 672.561 73.676C672.804 74.1053 673.121 74.4367 673.513 74.67C673.915 74.894 674.349 75.006 674.815 75.006C675.291 75.006 675.725 74.894 676.117 74.67C676.519 74.4367 676.836 74.1053 677.069 73.676C677.303 73.2373 677.419 72.724 677.419 72.136ZM685.685 69.378V73.9C685.685 74.2733 685.764 74.5393 685.923 74.698C686.081 74.8473 686.357 74.922 686.749 74.922H687.687V76H686.539C685.829 76 685.297 75.8367 684.943 75.51C684.588 75.1833 684.411 74.6467 684.411 73.9V69.378H683.417V68.328H684.411V66.396H685.685V68.328H687.687V69.378H685.685ZM692.576 76.126C691.858 76.126 691.204 75.9627 690.616 75.636C690.038 75.3093 689.58 74.8473 689.244 74.25C688.918 73.6433 688.754 72.9433 688.754 72.15C688.754 71.366 688.922 70.6753 689.258 70.078C689.604 69.4713 690.07 69.0093 690.658 68.692C691.246 68.3653 691.904 68.202 692.632 68.202C693.36 68.202 694.018 68.3653 694.606 68.692C695.194 69.0093 695.656 69.4667 695.992 70.064C696.338 70.6613 696.51 71.3567 696.51 72.15C696.51 72.9433 696.333 73.6433 695.978 74.25C695.633 74.8473 695.162 75.3093 694.564 75.636C693.967 75.9627 693.304 76.126 692.576 76.126ZM692.576 75.006C693.034 75.006 693.463 74.8987 693.864 74.684C694.266 74.4693 694.588 74.1473 694.83 73.718C695.082 73.2887 695.208 72.766 695.208 72.15C695.208 71.534 695.087 71.0113 694.844 70.582C694.602 70.1527 694.284 69.8353 693.892 69.63C693.5 69.4153 693.076 69.308 692.618 69.308C692.152 69.308 691.722 69.4153 691.33 69.63C690.948 69.8353 690.64 70.1527 690.406 70.582C690.173 71.0113 690.056 71.534 690.056 72.15C690.056 72.7753 690.168 73.3027 690.392 73.732C690.626 74.1613 690.934 74.4833 691.316 74.698C691.699 74.9033 692.119 75.006 692.576 75.006ZM701.372 67.04V65.878H704.004V76H702.716V67.04H701.372ZM706.192 70.834C706.192 69.2287 706.454 67.978 706.976 67.082C707.499 66.1767 708.414 65.724 709.72 65.724C711.018 65.724 711.928 66.1767 712.45 67.082C712.973 67.978 713.234 69.2287 713.234 70.834C713.234 72.4673 712.973 73.7367 712.45 74.642C711.928 75.5473 711.018 76 709.72 76C708.414 76 707.499 75.5473 706.976 74.642C706.454 73.7367 706.192 72.4673 706.192 70.834ZM711.974 70.834C711.974 70.022 711.918 69.336 711.806 68.776C711.704 68.2067 711.484 67.7493 711.148 67.404C710.822 67.0587 710.346 66.886 709.72 66.886C709.086 66.886 708.6 67.0587 708.264 67.404C707.938 67.7493 707.718 68.2067 707.606 68.776C707.504 69.336 707.452 70.022 707.452 70.834C707.452 71.674 707.504 72.3787 707.606 72.948C707.718 73.5173 707.938 73.9747 708.264 74.32C708.6 74.6653 709.086 74.838 709.72 74.838C710.346 74.838 710.822 74.6653 711.148 74.32C711.484 73.9747 711.704 73.5173 711.806 72.948C711.918 72.3787 711.974 71.674 711.974 70.834ZM720.2 69.742C720.452 69.3033 720.825 68.9393 721.32 68.65C721.824 68.3513 722.407 68.202 723.07 68.202C723.751 68.202 724.367 68.3653 724.918 68.692C725.478 69.0187 725.916 69.4807 726.234 70.078C726.551 70.666 726.71 71.352 726.71 72.136C726.71 72.9107 726.551 73.6013 726.234 74.208C725.916 74.8147 725.478 75.286 724.918 75.622C724.367 75.958 723.751 76.126 723.07 76.126C722.416 76.126 721.838 75.9813 721.334 75.692C720.839 75.3933 720.461 75.0247 720.2 74.586V79.64H718.926V68.328H720.2V69.742ZM725.408 72.136C725.408 71.5573 725.291 71.0533 725.058 70.624C724.824 70.1947 724.507 69.868 724.106 69.644C723.714 69.42 723.28 69.308 722.804 69.308C722.337 69.308 721.903 69.4247 721.502 69.658C721.11 69.882 720.792 70.2133 720.55 70.652C720.316 71.0813 720.2 71.5807 720.2 72.15C720.2 72.7287 720.316 73.2373 720.55 73.676C720.792 74.1053 721.11 74.4367 721.502 74.67C721.903 74.894 722.337 75.006 722.804 75.006C723.28 75.006 723.714 74.894 724.106 74.67C724.507 74.4367 724.824 74.1053 725.058 73.676C725.291 73.2373 725.408 72.724 725.408 72.136ZM732.195 68.188C732.773 68.188 733.296 68.314 733.763 68.566C734.229 68.8087 734.593 69.1773 734.855 69.672C735.125 70.1667 735.261 70.7687 735.261 71.478V76H734.001V71.66C734.001 70.8947 733.809 70.3113 733.427 69.91C733.044 69.4993 732.521 69.294 731.859 69.294C731.187 69.294 730.65 69.504 730.249 69.924C729.857 70.344 729.661 70.9553 729.661 71.758V76H728.387V65.64H729.661V69.42C729.913 69.028 730.258 68.7247 730.697 68.51C731.145 68.2953 731.644 68.188 732.195 68.188ZM740.688 76.126C739.969 76.126 739.316 75.9627 738.728 75.636C738.149 75.3093 737.692 74.8473 737.356 74.25C737.029 73.6433 736.866 72.9433 736.866 72.15C736.866 71.366 737.034 70.6753 737.37 70.078C737.715 69.4713 738.182 69.0093 738.77 68.692C739.358 68.3653 740.016 68.202 740.744 68.202C741.472 68.202 742.13 68.3653 742.718 68.692C743.306 69.0093 743.768 69.4667 744.104 70.064C744.449 70.6613 744.622 71.3567 744.622 72.15C744.622 72.9433 744.444 73.6433 744.09 74.25C743.744 74.8473 743.273 75.3093 742.676 75.636C742.078 75.9627 741.416 76.126 740.688 76.126ZM740.688 75.006C741.145 75.006 741.574 74.8987 741.976 74.684C742.377 74.4693 742.699 74.1473 742.942 73.718C743.194 73.2887 743.32 72.766 743.32 72.15C743.32 71.534 743.198 71.0113 742.956 70.582C742.713 70.1527 742.396 69.8353 742.004 69.63C741.612 69.4153 741.187 69.308 740.73 69.308C740.263 69.308 739.834 69.4153 739.442 69.63C739.059 69.8353 738.751 70.1527 738.518 70.582C738.284 71.0113 738.168 71.534 738.168 72.15C738.168 72.7753 738.28 73.3027 738.504 73.732C738.737 74.1613 739.045 74.4833 739.428 74.698C739.81 74.9033 740.23 75.006 740.688 75.006ZM747.851 69.378V73.9C747.851 74.2733 747.93 74.5393 748.089 74.698C748.247 74.8473 748.523 74.922 748.915 74.922H749.853V76H748.705C747.995 76 747.463 75.8367 747.109 75.51C746.754 75.1833 746.577 74.6467 746.577 73.9V69.378H745.583V68.328H746.577V66.396H747.851V68.328H749.853V69.378H747.851ZM754.742 76.126C754.024 76.126 753.37 75.9627 752.782 75.636C752.204 75.3093 751.746 74.8473 751.41 74.25C751.084 73.6433 750.92 72.9433 750.92 72.15C750.92 71.366 751.088 70.6753 751.424 70.078C751.77 69.4713 752.236 69.0093 752.824 68.692C753.412 68.3653 754.07 68.202 754.798 68.202C755.526 68.202 756.184 68.3653 756.772 68.692C757.36 69.0093 757.822 69.4667 758.158 70.064C758.504 70.6613 758.676 71.3567 758.676 72.15C758.676 72.9433 758.499 73.6433 758.144 74.25C757.799 74.8473 757.328 75.3093 756.73 75.636C756.133 75.9627 755.47 76.126 754.742 76.126ZM754.742 75.006C755.2 75.006 755.629 74.8987 756.03 74.684C756.432 74.4693 756.754 74.1473 756.996 73.718C757.248 73.2887 757.374 72.766 757.374 72.15C757.374 71.534 757.253 71.0113 757.01 70.582C756.768 70.1527 756.45 69.8353 756.058 69.63C755.666 69.4153 755.242 69.308 754.784 69.308C754.318 69.308 753.888 69.4153 753.496 69.63C753.114 69.8353 752.806 70.1527 752.572 70.582C752.339 71.0113 752.222 71.534 752.222 72.15C752.222 72.7753 752.334 73.3027 752.558 73.732C752.792 74.1613 753.1 74.4833 753.482 74.698C753.865 74.9033 754.285 75.006 754.742 75.006ZM763.067 76.126C762.479 76.126 761.952 76.028 761.485 75.832C761.019 75.6267 760.65 75.3467 760.379 74.992C760.109 74.628 759.959 74.2127 759.931 73.746H761.247C761.285 74.1287 761.462 74.4413 761.779 74.684C762.106 74.9267 762.531 75.048 763.053 75.048C763.539 75.048 763.921 74.9407 764.201 74.726C764.481 74.5113 764.621 74.2407 764.621 73.914C764.621 73.578 764.472 73.3307 764.173 73.172C763.875 73.004 763.413 72.8407 762.787 72.682C762.218 72.5327 761.751 72.3833 761.387 72.234C761.033 72.0753 760.725 71.8467 760.463 71.548C760.211 71.24 760.085 70.8387 760.085 70.344C760.085 69.952 760.202 69.5927 760.435 69.266C760.669 68.9393 761 68.6827 761.429 68.496C761.859 68.3 762.349 68.202 762.899 68.202C763.749 68.202 764.435 68.4167 764.957 68.846C765.48 69.2753 765.76 69.8633 765.797 70.61H764.523C764.495 70.2087 764.332 69.8867 764.033 69.644C763.744 69.4013 763.352 69.28 762.857 69.28C762.4 69.28 762.036 69.378 761.765 69.574C761.495 69.77 761.359 70.0267 761.359 70.344C761.359 70.596 761.439 70.806 761.597 70.974C761.765 71.1327 761.971 71.2633 762.213 71.366C762.465 71.4593 762.811 71.5667 763.249 71.688C763.8 71.8373 764.248 71.9867 764.593 72.136C764.939 72.276 765.233 72.4907 765.475 72.78C765.727 73.0693 765.858 73.4473 765.867 73.914C765.867 74.334 765.751 74.712 765.517 75.048C765.284 75.384 764.953 75.65 764.523 75.846C764.103 76.0327 763.618 76.126 763.067 76.126ZM767.26 78.604V78.478C768.221 77.4887 768.949 76.336 769.444 75.02C769.948 73.704 770.2 72.3227 770.2 70.876C770.2 69.392 769.934 67.964 769.402 66.592C768.879 65.2107 768.095 64.03 767.05 63.05V62.924H768.38C769.36 63.8293 770.111 64.982 770.634 66.382C771.166 67.7727 771.432 69.2707 771.432 70.876C771.432 72.444 771.18 73.9047 770.676 75.258C770.181 76.6113 769.486 77.7267 768.59 78.604H767.26Z" fill="black" fill-opacity="0.4"/>
</svg>
