<svg width="22" height="22" viewBox="0 0 22 22" fill="none" xmlns="http://www.w3.org/2000/svg">
<path d="M13.8104 11.6578H11.8768V9.72422C11.8768 9.23867 11.4857 8.84766 11.0002 8.84766C10.5146 8.84766 10.1236 9.23867 10.1236 9.72422V11.6578H8.19004C7.70449 11.6578 7.31348 12.0488 7.31348 12.5344C7.31348 13.0199 7.70449 13.4109 8.19004 13.4109H10.1236V15.3445C10.1236 15.8301 10.5146 16.2211 11.0002 16.2211C11.4857 16.2211 11.8768 15.8301 11.8768 15.3445V13.4109H13.8104C14.2959 13.4109 14.6869 13.0199 14.6869 12.5344C14.6912 12.0531 14.2959 11.6578 13.8104 11.6578Z" fill="white"/>
<path d="M11.5762 0.689258C11.2453 0.405664 10.7555 0.405664 10.4289 0.689258C9.57812 1.42402 2.14453 7.99824 2.14453 12.6732C2.14453 17.5545 6.11914 21.5291 11.0004 21.5291C15.8816 21.5291 19.8563 17.5545 19.8563 12.6732C19.8563 7.99824 12.4227 1.42402 11.5762 0.689258ZM11.0004 19.776C7.08594 19.776 3.89766 16.592 3.89766 12.6732C3.89766 9.65254 8.58555 4.73691 11.0004 2.52832C13.4152 4.73691 18.1031 9.65254 18.1031 12.6732C18.1031 16.5877 14.9148 19.776 11.0004 19.776Z" fill="white"/>
</svg>
