<svg width="60" height="60" viewBox="0 0 60 60" fill="none" xmlns="http://www.w3.org/2000/svg">
<rect width="60" height="60" rx="5" fill="#E2BC72" fill-opacity="0.24"/>
<g clip-path="url(#clip0_3654_58)">
<path d="M18 21C18 19.3453 19.3453 18 21 18H28.5V24C28.5 24.8297 29.1703 25.5 30 25.5H36V32.25H26.25C24.5953 32.25 23.25 33.5953 23.25 35.25V42H21C19.3453 42 18 40.6547 18 39V21ZM36 24H30V18L36 24ZM26.25 34.5H27.75C29.1984 34.5 30.375 35.6766 30.375 37.125C30.375 38.5734 29.1984 39.75 27.75 39.75H27V41.25C27 41.6625 26.6625 42 26.25 42C25.8375 42 25.5 41.6625 25.5 41.25V35.25C25.5 34.8375 25.8375 34.5 26.25 34.5ZM27.75 38.25C28.3734 38.25 28.875 37.7484 28.875 37.125C28.875 36.5016 28.3734 36 27.75 36H27V38.25H27.75ZM32.25 34.5H33.75C34.9922 34.5 36 35.5078 36 36.75V39.75C36 40.9922 34.9922 42 33.75 42H32.25C31.8375 42 31.5 41.6625 31.5 41.25V35.25C31.5 34.8375 31.8375 34.5 32.25 34.5ZM33.75 40.5C34.1625 40.5 34.5 40.1625 34.5 39.75V36.75C34.5 36.3375 34.1625 36 33.75 36H33V40.5H33.75ZM37.5 35.25C37.5 34.8375 37.8375 34.5 38.25 34.5H40.5C40.9125 34.5 41.25 34.8375 41.25 35.25C41.25 35.6625 40.9125 36 40.5 36H39V37.5H40.5C40.9125 37.5 41.25 37.8375 41.25 38.25C41.25 38.6625 40.9125 39 40.5 39H39V41.25C39 41.6625 38.6625 42 38.25 42C37.8375 42 37.5 41.6625 37.5 41.25V35.25Z" fill="#E2BC72"/>
</g>
<defs>
<clipPath id="clip0_3654_58">
<rect width="24" height="24" fill="white" transform="translate(18 18)"/>
</clipPath>
</defs>
</svg>
