<svg width="61" height="63" viewBox="0 0 61 63" fill="none" xmlns="http://www.w3.org/2000/svg">
<rect x="0.246094" y="0.687988" width="60" height="61.5678" rx="6" fill="#51AF5B"/>
<mask id="path-2-outside-1_5220_410" maskUnits="userSpaceOnUse" x="9.24609" y="8.66113" width="42" height="45" fill="black">
<rect fill="white" x="9.24609" y="8.66113" width="42" height="45"/>
<path fill-rule="evenodd" clip-rule="evenodd" d="M10.6915 53.2826H49.801C50.0467 53.2826 50.2461 53.0832 50.2461 52.8375V35.3745C50.2461 35.1288 50.0467 34.9294 49.801 34.9294H43.4695V17.9117C43.4695 17.6663 43.2701 17.4666 43.0243 17.4666H38.485C38.2536 13.1197 34.6507 9.66113 30.2456 9.66113C25.8405 9.66113 22.2379 13.1197 22.0062 17.4666H17.4669C17.2211 17.4666 17.0217 17.6662 17.0217 17.9117V34.9294H10.6912C10.4445 34.9294 10.2461 35.1288 10.2461 35.3745V52.8375C10.2461 53.0832 10.4445 53.2826 10.6912 53.2826H10.6915ZM38.4849 18.3567C38.2534 22.7049 34.6505 26.1635 30.2454 26.1635C25.8403 26.1635 22.2377 22.7049 22.006 18.3567H17.9118V52.3921H25.4798V39.3765C25.4798 39.1298 25.6791 38.9314 25.9249 38.9314H34.5656C34.8114 38.9314 35.0107 39.1298 35.0107 39.3765V52.3921H42.5787V18.3567H38.4849ZM17.0223 35.8197H11.1368V52.3921H17.0223V35.8197ZM26.3711 52.3921H34.1213V39.8218H26.3711V52.3921ZM43.4694 35.8197V52.3921H49.3557V35.8197H43.4694ZM16.1611 45.3337C16.1611 45.0879 15.9618 44.8886 15.716 44.8886H12.4418C12.196 44.8886 11.9967 45.0879 11.9967 45.3337V49.8819C11.9967 50.1277 12.196 50.327 12.4418 50.327H15.716C15.9618 50.327 16.1611 50.1277 16.1611 49.8819V45.3337ZM48.4946 45.3337C48.4946 45.0879 48.2953 44.8886 48.0495 44.8886H44.7753C44.5295 44.8886 44.3302 45.0879 44.3302 45.3337V49.8819C44.3302 50.1277 44.5295 50.327 44.7753 50.327H48.0495C48.2953 50.327 48.4946 50.1277 48.4946 49.8819V45.3337ZM15.2707 45.7788V49.4367H12.8868V45.7788H15.2707ZM47.6042 45.7788V49.4367H45.2202V45.7788H47.6042ZM16.1611 38.331C16.1611 38.0843 15.9618 37.8859 15.716 37.8859H12.4418C12.196 37.8859 11.9967 38.0843 11.9967 38.331V42.8782C11.9967 43.124 12.196 43.3233 12.4418 43.3233H15.716C15.9618 43.3233 16.1611 43.124 16.1611 42.8782V38.331ZM48.4946 38.331C48.4946 38.0843 48.2953 37.8859 48.0495 37.8859H44.7753C44.5295 37.8859 44.3302 38.0843 44.3302 38.331V42.8782C44.3302 43.124 44.5295 43.3233 44.7753 43.3233H48.0495C48.2953 43.3233 48.4946 43.124 48.4946 42.8782V38.331ZM15.2707 38.7761V42.4332H12.8868V38.7761H15.2707ZM47.6042 38.7761V42.4332H45.2202V38.7761H47.6042ZM41.6049 30.0996C41.6049 29.8539 41.4056 29.6545 41.1598 29.6545H36.6126C36.3659 29.6545 36.1675 29.8539 36.1675 30.0996V34.6472C36.1675 34.8926 36.3659 35.0923 36.6126 35.0923H41.1598C41.4056 35.0923 41.6049 34.8926 41.6049 34.6472V30.0996ZM32.9642 30.0996C32.9642 29.8539 32.7649 29.6545 32.5191 29.6545H27.9719C27.7261 29.6545 27.5268 29.8539 27.5268 30.0996V34.6472C27.5268 34.8926 27.7261 35.0923 27.9719 35.0923H32.5191C32.7648 35.0923 32.9642 34.8926 32.9642 34.6472V30.0996ZM24.3235 30.0996C24.3235 29.8539 24.1251 29.6545 23.8784 29.6545H19.3312C19.0854 29.6545 18.8861 29.8539 18.8861 30.0996V34.6472C18.8861 34.8926 19.0854 35.0923 19.3312 35.0923H23.8784C24.1251 35.0923 24.3235 34.8926 24.3235 34.6472V30.0996ZM40.7145 30.5448V34.2021H37.0575V30.5448H40.7145ZM23.4331 30.5448V34.2021H19.7761V30.5448H23.4331ZM32.0738 30.5448V34.2021H28.4168V30.5448H32.0738ZM30.2453 10.5513C34.3073 10.5513 37.6057 13.8496 37.6057 17.9117C37.6057 21.975 34.3074 25.2733 30.2453 25.2733C26.1832 25.2733 22.8849 21.975 22.8849 17.9117C22.8849 13.8497 26.1832 10.5513 30.2453 10.5513ZM31.6306 16.5274V13.7581C31.6306 12.9932 31.01 12.3728 30.2453 12.3728C29.4806 12.3728 28.86 12.9931 28.86 13.7581V16.5274H26.0904C25.3257 16.5274 24.7054 17.148 24.7054 17.9117C24.7054 18.6767 25.3257 19.297 26.0904 19.297H28.86V22.0666C28.86 22.8312 29.4806 23.4519 30.2453 23.4519C31.01 23.4519 31.6306 22.8313 31.6306 22.0666V19.297H34.4001C35.1648 19.297 35.7851 18.6767 35.7851 17.9117C35.7851 17.148 35.1648 16.5274 34.4001 16.5274H31.6306ZM30.7403 16.9725C30.7403 17.2183 30.9396 17.4176 31.1854 17.4176H34.4001C34.6732 17.4176 34.8948 17.6395 34.8948 17.9117C34.8948 18.1851 34.6732 18.4067 34.4001 18.4067H31.1854C30.9397 18.4067 30.7403 18.6061 30.7403 18.8519V22.0666C30.7403 22.34 30.5187 22.5616 30.2453 22.5616C29.9718 22.5616 29.7502 22.34 29.7502 22.0666V18.8519C29.7502 18.6061 29.5509 18.4067 29.3051 18.4067H26.0904C25.8173 18.4067 25.5957 18.1851 25.5957 17.9117C25.5957 17.6395 25.8173 17.4176 26.0904 17.4176H29.3051C29.5509 17.4176 29.7502 17.2183 29.7502 16.9725V13.7581C29.7502 13.4847 29.9718 13.2631 30.2453 13.2631C30.5187 13.2631 30.7403 13.4847 30.7403 13.7581V16.9725Z"/>
</mask>
<path fill-rule="evenodd" clip-rule="evenodd" d="M10.6915 53.2826H49.801C50.0467 53.2826 50.2461 53.0832 50.2461 52.8375V35.3745C50.2461 35.1288 50.0467 34.9294 49.801 34.9294H43.4695V17.9117C43.4695 17.6663 43.2701 17.4666 43.0243 17.4666H38.485C38.2536 13.1197 34.6507 9.66113 30.2456 9.66113C25.8405 9.66113 22.2379 13.1197 22.0062 17.4666H17.4669C17.2211 17.4666 17.0217 17.6662 17.0217 17.9117V34.9294H10.6912C10.4445 34.9294 10.2461 35.1288 10.2461 35.3745V52.8375C10.2461 53.0832 10.4445 53.2826 10.6912 53.2826H10.6915ZM38.4849 18.3567C38.2534 22.7049 34.6505 26.1635 30.2454 26.1635C25.8403 26.1635 22.2377 22.7049 22.006 18.3567H17.9118V52.3921H25.4798V39.3765C25.4798 39.1298 25.6791 38.9314 25.9249 38.9314H34.5656C34.8114 38.9314 35.0107 39.1298 35.0107 39.3765V52.3921H42.5787V18.3567H38.4849ZM17.0223 35.8197H11.1368V52.3921H17.0223V35.8197ZM26.3711 52.3921H34.1213V39.8218H26.3711V52.3921ZM43.4694 35.8197V52.3921H49.3557V35.8197H43.4694ZM16.1611 45.3337C16.1611 45.0879 15.9618 44.8886 15.716 44.8886H12.4418C12.196 44.8886 11.9967 45.0879 11.9967 45.3337V49.8819C11.9967 50.1277 12.196 50.327 12.4418 50.327H15.716C15.9618 50.327 16.1611 50.1277 16.1611 49.8819V45.3337ZM48.4946 45.3337C48.4946 45.0879 48.2953 44.8886 48.0495 44.8886H44.7753C44.5295 44.8886 44.3302 45.0879 44.3302 45.3337V49.8819C44.3302 50.1277 44.5295 50.327 44.7753 50.327H48.0495C48.2953 50.327 48.4946 50.1277 48.4946 49.8819V45.3337ZM15.2707 45.7788V49.4367H12.8868V45.7788H15.2707ZM47.6042 45.7788V49.4367H45.2202V45.7788H47.6042ZM16.1611 38.331C16.1611 38.0843 15.9618 37.8859 15.716 37.8859H12.4418C12.196 37.8859 11.9967 38.0843 11.9967 38.331V42.8782C11.9967 43.124 12.196 43.3233 12.4418 43.3233H15.716C15.9618 43.3233 16.1611 43.124 16.1611 42.8782V38.331ZM48.4946 38.331C48.4946 38.0843 48.2953 37.8859 48.0495 37.8859H44.7753C44.5295 37.8859 44.3302 38.0843 44.3302 38.331V42.8782C44.3302 43.124 44.5295 43.3233 44.7753 43.3233H48.0495C48.2953 43.3233 48.4946 43.124 48.4946 42.8782V38.331ZM15.2707 38.7761V42.4332H12.8868V38.7761H15.2707ZM47.6042 38.7761V42.4332H45.2202V38.7761H47.6042ZM41.6049 30.0996C41.6049 29.8539 41.4056 29.6545 41.1598 29.6545H36.6126C36.3659 29.6545 36.1675 29.8539 36.1675 30.0996V34.6472C36.1675 34.8926 36.3659 35.0923 36.6126 35.0923H41.1598C41.4056 35.0923 41.6049 34.8926 41.6049 34.6472V30.0996ZM32.9642 30.0996C32.9642 29.8539 32.7649 29.6545 32.5191 29.6545H27.9719C27.7261 29.6545 27.5268 29.8539 27.5268 30.0996V34.6472C27.5268 34.8926 27.7261 35.0923 27.9719 35.0923H32.5191C32.7648 35.0923 32.9642 34.8926 32.9642 34.6472V30.0996ZM24.3235 30.0996C24.3235 29.8539 24.1251 29.6545 23.8784 29.6545H19.3312C19.0854 29.6545 18.8861 29.8539 18.8861 30.0996V34.6472C18.8861 34.8926 19.0854 35.0923 19.3312 35.0923H23.8784C24.1251 35.0923 24.3235 34.8926 24.3235 34.6472V30.0996ZM40.7145 30.5448V34.2021H37.0575V30.5448H40.7145ZM23.4331 30.5448V34.2021H19.7761V30.5448H23.4331ZM32.0738 30.5448V34.2021H28.4168V30.5448H32.0738ZM30.2453 10.5513C34.3073 10.5513 37.6057 13.8496 37.6057 17.9117C37.6057 21.975 34.3074 25.2733 30.2453 25.2733C26.1832 25.2733 22.8849 21.975 22.8849 17.9117C22.8849 13.8497 26.1832 10.5513 30.2453 10.5513ZM31.6306 16.5274V13.7581C31.6306 12.9932 31.01 12.3728 30.2453 12.3728C29.4806 12.3728 28.86 12.9931 28.86 13.7581V16.5274H26.0904C25.3257 16.5274 24.7054 17.148 24.7054 17.9117C24.7054 18.6767 25.3257 19.297 26.0904 19.297H28.86V22.0666C28.86 22.8312 29.4806 23.4519 30.2453 23.4519C31.01 23.4519 31.6306 22.8313 31.6306 22.0666V19.297H34.4001C35.1648 19.297 35.7851 18.6767 35.7851 17.9117C35.7851 17.148 35.1648 16.5274 34.4001 16.5274H31.6306ZM30.7403 16.9725C30.7403 17.2183 30.9396 17.4176 31.1854 17.4176H34.4001C34.6732 17.4176 34.8948 17.6395 34.8948 17.9117C34.8948 18.1851 34.6732 18.4067 34.4001 18.4067H31.1854C30.9397 18.4067 30.7403 18.6061 30.7403 18.8519V22.0666C30.7403 22.34 30.5187 22.5616 30.2453 22.5616C29.9718 22.5616 29.7502 22.34 29.7502 22.0666V18.8519C29.7502 18.6061 29.5509 18.4067 29.3051 18.4067H26.0904C25.8173 18.4067 25.5957 18.1851 25.5957 17.9117C25.5957 17.6395 25.8173 17.4176 26.0904 17.4176H29.3051C29.5509 17.4176 29.7502 17.2183 29.7502 16.9725V13.7581C29.7502 13.4847 29.9718 13.2631 30.2453 13.2631C30.5187 13.2631 30.7403 13.4847 30.7403 13.7581V16.9725Z" fill="white"/>
<path fill-rule="evenodd" clip-rule="evenodd" d="M10.6915 53.2826H49.801C50.0467 53.2826 50.2461 53.0832 50.2461 52.8375V35.3745C50.2461 35.1288 50.0467 34.9294 49.801 34.9294H43.4695V17.9117C43.4695 17.6663 43.2701 17.4666 43.0243 17.4666H38.485C38.2536 13.1197 34.6507 9.66113 30.2456 9.66113C25.8405 9.66113 22.2379 13.1197 22.0062 17.4666H17.4669C17.2211 17.4666 17.0217 17.6662 17.0217 17.9117V34.9294H10.6912C10.4445 34.9294 10.2461 35.1288 10.2461 35.3745V52.8375C10.2461 53.0832 10.4445 53.2826 10.6912 53.2826H10.6915ZM38.4849 18.3567C38.2534 22.7049 34.6505 26.1635 30.2454 26.1635C25.8403 26.1635 22.2377 22.7049 22.006 18.3567H17.9118V52.3921H25.4798V39.3765C25.4798 39.1298 25.6791 38.9314 25.9249 38.9314H34.5656C34.8114 38.9314 35.0107 39.1298 35.0107 39.3765V52.3921H42.5787V18.3567H38.4849ZM17.0223 35.8197H11.1368V52.3921H17.0223V35.8197ZM26.3711 52.3921H34.1213V39.8218H26.3711V52.3921ZM43.4694 35.8197V52.3921H49.3557V35.8197H43.4694ZM16.1611 45.3337C16.1611 45.0879 15.9618 44.8886 15.716 44.8886H12.4418C12.196 44.8886 11.9967 45.0879 11.9967 45.3337V49.8819C11.9967 50.1277 12.196 50.327 12.4418 50.327H15.716C15.9618 50.327 16.1611 50.1277 16.1611 49.8819V45.3337ZM48.4946 45.3337C48.4946 45.0879 48.2953 44.8886 48.0495 44.8886H44.7753C44.5295 44.8886 44.3302 45.0879 44.3302 45.3337V49.8819C44.3302 50.1277 44.5295 50.327 44.7753 50.327H48.0495C48.2953 50.327 48.4946 50.1277 48.4946 49.8819V45.3337ZM15.2707 45.7788V49.4367H12.8868V45.7788H15.2707ZM47.6042 45.7788V49.4367H45.2202V45.7788H47.6042ZM16.1611 38.331C16.1611 38.0843 15.9618 37.8859 15.716 37.8859H12.4418C12.196 37.8859 11.9967 38.0843 11.9967 38.331V42.8782C11.9967 43.124 12.196 43.3233 12.4418 43.3233H15.716C15.9618 43.3233 16.1611 43.124 16.1611 42.8782V38.331ZM48.4946 38.331C48.4946 38.0843 48.2953 37.8859 48.0495 37.8859H44.7753C44.5295 37.8859 44.3302 38.0843 44.3302 38.331V42.8782C44.3302 43.124 44.5295 43.3233 44.7753 43.3233H48.0495C48.2953 43.3233 48.4946 43.124 48.4946 42.8782V38.331ZM15.2707 38.7761V42.4332H12.8868V38.7761H15.2707ZM47.6042 38.7761V42.4332H45.2202V38.7761H47.6042ZM41.6049 30.0996C41.6049 29.8539 41.4056 29.6545 41.1598 29.6545H36.6126C36.3659 29.6545 36.1675 29.8539 36.1675 30.0996V34.6472C36.1675 34.8926 36.3659 35.0923 36.6126 35.0923H41.1598C41.4056 35.0923 41.6049 34.8926 41.6049 34.6472V30.0996ZM32.9642 30.0996C32.9642 29.8539 32.7649 29.6545 32.5191 29.6545H27.9719C27.7261 29.6545 27.5268 29.8539 27.5268 30.0996V34.6472C27.5268 34.8926 27.7261 35.0923 27.9719 35.0923H32.5191C32.7648 35.0923 32.9642 34.8926 32.9642 34.6472V30.0996ZM24.3235 30.0996C24.3235 29.8539 24.1251 29.6545 23.8784 29.6545H19.3312C19.0854 29.6545 18.8861 29.8539 18.8861 30.0996V34.6472C18.8861 34.8926 19.0854 35.0923 19.3312 35.0923H23.8784C24.1251 35.0923 24.3235 34.8926 24.3235 34.6472V30.0996ZM40.7145 30.5448V34.2021H37.0575V30.5448H40.7145ZM23.4331 30.5448V34.2021H19.7761V30.5448H23.4331ZM32.0738 30.5448V34.2021H28.4168V30.5448H32.0738ZM30.2453 10.5513C34.3073 10.5513 37.6057 13.8496 37.6057 17.9117C37.6057 21.975 34.3074 25.2733 30.2453 25.2733C26.1832 25.2733 22.8849 21.975 22.8849 17.9117C22.8849 13.8497 26.1832 10.5513 30.2453 10.5513ZM31.6306 16.5274V13.7581C31.6306 12.9932 31.01 12.3728 30.2453 12.3728C29.4806 12.3728 28.86 12.9931 28.86 13.7581V16.5274H26.0904C25.3257 16.5274 24.7054 17.148 24.7054 17.9117C24.7054 18.6767 25.3257 19.297 26.0904 19.297H28.86V22.0666C28.86 22.8312 29.4806 23.4519 30.2453 23.4519C31.01 23.4519 31.6306 22.8313 31.6306 22.0666V19.297H34.4001C35.1648 19.297 35.7851 18.6767 35.7851 17.9117C35.7851 17.148 35.1648 16.5274 34.4001 16.5274H31.6306ZM30.7403 16.9725C30.7403 17.2183 30.9396 17.4176 31.1854 17.4176H34.4001C34.6732 17.4176 34.8948 17.6395 34.8948 17.9117C34.8948 18.1851 34.6732 18.4067 34.4001 18.4067H31.1854C30.9397 18.4067 30.7403 18.6061 30.7403 18.8519V22.0666C30.7403 22.34 30.5187 22.5616 30.2453 22.5616C29.9718 22.5616 29.7502 22.34 29.7502 22.0666V18.8519C29.7502 18.6061 29.5509 18.4067 29.3051 18.4067H26.0904C25.8173 18.4067 25.5957 18.1851 25.5957 17.9117C25.5957 17.6395 25.8173 17.4176 26.0904 17.4176H29.3051C29.5509 17.4176 29.7502 17.2183 29.7502 16.9725V13.7581C29.7502 13.4847 29.9718 13.2631 30.2453 13.2631C30.5187 13.2631 30.7403 13.4847 30.7403 13.7581V16.9725Z" stroke="white" stroke-width="0.2" mask="url(#path-2-outside-1_5220_410)"/>
</svg>
