<svg width="61" height="62" viewBox="0 0 61 62" fill="none" xmlns="http://www.w3.org/2000/svg">
<rect x="0.425781" width="60" height="61.5678" rx="6" fill="#236A98"/>
<path d="M23.3242 11.812C21.8567 11.812 20.6476 13.0214 20.6476 14.4887V20.206C20.6476 21.5742 21.8109 22.5613 23.1434 22.7105V25.2564C23.1443 25.6886 23.3947 26.0816 23.7861 26.2646C24.1775 26.448 24.6396 26.3888 24.9721 26.113L28.8345 22.8914H32.6664L36.5309 26.113C36.8635 26.3888 37.3256 26.448 37.717 26.2646C38.1084 26.0815 38.3588 25.6885 38.3597 25.2564V22.0588C39.2004 21.6023 40.2124 21.2177 40.2124 20.2061V14.4887C40.2124 13.023 38.9946 11.8121 37.527 11.8121L23.3242 11.812ZM23.3242 14.044H37.5269C37.7947 14.044 37.9803 14.2184 37.9803 14.4887V20.206C37.9803 20.4763 37.7947 20.6594 37.5269 20.6594H37.2392C36.9428 20.66 36.6588 20.7783 36.4498 20.9885C36.2409 21.1987 36.1241 21.4833 36.1254 21.7797V22.8761L33.7779 20.9144C33.5783 20.75 33.3279 20.6597 33.0695 20.6594H28.4311C28.1695 20.6579 27.9157 20.7482 27.714 20.9144L25.3751 22.8674V21.7797C25.3764 21.4824 25.2587 21.1965 25.0482 20.9863C24.838 20.7758 24.5521 20.6581 24.2548 20.6594H23.324C23.0562 20.6594 22.8794 20.4744 22.8794 20.206V14.4887C22.8794 14.2203 23.0563 14.044 23.324 14.044H23.3242ZM16.5193 20.5765C14.3623 20.5765 12.5893 22.342 12.5893 24.4977C12.5893 26.6534 14.3623 28.419 16.5193 28.419C18.6763 28.419 20.458 26.6534 20.458 24.4977C20.458 22.342 18.6762 20.5765 16.5193 20.5765ZM44.3324 20.5765C42.1754 20.5765 40.4024 22.342 40.4024 24.4977C40.4024 26.6534 42.1754 28.419 44.3324 28.419C46.4894 28.419 48.2689 26.6534 48.2689 24.4977C48.2689 22.342 46.4894 20.5765 44.3324 20.5765ZM16.5193 22.8085C17.4743 22.8085 18.2238 23.5524 18.2238 24.4977C18.2238 25.4431 17.4743 26.187 16.5193 26.187C15.5642 26.187 14.8213 25.4431 14.8213 24.4977C14.8213 23.5524 15.5642 22.8085 16.5193 22.8085ZM44.3324 22.8085C45.2873 22.8085 46.0369 23.5524 46.0369 24.4977C46.0369 25.4431 45.2874 26.187 44.3324 26.187C43.3773 26.187 42.6344 25.4431 42.6344 24.4977C42.6344 23.5524 43.3773 22.8085 44.3324 22.8085ZM16.5193 28.9225C14.2714 28.9225 12.4258 30.7615 12.4258 33.0072V42.8113C12.4245 43.1087 12.5422 43.3945 12.7527 43.6047C12.9629 43.8152 13.2488 43.9329 13.5462 43.9316H20.4318V48.6354C20.4305 48.9328 20.5482 49.2186 20.7587 49.4288C20.9689 49.6393 21.2548 49.757 21.5521 49.7558H26.1753C26.4726 49.757 26.7585 49.6393 26.9687 49.4288C27.1791 49.2186 27.2969 48.9328 27.2956 48.6354V38.2056C27.2969 37.9082 27.1792 37.6224 26.9687 37.4122C26.7585 37.2017 26.4726 37.084 26.1753 37.0852H20.6214V33.0071C20.6214 30.7607 18.7671 28.9224 16.5192 28.9224L16.5193 28.9225ZM44.3324 28.9225C42.0845 28.9225 40.2367 30.7609 40.2367 33.0072V37.0854H34.6763C34.0601 37.0879 33.5622 37.5895 33.5647 38.2058V48.6356C33.5622 49.2518 34.0601 49.7534 34.6763 49.756H39.306C39.9222 49.7535 40.4201 49.2519 40.4176 48.6356V43.9318H47.3142C47.9304 43.9293 48.4283 43.4277 48.4258 42.8114V33.0074C48.4258 30.7617 46.5802 28.9227 44.3323 28.9227L44.3324 28.9225ZM16.5193 31.1545C17.5727 31.1545 18.3895 31.9638 18.3895 33.0072V38.2058C18.3919 38.8186 18.8883 39.3149 19.5011 39.3174H25.0615V47.524H22.666V42.8115C22.6635 42.1978 22.1659 41.7011 21.5521 41.6999H14.6578V33.0071C14.6578 31.963 15.4659 31.1544 16.5193 31.1544V31.1545ZM44.3324 31.1545C45.3858 31.1545 46.1939 31.9632 46.1939 33.0072V41.7001H39.3061C38.6933 41.7026 38.1969 42.1989 38.1945 42.8117V47.5241H35.7968V39.3176H41.3507C41.9669 39.3201 42.4685 38.8222 42.471 38.206V33.0074C42.471 31.9639 43.2791 31.1547 44.3325 31.1547L44.3324 31.1545ZM24.6589 33.2971C24.3615 33.2959 24.0757 33.4136 23.8655 33.6241C23.655 33.8343 23.5373 34.1201 23.5385 34.4175C23.5398 34.7136 23.6584 34.997 23.8686 35.2053C24.0785 35.4139 24.3628 35.5304 24.6589 35.5291H29.3147V48.6358C29.3134 48.9319 29.4299 49.2162 29.6385 49.4261C29.8468 49.6362 30.1302 49.7549 30.4263 49.7561C30.7237 49.7574 31.0095 49.6397 31.2197 49.4292C31.4302 49.219 31.5479 48.9331 31.5467 48.6358V35.5291H36.2003C36.8141 35.5279 37.3116 35.0312 37.3142 34.4175C37.3154 34.1211 37.1986 33.8365 36.9897 33.6263C36.7808 33.4161 36.4968 33.2978 36.2003 33.2972L24.6589 33.2971Z" fill="white"/>
</svg>
