<svg width="141" height="61" viewBox="0 0 141 61" fill="none" xmlns="http://www.w3.org/2000/svg">
<path d="M140.89 46.1375H138.745V43.417H135.602V46.1375H133.596V48.7592H135.602V55.1841H138.745V48.7592H140.89V46.1375Z" fill="#71963D"/>
<path d="M132.589 46.0386C132.348 46.0183 132.143 46.0107 131.98 46.0107C131.273 46.0107 130.664 46.1679 130.15 46.4798C129.768 46.7131 129.413 47.0934 129.082 47.6208V46.1375H125.939V55.1866H129.082V51.3149C129.082 50.7875 129.139 50.3692 129.254 50.0573C129.558 49.1927 130.226 48.7617 131.255 48.7617C131.706 48.7617 132.151 48.8682 132.589 49.0837V46.0386Z" fill="#71963D"/>
<path d="M132.589 46.0386C132.348 46.0183 132.143 46.0107 131.98 46.0107C131.273 46.0107 130.664 46.1679 130.15 46.4798C129.768 46.7131 129.413 47.0934 129.082 47.6208V46.1375H125.939V55.1866H129.082V51.3149C129.082 50.7875 129.139 50.3692 129.254 50.0573C129.558 49.1927 130.226 48.7617 131.255 48.7617C131.706 48.7617 132.151 48.8682 132.589 49.0837V46.0386V46.0386Z" stroke="#71963D" stroke-width="0.4971" stroke-miterlimit="4.1497"/>
<path d="M122.919 47.4537C121.919 46.3559 120.583 45.8057 118.909 45.8057C117.087 45.8057 115.684 46.3559 114.696 47.4537C113.88 48.3639 113.473 49.406 113.473 50.5825C113.473 51.8882 113.877 52.9911 114.686 53.8887C115.666 54.9815 117.043 55.5266 118.812 55.5266C120.575 55.5266 121.947 54.9815 122.927 53.8887C123.736 52.9911 124.14 51.9161 124.14 50.6611C124.14 49.4187 123.733 48.3513 122.919 47.4537ZM120.276 52.1646C119.876 52.5728 119.387 52.7756 118.812 52.7756C118.164 52.7756 117.639 52.5272 117.232 52.0302C116.902 51.6321 116.738 51.1758 116.738 50.6585C116.738 50.1489 116.902 49.6951 117.232 49.297C117.637 48.8 118.164 48.5516 118.812 48.5516C119.382 48.5516 119.869 48.7544 120.27 49.1626C120.672 49.5708 120.874 50.0678 120.874 50.656C120.874 51.2544 120.675 51.7564 120.276 52.1646Z" fill="#71963D"/>
<path d="M122.919 47.4537C121.919 46.3559 120.583 45.8057 118.909 45.8057C117.087 45.8057 115.684 46.3559 114.696 47.4537C113.88 48.3639 113.473 49.406 113.473 50.5825C113.473 51.8882 113.877 52.9911 114.686 53.8887C115.666 54.9815 117.043 55.5266 118.812 55.5266C120.575 55.5266 121.947 54.9815 122.927 53.8887C123.736 52.9911 124.14 51.9161 124.14 50.6611C124.14 49.4187 123.733 48.3513 122.919 47.4537ZM120.276 52.1646C119.876 52.5728 119.387 52.7756 118.812 52.7756C118.164 52.7756 117.639 52.5272 117.232 52.0302C116.902 51.6321 116.738 51.1758 116.738 50.6585C116.738 50.1489 116.902 49.6951 117.232 49.297C117.637 48.8 118.164 48.5516 118.812 48.5516C119.382 48.5516 119.869 48.7544 120.27 49.1626C120.672 49.5708 120.874 50.0678 120.874 50.656C120.874 51.2544 120.675 51.7564 120.276 52.1646Z" stroke="#71963D" stroke-width="0.2983" stroke-miterlimit="4.1497"/>
<path d="M98.3974 47.0122C97.5374 46.2389 96.5597 45.8535 95.4592 45.8535C94.7784 45.8535 94.1718 46.0056 93.6369 46.3124C93.3118 46.495 93.0098 46.7739 92.7309 47.1517V46.1375H89.5879V59.7098H92.7309V54.2991C93.0687 54.6566 93.3963 54.9127 93.7137 55.0699C94.2665 55.3437 94.8577 55.4781 95.4874 55.4781C96.5674 55.4781 97.5246 55.1105 98.359 54.3777C99.4084 53.4548 99.9331 52.2226 99.9331 50.676C99.9331 49.1547 99.4212 47.9351 98.3974 47.0122ZM96.181 52.0045C95.7894 52.4863 95.2775 52.7271 94.6504 52.7271C94.0925 52.7271 93.6164 52.5268 93.2248 52.1262C92.8307 51.7256 92.6362 51.2388 92.6362 50.6658C92.6362 50.0852 92.8307 49.5984 93.2197 49.2003C93.6087 48.8023 94.0873 48.6045 94.6504 48.6045C95.2775 48.6045 95.7919 48.8454 96.1912 49.3271C96.5086 49.7049 96.6672 50.1511 96.6672 50.6658C96.6672 51.1678 96.506 51.6141 96.181 52.0045ZM110.685 47.0122C109.825 46.2389 108.848 45.8535 107.747 45.8535C107.066 45.8535 106.46 46.0056 105.925 46.3124C105.6 46.495 105.298 46.7739 105.019 47.1517V46.1375H101.876V59.7098H105.019V54.2991C105.356 54.6566 105.684 54.9127 106.001 55.0699C106.554 55.3437 107.145 55.4781 107.775 55.4781C108.855 55.4781 109.812 55.1105 110.647 54.3777C111.696 53.4548 112.221 52.2226 112.221 50.676C112.221 49.1547 111.709 47.9351 110.685 47.0122ZM108.469 52.0045C108.075 52.4863 107.565 52.7271 106.938 52.7271C106.38 52.7271 105.904 52.5268 105.513 52.1262C105.118 51.7256 104.924 51.2388 104.924 50.6658C104.924 50.0852 105.118 49.5984 105.507 49.2003C105.897 48.8023 106.375 48.6045 106.938 48.6045C107.565 48.6045 108.08 48.8454 108.479 49.3271C108.796 49.7049 108.955 50.1511 108.955 50.6658C108.955 51.1678 108.791 51.6141 108.469 52.0045Z" fill="#71963D"/>
<path d="M98.3974 47.0122C97.5374 46.2389 96.5597 45.8535 95.4592 45.8535C94.7784 45.8535 94.1718 46.0056 93.6369 46.3124C93.3118 46.495 93.0098 46.7739 92.7309 47.1517V46.1375H89.5879V59.7098H92.7309V54.2991C93.0687 54.6566 93.3963 54.9127 93.7137 55.0699C94.2665 55.3437 94.8577 55.4781 95.4874 55.4781C96.5674 55.4781 97.5246 55.1105 98.359 54.3777C99.4084 53.4548 99.9331 52.2226 99.9331 50.676C99.9331 49.1547 99.4212 47.9351 98.3974 47.0122ZM96.181 52.0045C95.7894 52.4863 95.2775 52.7271 94.6504 52.7271C94.0925 52.7271 93.6164 52.5268 93.2248 52.1262C92.8307 51.7256 92.6362 51.2388 92.6362 50.6658C92.6362 50.0852 92.8307 49.5984 93.2197 49.2003C93.6087 48.8023 94.0873 48.6045 94.6504 48.6045C95.2775 48.6045 95.7919 48.8454 96.1912 49.3271C96.5086 49.7049 96.6672 50.1511 96.6672 50.6658C96.6672 51.1678 96.506 51.6141 96.181 52.0045ZM110.685 47.0122C109.825 46.2389 108.848 45.8535 107.747 45.8535C107.066 45.8535 106.46 46.0056 105.925 46.3124C105.6 46.495 105.298 46.7739 105.019 47.1517V46.1375H101.876V59.7098H105.019V54.2991C105.356 54.6566 105.684 54.9127 106.001 55.0699C106.554 55.3437 107.145 55.4781 107.775 55.4781C108.855 55.4781 109.812 55.1105 110.647 54.3777C111.696 53.4548 112.221 52.2226 112.221 50.676C112.221 49.1547 111.709 47.9351 110.685 47.0122ZM108.469 52.0045C108.075 52.4863 107.565 52.7271 106.938 52.7271C106.38 52.7271 105.904 52.5268 105.513 52.1262C105.118 51.7256 104.924 51.2388 104.924 50.6658C104.924 50.0852 105.118 49.5984 105.507 49.2003C105.897 48.8023 106.375 48.6045 106.938 48.6045C107.565 48.6045 108.08 48.8454 108.479 49.3271C108.796 49.7049 108.955 50.1511 108.955 50.6658C108.955 51.1678 108.791 51.6141 108.469 52.0045Z" stroke="#71963D" stroke-width="0.5965" stroke-miterlimit="4.1497"/>
<path d="M87.4454 46.1377H84.3025V51.2669C84.3025 51.8323 84.1694 52.2482 83.9032 52.5144C83.6191 52.8009 83.225 52.9429 82.7259 52.9429C82.2191 52.9429 81.825 52.8009 81.5383 52.5144C81.2721 52.2482 81.139 51.8323 81.139 51.2669V46.1377H77.9961V51.8805C77.9961 52.8364 78.2495 53.6072 78.7614 54.1903C79.5624 55.1132 80.8857 55.5747 82.7259 55.5747C83.6626 55.5747 84.4535 55.4606 85.1036 55.2324C86.6648 54.6797 87.4429 53.5615 87.4429 51.878V46.1377H87.4454Z" fill="#71963D"/>
<path d="M87.4454 46.1377H84.3025V51.2669C84.3025 51.8323 84.1694 52.2482 83.9032 52.5144C83.6191 52.8009 83.225 52.9429 82.7259 52.9429C82.2191 52.9429 81.825 52.8009 81.5383 52.5144C81.2721 52.2482 81.139 51.8323 81.139 51.2669V46.1377H77.9961V51.8805C77.9961 52.8364 78.2495 53.6072 78.7614 54.1903C79.5624 55.1132 80.8857 55.5747 82.7259 55.5747C83.6626 55.5747 84.4535 55.4606 85.1036 55.2324C86.6648 54.6797 87.4429 53.5615 87.4429 51.878V46.1377H87.4454Z" stroke="#71963D" stroke-width="0.6959" stroke-miterlimit="4.1497"/>
<path d="M75.7743 48.6251C75.265 47.9684 74.4102 47.4613 73.2098 47.1013C72.2526 46.8148 71.6793 46.612 71.4873 46.4953C71.0599 46.2418 70.8475 45.9375 70.8475 45.5851C70.8475 45.2276 71.0113 44.9386 71.3363 44.723C71.623 44.5329 71.948 44.4391 72.314 44.4391C73.0665 44.4391 73.8138 44.7357 74.5535 45.3265L75.91 42.6364C74.5612 41.9137 73.1817 41.5537 71.774 41.5537C70.374 41.5537 69.253 42.0304 68.4135 42.9862C67.6943 43.7976 67.3334 44.8194 67.3334 46.0542C67.3334 47.2357 67.6815 48.118 68.3751 48.7037C68.6182 48.904 68.91 49.079 69.2555 49.2285C69.4731 49.3249 70.0029 49.5024 70.8424 49.7534C71.536 49.9562 72.0325 50.1565 72.3243 50.3543C72.7184 50.618 72.918 50.9451 72.918 51.3381C72.918 51.7716 72.7389 52.1063 72.3831 52.3421C72.076 52.5525 71.7049 52.6565 71.2621 52.6565C70.287 52.6565 69.2888 52.1849 68.2676 51.2417L66.8164 54.0307C68.2113 55.0398 69.7239 55.5419 71.3517 55.5419C72.1297 55.5419 72.854 55.4227 73.5297 55.1818C75.4646 54.4998 76.4321 53.0317 76.4321 50.7803C76.4347 49.903 76.2145 49.1855 75.7743 48.6251Z" fill="#71963D"/>
<path d="M75.7743 48.6251C75.265 47.9684 74.4102 47.4613 73.2098 47.1013C72.2526 46.8148 71.6793 46.612 71.4873 46.4953C71.0599 46.2418 70.8475 45.9375 70.8475 45.5851C70.8475 45.2276 71.0113 44.9386 71.3363 44.723C71.623 44.5329 71.948 44.4391 72.314 44.4391C73.0665 44.4391 73.8138 44.7357 74.5535 45.3265L75.91 42.6364C74.5612 41.9137 73.1817 41.5537 71.774 41.5537C70.374 41.5537 69.253 42.0304 68.4135 42.9862C67.6943 43.7976 67.3334 44.8194 67.3334 46.0542C67.3334 47.2357 67.6815 48.118 68.3751 48.7037C68.6182 48.904 68.91 49.079 69.2555 49.2286C69.4731 49.3249 70.0029 49.5024 70.8424 49.7534C71.536 49.9562 72.0325 50.1565 72.3243 50.3543C72.7184 50.618 72.918 50.9451 72.918 51.3381C72.918 51.7716 72.7389 52.1063 72.3831 52.3421C72.076 52.5525 71.7049 52.6565 71.2621 52.6565C70.287 52.6565 69.2888 52.1849 68.2676 51.2417L66.8164 54.0307C68.2113 55.0398 69.7239 55.5419 71.3517 55.5419C72.1297 55.5419 72.854 55.4227 73.5297 55.1818C75.4646 54.4998 76.4321 53.0317 76.4321 50.7803C76.4347 49.903 76.2145 49.1854 75.7743 48.6251Z" stroke="#71963D" stroke-width="0.9942" stroke-miterlimit="4.1497"/>
<path d="M42.1913 50.8897C42.1913 49.8324 41.9584 48.9044 41.4951 48.1058C40.6659 46.6884 39.2889 45.9785 37.3591 45.9785C35.7928 45.9785 34.5796 46.4248 33.7196 47.3198C32.8597 48.2148 32.4297 49.376 32.4297 50.8035C32.4297 52.0078 32.7726 53.0271 33.4611 53.8638C34.3774 54.9845 35.7467 55.5423 37.569 55.5423C39.0023 55.5423 40.1438 55.1417 40.9986 54.3405C41.4695 53.8993 41.8253 53.273 42.0684 52.4642H39.0304C38.6823 53.0296 38.1833 53.3136 37.5306 53.3136C36.2509 53.3136 35.611 52.6417 35.611 51.2954H42.1913V50.8897ZM35.6955 49.4901C35.7646 49.0566 35.931 48.7117 36.1895 48.4557C36.5196 48.1337 36.9496 47.9739 37.482 47.9739C38.4443 47.9739 39.0381 48.4785 39.2582 49.4901H35.6955Z" fill="#71963D"/>
<path d="M31.8104 46.0392C31.5545 46.0189 31.3369 46.0088 31.1603 46.0088C30.4104 46.0088 29.7603 46.166 29.2126 46.4779C28.8057 46.7111 28.4269 47.0914 28.0762 47.6188V46.1356H24.7285V55.1821H28.0762V51.3104C28.0762 50.7831 28.1377 50.3647 28.2579 50.0528C28.583 49.1883 29.2919 48.7572 30.3899 48.7572C30.8711 48.7572 31.3446 48.8637 31.8104 49.0792V46.0392Z" fill="#71963D"/>
<path d="M22.8686 46.1375H19.6796V47.0249C19.3366 46.6674 19.0064 46.4113 18.684 46.2541C18.1234 45.9879 17.522 45.8535 16.8847 45.8535C15.7893 45.8535 14.8167 46.2212 13.9721 46.9539C12.9074 47.8768 12.375 49.1091 12.375 50.6557C12.375 52.1744 12.8946 53.3965 13.9337 54.3194C14.8039 55.0928 15.7969 55.4781 16.9128 55.4781C17.6039 55.4781 18.2181 55.326 18.7607 55.0192C19.0704 54.8443 19.3776 54.5654 19.6796 54.18V55.184H22.866V46.1375H22.8686ZM19.1856 52.1161C18.7914 52.5117 18.3077 52.7069 17.7344 52.7069C17.0971 52.7069 16.5801 52.4685 16.1834 51.9893C15.8558 51.6014 15.692 51.1577 15.692 50.6608C15.692 50.1638 15.8558 49.7201 16.1834 49.3322C16.5878 48.853 17.1048 48.6146 17.7344 48.6146C18.3 48.6146 18.7812 48.8149 19.1805 49.2105C19.5797 49.6085 19.7794 50.0928 19.7794 50.6608C19.7768 51.2363 19.5797 51.7206 19.1856 52.1161Z" fill="#71963D"/>
<path d="M11.0492 50.7294C10.7165 51.1351 10.3838 51.4368 10.0485 51.632C9.42655 52.0047 8.7611 52.1923 8.04958 52.1923C7.14867 52.1923 6.36293 51.9211 5.69748 51.381C4.85543 50.6964 4.43313 49.7608 4.43313 48.5743C4.43313 47.3826 4.85543 46.4445 5.69748 45.7599C6.36293 45.2198 7.14867 44.9486 8.04958 44.9486C8.7611 44.9486 9.42655 45.1362 10.0485 45.5089C10.3889 45.7117 10.7216 46.0134 11.0492 46.4115V42.2686C9.89492 41.8198 8.85324 41.5967 7.92673 41.5967C6.22472 41.5967 4.70699 42.1317 3.37609 43.2067C1.6792 44.5784 0.832031 46.3684 0.832031 48.5793C0.832031 50.7826 1.6792 52.5701 3.37609 53.9418C4.70699 55.0143 6.21448 55.5493 7.89602 55.5493C8.86092 55.5493 9.91284 55.3262 11.0467 54.8774V50.7294H11.0492Z" fill="#71963D"/>
<path d="M33.608 15.2787C37.8669 15.2787 41.3195 11.8583 41.3195 7.63934C41.3195 3.42033 37.8669 0 33.608 0C29.3491 0 25.8965 3.42033 25.8965 7.63934C25.8965 11.8583 29.3491 15.2787 33.608 15.2787Z" fill="#FFC20E"/>
<path d="M22.8146 7.20788L15.5792 24.9485L8.41024 7.20788H0L12.5079 36.3834H18.5225L31.2044 7.20788H22.8146ZM39.0055 16.3508H31.8366V36.3834H39.0055V16.3508ZM64.1159 23.625C64.1159 20.978 63.3327 18.9902 61.7638 17.6667C60.3587 16.4877 58.5697 15.8969 56.4018 15.8969C54.7024 15.8969 53.2742 16.2214 52.1174 16.868C51.4135 17.2559 50.6457 17.9253 49.8113 18.8761V3.95996H42.5708V36.3834H49.8113V25.6559C49.8113 24.2538 50.1466 23.2142 50.8172 22.5423C51.5466 21.8121 52.4655 21.447 53.5737 21.447C54.7689 21.447 55.6647 21.8704 56.2636 22.7198C56.6706 23.2954 56.8753 24.4718 56.8753 26.2543V36.386H64.1159V23.625ZM90.3704 16.3508H83.1298V18.3157C82.3518 17.5247 81.5993 16.9567 80.8673 16.6094C79.5927 16.0186 78.2311 15.7245 76.7799 15.7245C74.2896 15.7245 72.0834 16.5358 70.1638 18.1611C67.7452 20.2021 66.5371 22.9353 66.5371 26.3557C66.5371 29.7202 67.717 32.423 70.0742 34.4641C72.0527 36.1755 74.3075 37.03 76.8439 37.03C78.4128 37.03 79.8103 36.6927 81.0413 36.0158C81.7452 35.6278 82.4413 35.0092 83.1298 34.1598V36.3834H90.3704V16.3508ZM82.0037 29.5884C81.1053 30.4631 80.0073 30.8992 78.7072 30.8992C77.2611 30.8992 76.0863 30.3693 75.1803 29.3095C74.4355 28.45 74.0618 27.4687 74.0618 26.3658C74.0618 25.2629 74.4355 24.2817 75.1803 23.4221C76.0991 22.3623 77.2764 21.8324 78.7072 21.8324C79.992 21.8324 81.0874 22.2736 81.9934 23.1534C82.8995 24.0357 83.3525 25.1057 83.3525 26.3658C83.3525 27.6412 82.902 28.7162 82.0037 29.5884ZM116.174 16.3508H109.174V18.3157C108.425 17.5247 107.695 16.9567 106.986 16.6094C105.753 16.0186 104.437 15.7245 103.034 15.7245C100.626 15.7245 98.494 16.5358 96.6384 18.1611C94.3017 20.2021 93.132 22.9353 93.132 26.3557C93.132 29.7202 94.271 32.423 96.5514 34.4641C98.4633 36.1755 100.644 37.03 103.096 37.03C104.611 37.03 105.965 36.6927 107.155 36.0158C107.836 35.6278 108.506 35.0092 109.174 34.1598V36.3834H116.174V16.3508ZM108.087 29.5884C107.219 30.4631 106.157 30.8992 104.9 30.8992C103.503 30.8992 102.366 30.3693 101.491 29.3095C100.772 28.45 100.411 27.4687 100.411 26.3658C100.411 25.2629 100.772 24.2817 101.491 23.4221C102.379 22.3623 103.516 21.8324 104.9 21.8324C106.142 21.8324 107.201 22.2736 108.076 23.1534C108.952 24.0357 109.389 25.1057 109.389 26.3658C109.387 27.6412 108.954 28.7162 108.087 29.5884ZM140.86 23.625C140.86 20.978 140.084 18.9902 138.531 17.6667C137.167 16.5003 135.398 15.9172 133.223 15.9172C131.526 15.9172 130.11 16.2341 128.979 16.868C128.283 17.2559 127.52 17.9253 126.694 18.8761V16.3508H119.525V36.3834H126.694V25.6559C126.694 24.2538 127.026 23.2218 127.689 22.5626C128.426 21.8324 129.335 21.4673 130.418 21.4673C131.6 21.4673 132.488 21.8907 133.082 22.7401C133.486 23.3157 133.689 24.487 133.689 26.2543V36.386H140.857V23.625H140.86Z" fill="#2590AA"/>
<path d="M56.8065 50.1792L55.427 48.6706C55.9901 48.3689 57.5001 47.4485 57.5001 46.0591C57.5001 45.0475 57.1521 44.2589 56.4559 43.6935C55.7597 43.1307 54.9817 42.8467 54.1243 42.8467C53.2566 42.8467 52.4811 43.1307 51.8003 43.7011C51.117 44.2691 50.5309 45.0221 50.5309 46.0464C50.5309 47.4409 51.7798 48.4703 51.7798 48.4703L51.5213 48.6123C50.8431 48.9369 50.2877 49.3425 49.8552 49.8344C49.4201 50.3263 49.2051 51.0134 49.2051 51.9008C49.2051 52.9758 49.804 53.8354 50.495 54.4185C51.1861 55.0042 52.2866 55.2679 53.2106 55.2679C53.2489 55.2679 53.4665 55.2679 53.4998 55.2679C53.533 55.2679 53.5689 55.2679 53.6073 55.2679C54.2266 55.2375 54.8358 55.0904 55.4321 54.8293C56.0285 54.5681 56.6299 54.2309 57.1341 53.843L58.6212 55.1006L59.8548 53.2674L58.6212 52.1163L59.6372 49.7457L57.3159 48.9343C57.1137 49.2487 56.8065 50.1792 56.8065 50.1792ZM54.1934 47.446C54.1447 47.3928 53.8811 47.2001 53.8427 47.1367C53.6892 46.9592 53.5535 46.764 53.4358 46.5485C53.3155 46.3355 53.2566 46.1174 53.2566 45.8994C53.2566 45.6078 53.3436 45.372 53.5202 45.1945C53.6968 45.017 53.9093 44.9283 54.1575 44.9283C54.4442 44.9283 54.8537 45.0348 55.0252 45.2503C55.7546 46.6575 54.242 47.4992 54.1934 47.446ZM55.5012 52.1645C55.2402 52.38 54.9484 52.5727 54.631 52.74C54.3137 52.9074 53.9784 53.0139 53.6329 53.0595C53.5945 53.0646 53.5586 53.0697 53.5202 53.0747C53.4819 53.0798 53.4435 53.0773 53.4051 53.0697C53.0647 53.0722 52.7345 52.9708 52.4171 52.7679C52.0998 52.5651 51.9129 52.2558 51.8592 51.84C51.8106 51.4672 51.8745 51.1326 52.0563 50.8359C52.238 50.5393 52.4453 50.2756 52.6808 50.0499C52.7243 50.0018 52.7652 49.9586 52.8062 49.9181C52.8446 49.8775 52.8855 49.8344 52.9316 49.7862L55.4987 52.1468L55.5012 52.1645Z" fill="#71963D"/>
</svg>
