<svg width="1440" height="1130" viewBox="0 0 1440 1130" fill="none" xmlns="http://www.w3.org/2000/svg">
<path d="M788.437 62.2515H564.8V1189.56H788.437V62.2515Z" fill="#455A64"/>
<path d="M788.406 0.746582H586.083V45.3181H788.406V0.746582Z" fill="#455A64"/>
<path d="M607.555 132.114H585.269V1189.56H607.555V132.114Z" fill="#263238"/>
<path d="M592.499 132.114H585.269V1189.56H592.499V132.114Z" fill="#37474F"/>
<path d="M647.65 132.113H625.364V1189.56H647.65V132.113Z" fill="#263238"/>
<path d="M632.595 132.113H625.364V1189.56H632.595V132.113Z" fill="#37474F"/>
<path d="M687.745 132.114H665.46V1189.56H687.745V132.114Z" fill="#263238"/>
<path d="M672.69 132.114H665.46V1189.56H672.69V132.114Z" fill="#37474F"/>
<path d="M727.839 132.113H705.553V1189.56H727.839V132.113Z" fill="#263238"/>
<path d="M712.783 132.113H705.553V1189.56H712.783V132.113Z" fill="#37474F"/>
<path d="M767.967 132.114H745.681V1189.56H767.967V132.114Z" fill="#263238"/>
<path d="M752.912 132.114H745.681V1189.56H752.912V132.114Z" fill="#37474F"/>
<path d="M788.406 45.3179H586.083V62.2513H788.406V45.3179Z" fill="#37474F"/>
<path d="M883.683 62.2515H788.438V1189.56H883.683V62.2515Z" fill="#37474F"/>
<path d="M868.628 45.3179H788.438V62.2513H868.628V45.3179Z" fill="#263238"/>
<path d="M868.628 0.746582H788.438V45.3181H868.628V0.746582Z" fill="#37474F"/>
<path d="M817.452 132.113H803.117V1189.56H817.452V132.113Z" fill="#263238"/>
<path d="M807.781 132.113H803.117V1189.56H807.781V132.113Z" fill="#455A64"/>
<path d="M843.244 132.114H828.908V1189.56H843.244V132.114Z" fill="#263238"/>
<path d="M833.572 132.114H828.908V1189.56H833.572V132.114Z" fill="#455A64"/>
<path d="M869.033 132.114H854.698V1189.56H869.033V132.114Z" fill="#263238"/>
<path d="M859.361 132.114H854.698V1189.56H859.361V132.114Z" fill="#455A64"/>
<path d="M1218.78 216.499L1100.28 115.994V1189.56H1218.78V216.499Z" fill="#FFC727"/>
<g opacity="0.6">
<path d="M1218.78 216.499L1100.28 115.994V1189.56H1218.78V216.499Z" fill="black"/>
</g>
<path d="M1100.28 115.994L897.736 216.499V1189.56H1100.28V115.994Z" fill="#FFC727"/>
<g opacity="0.4">
<path d="M1100.28 115.994L897.736 216.499V1189.56H1100.28V115.994Z" fill="black"/>
</g>
<path d="M1197.03 237L1122.03 173.43V1189.56H1197.03V237Z" fill="#37474F"/>
<g opacity="0.1">
<path d="M1196.99 1038.69V1096.88L1122.06 1032.59V974.465L1196.99 1038.69Z" fill="white"/>
<path d="M1196.99 617.924V676.08L1122.06 611.852V553.665L1196.99 617.924Z" fill="white"/>
<path d="M1196.99 857.027V886.105L1122.06 821.877V792.768L1196.99 857.027Z" fill="white"/>
<path d="M1196.99 459.295V488.373L1122.06 424.145V395.036L1196.99 459.295Z" fill="white"/>
<path d="M1196.99 290.368V319.446L1122.06 255.218V226.108L1196.99 290.368Z" fill="white"/>
<path d="M1196.99 997.565V1004.73L1122.06 940.505V933.337L1196.99 997.565Z" fill="white"/>
<path d="M1196.99 389.276V396.475L1122.06 332.216V325.017L1196.99 389.276Z" fill="white"/>
<path d="M1196.99 517.075V524.243L1122.06 459.984V452.816L1196.99 517.075Z" fill="white"/>
</g>
<path d="M1196.99 237.032V1189.56H1188.64V242.102L1122.06 185.668V173.43L1196.99 237.032Z" fill="#263238"/>
<path d="M1173.58 217.156V1189.56H1171.11V215.059L1173.58 217.156Z" fill="#263238"/>
<path d="M1197.02 250.334H1122.06V252.776H1197.02V250.334Z" fill="#263238"/>
<path d="M1197.02 297.222H1122.06V299.664H1197.02V297.222Z" fill="#263238"/>
<path d="M1197.02 344.11H1122.06V346.551H1197.02V344.11Z" fill="#263238"/>
<path d="M1197.02 390.966H1122.06V393.408H1197.02V390.966Z" fill="#263238"/>
<path d="M1197.02 437.823H1122.06V440.264H1197.02V437.823Z" fill="#263238"/>
<path d="M1197.02 484.71H1122.06V487.152H1197.02V484.71Z" fill="#263238"/>
<path d="M1197.02 531.567H1122.06V534.008H1197.02V531.567Z" fill="#263238"/>
<path d="M1197.02 578.455H1122.06V580.896H1197.02V578.455Z" fill="#263238"/>
<path d="M1197.02 625.343H1122.06V627.784H1197.02V625.343Z" fill="#263238"/>
<path d="M1197.02 672.199H1122.06V674.64H1197.02V672.199Z" fill="#263238"/>
<path d="M1197.02 719.087H1122.06V721.528H1197.02V719.087Z" fill="#263238"/>
<path d="M1197.02 765.974H1122.06V768.416H1197.02V765.974Z" fill="#263238"/>
<path d="M1197.02 812.831H1122.06V815.272H1197.02V812.831Z" fill="#263238"/>
<path d="M1197.02 859.687H1122.06V862.128H1197.02V859.687Z" fill="#263238"/>
<path d="M1197.02 906.543H1122.06V908.985H1197.02V906.543Z" fill="#263238"/>
<path d="M1197.02 953.431H1122.06V955.873H1197.02V953.431Z" fill="#263238"/>
<path d="M1197.02 1000.32H1122.06V1002.76H1197.02V1000.32Z" fill="#263238"/>
<path d="M1197.02 1047.18H1122.06V1049.62H1197.02V1047.18Z" fill="#263238"/>
<path d="M1197.02 1094.06H1122.06V1096.5H1197.02V1094.06Z" fill="#263238"/>
<path d="M1147.13 194.714V1189.56H1144.66V192.617L1147.13 194.714Z" fill="#263238"/>
<path d="M1071.7 173.43L926.312 245.577V1189.56H1071.7V173.43Z" fill="#455A64"/>
<g opacity="0.1">
<path d="M1071.7 551.411V609.536L926.344 754.925V696.738L1071.7 551.411Z" fill="white"/>
<path d="M1071.7 1016.97V1075.13L957.268 1189.56H926.344V1162.33L1071.7 1016.97Z" fill="white"/>
<path d="M1071.7 187.358V245.483L926.344 390.904V332.717L1071.7 187.358Z" fill="white"/>
<path d="M1071.7 432.283V461.455L926.344 606.781V577.735L1071.7 432.283Z" fill="white"/>
<path d="M1052.92 182.757L926.344 309.304V280.258L995.141 211.428L1052.92 182.757Z" fill="white"/>
<path d="M1071.7 784.222V813.363L926.344 958.721V929.643L1071.7 784.222Z" fill="white"/>
<path d="M1071.7 1097.94V1127.02L1009.16 1189.56H980.087L1071.7 1097.94Z" fill="white"/>
<path d="M1071.7 527.185V534.353L926.344 679.774V672.575L1071.7 527.185Z" fill="white"/>
<path d="M1071.7 855.462V862.63L926.344 1008.05V1000.88L1071.7 855.462Z" fill="white"/>
</g>
<path d="M1071.7 173.43V186.357L936.611 253.402V1189.56H926.344V245.577L1071.7 173.43Z" fill="#37474F"/>
<path d="M1023.22 197.468V1189.56H1020.78V198.689L1023.22 197.468Z" fill="#37474F"/>
<path d="M1071.73 250.334H926.344V252.776H1071.73V250.334Z" fill="#37474F"/>
<path d="M1071.73 297.222H926.344V299.664H1071.73V297.222Z" fill="#37474F"/>
<path d="M1071.73 344.11H926.344V346.551H1071.73V344.11Z" fill="#37474F"/>
<path d="M1071.73 390.966H926.344V393.408H1071.73V390.966Z" fill="#37474F"/>
<path d="M1071.73 437.823H926.344V440.264H1071.73V437.823Z" fill="#37474F"/>
<path d="M1071.73 484.71H926.344V487.152H1071.73V484.71Z" fill="#37474F"/>
<path d="M1071.73 531.567H926.344V534.008H1071.73V531.567Z" fill="#37474F"/>
<path d="M1071.73 578.455H926.344V580.896H1071.73V578.455Z" fill="#37474F"/>
<path d="M1071.73 625.343H926.344V627.784H1071.73V625.343Z" fill="#37474F"/>
<path d="M1071.73 672.199H926.344V674.64H1071.73V672.199Z" fill="#37474F"/>
<path d="M1071.73 719.087H926.344V721.528H1071.73V719.087Z" fill="#37474F"/>
<path d="M1071.73 765.974H926.344V768.416H1071.73V765.974Z" fill="#37474F"/>
<path d="M1071.73 812.831H926.344V815.272H1071.73V812.831Z" fill="#37474F"/>
<path d="M1071.73 859.687H926.344V862.128H1071.73V859.687Z" fill="#37474F"/>
<path d="M1071.73 906.543H926.344V908.985H1071.73V906.543Z" fill="#37474F"/>
<path d="M1071.73 953.431H926.344V955.873H1071.73V953.431Z" fill="#37474F"/>
<path d="M1071.73 1000.32H926.344V1002.76H1071.73V1000.32Z" fill="#37474F"/>
<path d="M1071.73 1047.18H926.344V1049.62H1071.73V1047.18Z" fill="#37474F"/>
<path d="M1071.73 1094.06H926.344V1096.5H1071.73V1094.06Z" fill="#37474F"/>
<path d="M977.237 220.318V1189.56H974.796V221.507L977.237 220.318Z" fill="#37474F"/>
<path d="M1427.08 528.062H1211.64V1189.56H1427.08V528.062Z" fill="#455A64"/>
<path d="M1426.26 461.517H1265.07V528.061H1426.26V461.517Z" fill="#37474F"/>
<path d="M1292.24 471.784H1278.47V517.795H1292.24V471.784Z" fill="#455A64"/>
<path d="M1316.37 471.784H1302.6V517.795H1316.37V471.784Z" fill="#455A64"/>
<path d="M1340.47 471.784H1326.7V517.795H1340.47V471.784Z" fill="#455A64"/>
<path d="M1364.6 471.784H1350.83V517.795H1364.6V471.784Z" fill="#455A64"/>
<path d="M1388.71 471.784H1374.93V517.795H1388.71V471.784Z" fill="#455A64"/>
<path d="M1412.84 471.784H1399.07V517.795H1412.84V471.784Z" fill="#455A64"/>
<path d="M1499.57 461.517H1426.26V528.061H1499.57V461.517Z" fill="#455A64"/>
<path d="M1448.27 471.784H1436.53V517.795H1448.27V471.784Z" fill="#37474F"/>
<path d="M1535.91 528.062H1426.26V1189.56H1535.91V528.062Z" fill="#37474F"/>
<path d="M1300.56 427.807H1295.62V461.517H1300.56V427.807Z" fill="#263238"/>
<path d="M1395.69 427.807H1390.74V461.517H1395.69V427.807Z" fill="#263238"/>
<path d="M1417.53 368.837H1273.77V427.807H1417.53V368.837Z" fill="#FFC727"/>
<path opacity="0.5" d="M1412.84 368.837H1273.77V427.807H1412.84V368.837Z" fill="white"/>
<path d="M1302.04 569.847H1267.48V615.139H1302.04V569.847Z" fill="#C7C7C7"/>
<path d="M1267.48 615.139H1273.33V569.847H1267.48V615.139Z" fill="#263238"/>
<path d="M1302.04 575.825V569.847H1267.48V575.825H1302.04Z" fill="#263238"/>
<path d="M1302.04 615.139H1267.48V617.924H1302.04V615.139Z" fill="white"/>
<path d="M1371.21 569.847H1336.65V615.139H1371.21V569.847Z" fill="#C7C7C7"/>
<path d="M1336.65 615.139H1342.51V569.847H1336.65V615.139Z" fill="#263238"/>
<path d="M1371.21 575.826V569.848H1336.65V575.826H1371.21Z" fill="#263238"/>
<path d="M1371.21 615.139H1336.65V617.924H1371.21V615.139Z" fill="white"/>
<path d="M1302.04 648.661H1267.48V693.953H1302.04V648.661Z" fill="#C7C7C7"/>
<path d="M1267.48 693.953H1273.33V648.661H1267.48V693.953Z" fill="#263238"/>
<path d="M1302.04 654.671V648.692H1267.48V654.671H1302.04Z" fill="#263238"/>
<path d="M1302.04 693.953H1267.48V696.738H1302.04V693.953Z" fill="white"/>
<path d="M1371.21 648.661H1336.65V693.953H1371.21V648.661Z" fill="#C7C7C7"/>
<path d="M1336.65 693.953H1342.51V648.661H1336.65V693.953Z" fill="#263238"/>
<path d="M1371.24 654.639V648.661H1336.68V654.639H1371.24Z" fill="#263238"/>
<path d="M1371.21 693.953H1336.65V696.738H1371.21V693.953Z" fill="white"/>
<path d="M1302.04 727.506H1267.48V772.798H1302.04V727.506Z" fill="#C7C7C7"/>
<path d="M1267.48 772.798H1273.33V727.506H1267.48V772.798Z" fill="#263238"/>
<path d="M1302.04 733.485V727.506H1267.48V733.485H1302.04Z" fill="#263238"/>
<path d="M1302.04 772.798H1267.48V775.584H1302.04V772.798Z" fill="white"/>
<path d="M1371.21 727.506H1336.65V772.798H1371.21V727.506Z" fill="#C7C7C7"/>
<path d="M1336.65 772.798H1342.51V727.506H1336.65V772.798Z" fill="#263238"/>
<path d="M1371.24 733.453V727.475H1336.68V733.453H1371.24Z" fill="#263238"/>
<path d="M1371.21 772.798H1336.65V775.584H1371.21V772.798Z" fill="white"/>
<path d="M1302.04 806.32H1267.48V851.612H1302.04V806.32Z" fill="#C7C7C7"/>
<path d="M1267.48 851.612H1273.33V806.32H1267.48V851.612Z" fill="#263238"/>
<path d="M1302.04 812.299V806.32H1267.48V812.299H1302.04Z" fill="#263238"/>
<path d="M1302.04 851.612H1267.48V854.398H1302.04V851.612Z" fill="white"/>
<path d="M1371.21 806.32H1336.65V851.612H1371.21V806.32Z" fill="#C7C7C7"/>
<path d="M1336.65 851.612H1342.51V806.32H1336.65V851.612Z" fill="#263238"/>
<path d="M1371.21 812.298V806.32H1336.65V812.298H1371.21Z" fill="#263238"/>
<path d="M1371.21 851.612H1336.65V854.398H1371.21V851.612Z" fill="white"/>
<path d="M1302.04 885.166H1267.48V930.457H1302.04V885.166Z" fill="#C7C7C7"/>
<path d="M1267.48 930.426H1273.33V885.134H1267.48V930.426Z" fill="#263238"/>
<path d="M1302.04 891.144V885.166H1267.48V891.144H1302.04Z" fill="#263238"/>
<path d="M1302.04 930.426H1267.48V933.212H1302.04V930.426Z" fill="white"/>
<path d="M1371.21 885.166H1336.65V930.457H1371.21V885.166Z" fill="#C7C7C7"/>
<path d="M1336.65 930.426H1342.51V885.134H1336.65V930.426Z" fill="#263238"/>
<path d="M1371.24 891.112V885.134H1336.68V891.112H1371.24Z" fill="#263238"/>
<path d="M1371.21 930.426H1336.65V933.212H1371.21V930.426Z" fill="white"/>
<path d="M1302.04 963.979H1267.48V1009.27H1302.04V963.979Z" fill="#C7C7C7"/>
<path d="M1267.48 1009.27H1273.33V963.98H1267.48V1009.27Z" fill="#263238"/>
<path d="M1302.04 969.957V963.979H1267.48V969.957H1302.04Z" fill="#263238"/>
<path d="M1302.04 1009.27H1267.48V1012.06H1302.04V1009.27Z" fill="white"/>
<path d="M1371.21 963.979H1336.65V1009.27H1371.21V963.979Z" fill="#C7C7C7"/>
<path d="M1336.65 1009.27H1342.51V963.98H1336.65V1009.27Z" fill="#263238"/>
<path d="M1371.21 969.958V963.979H1336.65V969.958H1371.21Z" fill="#263238"/>
<path d="M1371.21 1009.27H1336.65V1012.06H1371.21V1009.27Z" fill="white"/>
<path d="M1426.26 1028.77H1207.35V1043.54H1426.26V1028.77Z" fill="#37474F"/>
<path d="M1539.29 1028.77H1426.26V1043.54H1539.29V1028.77Z" fill="#455A64"/>
<path d="M1240.34 528.062H1232.02V1028.74H1240.34V528.062Z" fill="#37474F"/>
<path d="M1443.95 528.062H1439.79V1028.74H1443.95V528.062Z" fill="#455A64"/>
<path d="M1406.67 528.062H1398.35V1028.74H1406.67V528.062Z" fill="#37474F"/>
<path d="M544.423 297.848H408.175V1189.59H544.423V297.848Z" fill="#37474F"/>
<path d="M544.423 347.772H408.175V357.131H544.423V347.772Z" fill="#455A64"/>
<path d="M530.37 384.707H505.299V436.853H530.37V384.707Z" fill="#EBEBEB"/>
<path d="M530.338 384.706H526.113V436.852H530.338V384.706Z" fill="#263238"/>
<path d="M530.338 391.592V384.706H505.267V391.592H530.338Z" fill="#263238"/>
<path d="M505.299 436.853H530.37" stroke="white" stroke-width="0.75" stroke-miterlimit="10"/>
<path d="M488.835 384.707H463.764V436.853H488.835V384.707Z" fill="#EBEBEB"/>
<path d="M488.804 384.706H484.578V436.852H488.804V384.706Z" fill="#263238"/>
<path d="M488.804 391.592V384.706H463.733V391.592H488.804Z" fill="#263238"/>
<path d="M463.764 436.853H488.835" stroke="white" stroke-width="0.75" stroke-miterlimit="10"/>
<path d="M447.268 384.706H422.197V436.852H447.268V384.706Z" fill="#EBEBEB"/>
<path d="M447.269 384.707H443.044V436.853H447.269V384.707Z" fill="#263238"/>
<path d="M447.269 391.561V384.675H422.198V391.561H447.269Z" fill="#263238"/>
<path d="M422.197 436.853H447.268" stroke="white" stroke-width="0.75" stroke-miterlimit="10"/>
<path d="M530.37 450.5H505.299V502.646H530.37V450.5Z" fill="#EBEBEB"/>
<path d="M530.338 450.5H526.113V502.646H530.338V450.5Z" fill="#263238"/>
<path d="M530.368 457.385V450.5H505.297V457.385H530.368Z" fill="#263238"/>
<path d="M505.299 502.614H530.37" stroke="white" stroke-width="0.75" stroke-miterlimit="10"/>
<path d="M488.835 450.5H463.764V502.646H488.835V450.5Z" fill="#EBEBEB"/>
<path d="M488.804 450.5H484.578V502.646H488.804V450.5Z" fill="#263238"/>
<path d="M488.836 457.385V450.5H463.765V457.385H488.836Z" fill="#263238"/>
<path d="M463.764 502.614H488.835" stroke="white" stroke-width="0.75" stroke-miterlimit="10"/>
<path d="M447.268 450.5H422.197V502.646H447.268V450.5Z" fill="#EBEBEB"/>
<path d="M447.269 450.5H443.044V502.646H447.269V450.5Z" fill="#263238"/>
<path d="M447.3 457.355V450.468H422.228V457.355H447.3Z" fill="#263238"/>
<path d="M422.197 502.614H447.268" stroke="white" stroke-width="0.75" stroke-miterlimit="10"/>
<path d="M530.37 516.261H505.299V568.407H530.37V516.261Z" fill="#EBEBEB"/>
<path d="M530.338 516.261H526.113V568.407H530.338V516.261Z" fill="#263238"/>
<path d="M530.368 523.178V516.292H505.297V523.178H530.368Z" fill="#263238"/>
<path d="M505.299 568.407H530.37" stroke="white" stroke-width="0.75" stroke-miterlimit="10"/>
<path d="M488.835 516.261H463.764V568.407H488.835V516.261Z" fill="#EBEBEB"/>
<path d="M488.804 516.261H484.578V568.407H488.804V516.261Z" fill="#263238"/>
<path d="M488.836 523.178V516.292H463.765V523.178H488.836Z" fill="#263238"/>
<path d="M463.764 568.407H488.835" stroke="white" stroke-width="0.75" stroke-miterlimit="10"/>
<path d="M447.268 516.261H422.197V568.407H447.268V516.261Z" fill="#EBEBEB"/>
<path d="M447.269 516.261H443.044V568.407H447.269V516.261Z" fill="#263238"/>
<path d="M447.3 523.148V516.261H422.228V523.148H447.3Z" fill="#263238"/>
<path d="M422.197 568.407H447.268" stroke="white" stroke-width="0.75" stroke-miterlimit="10"/>
<path d="M530.37 582.054H505.299V634.2H530.37V582.054Z" fill="#EBEBEB"/>
<path d="M530.338 582.054H526.113V634.2H530.338V582.054Z" fill="#263238"/>
<path d="M530.368 588.94V582.054H505.297V588.94H530.368Z" fill="#263238"/>
<path d="M505.299 634.2H530.37" stroke="white" stroke-width="0.75" stroke-miterlimit="10"/>
<path d="M488.835 582.054H463.764V634.2H488.835V582.054Z" fill="#EBEBEB"/>
<path d="M488.804 582.054H484.578V634.2H488.804V582.054Z" fill="#263238"/>
<path d="M488.804 588.971V582.085H463.733V588.971H488.804Z" fill="#263238"/>
<path d="M463.764 634.2H488.835" stroke="white" stroke-width="0.75" stroke-miterlimit="10"/>
<path d="M447.268 582.054H422.197V634.2H447.268V582.054Z" fill="#EBEBEB"/>
<path d="M447.269 582.054H443.044V634.2H447.269V582.054Z" fill="#263238"/>
<path d="M447.269 588.94V582.054H422.198V588.94H447.269Z" fill="#263238"/>
<path d="M422.197 634.2H447.268" stroke="white" stroke-width="0.75" stroke-miterlimit="10"/>
<path d="M530.37 647.847H505.299V699.993H530.37V647.847Z" fill="#EBEBEB"/>
<path d="M530.338 647.847H526.113V699.993H530.338V647.847Z" fill="#263238"/>
<path d="M530.338 654.734V647.848H505.267V654.734H530.338Z" fill="#263238"/>
<path d="M505.299 699.993H530.37" stroke="white" stroke-width="0.75" stroke-miterlimit="10"/>
<path d="M488.835 647.847H463.764V699.993H488.835V647.847Z" fill="#EBEBEB"/>
<path d="M488.804 647.847H484.578V699.993H488.804V647.847Z" fill="#263238"/>
<path d="M488.804 654.733V647.847H463.733V654.733H488.804Z" fill="#263238"/>
<path d="M463.764 699.993H488.835" stroke="white" stroke-width="0.75" stroke-miterlimit="10"/>
<path d="M447.268 647.847H422.197V699.993H447.268V647.847Z" fill="#EBEBEB"/>
<path d="M447.269 647.847H443.044V699.993H447.269V647.847Z" fill="#263238"/>
<path d="M447.269 654.733V647.847H422.198V654.733H447.269Z" fill="#263238"/>
<path d="M422.197 699.993H447.268" stroke="white" stroke-width="0.75" stroke-miterlimit="10"/>
<path d="M530.37 713.641H505.299V765.787H530.37V713.641Z" fill="#EBEBEB"/>
<path d="M530.338 713.641H526.113V765.787H530.338V713.641Z" fill="#263238"/>
<path d="M530.368 720.527V713.641H505.297V720.527H530.368Z" fill="#263238"/>
<path d="M505.299 765.755H530.37" stroke="white" stroke-width="0.75" stroke-miterlimit="10"/>
<path d="M488.835 713.641H463.764V765.787H488.835V713.641Z" fill="#EBEBEB"/>
<path d="M488.804 713.641H484.578V765.787H488.804V713.641Z" fill="#263238"/>
<path d="M488.836 720.527V713.641H463.765V720.527H488.836Z" fill="#263238"/>
<path d="M463.764 765.755H488.835" stroke="white" stroke-width="0.75" stroke-miterlimit="10"/>
<path d="M447.268 713.641H422.197V765.787H447.268V713.641Z" fill="#EBEBEB"/>
<path d="M447.269 713.641H443.044V765.787H447.269V713.641Z" fill="#263238"/>
<path d="M447.3 720.495V713.609H422.228V720.495H447.3Z" fill="#263238"/>
<path d="M422.197 765.755H447.268" stroke="white" stroke-width="0.75" stroke-miterlimit="10"/>
<path d="M530.37 779.402H505.299V831.549H530.37V779.402Z" fill="#EBEBEB"/>
<path d="M530.338 779.402H526.113V831.549H530.338V779.402Z" fill="#263238"/>
<path d="M530.368 786.319V779.434H505.297V786.319H530.368Z" fill="#263238"/>
<path d="M505.299 831.548H530.37" stroke="white" stroke-width="0.75" stroke-miterlimit="10"/>
<path d="M488.835 779.402H463.764V831.549H488.835V779.402Z" fill="#EBEBEB"/>
<path d="M488.804 779.402H484.578V831.549H488.804V779.402Z" fill="#263238"/>
<path d="M488.836 786.319V779.434H463.765V786.319H488.836Z" fill="#263238"/>
<path d="M463.764 831.548H488.835" stroke="white" stroke-width="0.75" stroke-miterlimit="10"/>
<path d="M447.268 779.402H422.197V831.549H447.268V779.402Z" fill="#EBEBEB"/>
<path d="M447.269 779.402H443.044V831.549H447.269V779.402Z" fill="#263238"/>
<path d="M447.3 786.288V779.402H422.228V786.288H447.3Z" fill="#263238"/>
<path d="M422.197 831.548H447.268" stroke="white" stroke-width="0.75" stroke-miterlimit="10"/>
<path d="M530.37 845.195H505.299V897.341H530.37V845.195Z" fill="#EBEBEB"/>
<path d="M530.338 845.195H526.113V897.341H530.338V845.195Z" fill="#263238"/>
<path d="M530.368 852.081V845.195H505.297V852.081H530.368Z" fill="#263238"/>
<path d="M505.299 897.341H530.37" stroke="white" stroke-width="0.75" stroke-miterlimit="10"/>
<path d="M488.835 845.195H463.764V897.341H488.835V845.195Z" fill="#EBEBEB"/>
<path d="M488.804 845.195H484.578V897.341H488.804V845.195Z" fill="#263238"/>
<path d="M488.836 852.112V845.227H463.765V852.112H488.836Z" fill="#263238"/>
<path d="M463.764 897.341H488.835" stroke="white" stroke-width="0.75" stroke-miterlimit="10"/>
<path d="M447.268 845.195H422.197V897.341H447.268V845.195Z" fill="#EBEBEB"/>
<path d="M447.269 845.195H443.044V897.341H447.269V845.195Z" fill="#263238"/>
<path d="M447.269 852.082V845.195H422.198V852.082H447.269Z" fill="#263238"/>
<path d="M422.197 897.341H447.268" stroke="white" stroke-width="0.75" stroke-miterlimit="10"/>
<path d="M530.37 910.988H505.299V963.134H530.37V910.988Z" fill="#EBEBEB"/>
<path d="M530.338 910.988H526.113V963.134H530.338V910.988Z" fill="#263238"/>
<path d="M530.368 917.874V910.988H505.297V917.874H530.368Z" fill="#263238"/>
<path d="M505.299 963.134H530.37" stroke="white" stroke-width="0.75" stroke-miterlimit="10"/>
<path d="M488.835 910.988H463.764V963.134H488.835V910.988Z" fill="#EBEBEB"/>
<path d="M488.804 910.988H484.578V963.134H488.804V910.988Z" fill="#263238"/>
<path d="M488.804 917.874V910.988H463.733V917.874H488.804Z" fill="#263238"/>
<path d="M463.764 963.134H488.835" stroke="white" stroke-width="0.75" stroke-miterlimit="10"/>
<path d="M447.268 910.988H422.197V963.134H447.268V910.988Z" fill="#EBEBEB"/>
<path d="M447.269 910.988H443.044V963.134H447.269V910.988Z" fill="#263238"/>
<path d="M447.269 917.875V910.988H422.198V917.875H447.269Z" fill="#263238"/>
<path d="M422.197 963.134H447.268" stroke="white" stroke-width="0.75" stroke-miterlimit="10"/>
<path d="M530.37 976.781H505.299V1028.93H530.37V976.781Z" fill="#EBEBEB"/>
<path d="M530.338 976.781H526.113V1028.93H530.338V976.781Z" fill="#263238"/>
<path d="M530.368 983.667V976.781H505.297V983.667H530.368Z" fill="#263238"/>
<path d="M505.299 1028.9H530.37" stroke="white" stroke-width="0.75" stroke-miterlimit="10"/>
<path d="M488.835 976.781H463.764V1028.93H488.835V976.781Z" fill="#EBEBEB"/>
<path d="M488.804 976.781H484.578V1028.93H488.804V976.781Z" fill="#263238"/>
<path d="M488.836 983.667V976.781H463.765V983.667H488.836Z" fill="#263238"/>
<path d="M463.764 1028.9H488.835" stroke="white" stroke-width="0.75" stroke-miterlimit="10"/>
<path d="M447.268 976.781H422.197V1028.93H447.268V976.781Z" fill="#EBEBEB"/>
<path d="M447.269 976.781H443.044V1028.93H447.269V976.781Z" fill="#263238"/>
<path d="M447.3 983.636V976.75H422.228V983.636H447.3Z" fill="#263238"/>
<path d="M422.197 1028.9H447.268" stroke="white" stroke-width="0.75" stroke-miterlimit="10"/>
<path d="M530.37 1042.57H505.299V1094.72H530.37V1042.57Z" fill="#EBEBEB"/>
<path d="M530.338 1042.57H526.113V1094.72H530.338V1042.57Z" fill="#263238"/>
<path d="M530.368 1049.46V1042.57H505.297V1049.46H530.368Z" fill="#263238"/>
<path d="M505.299 1094.69H530.37" stroke="white" stroke-width="0.75" stroke-miterlimit="10"/>
<path d="M488.835 1042.57H463.764V1094.72H488.835V1042.57Z" fill="#EBEBEB"/>
<path d="M488.804 1042.57H484.578V1094.72H488.804V1042.57Z" fill="#263238"/>
<path d="M488.836 1049.46V1042.57H463.765V1049.46H488.836Z" fill="#263238"/>
<path d="M463.764 1094.69H488.835" stroke="white" stroke-width="0.75" stroke-miterlimit="10"/>
<path d="M447.268 1042.57H422.197V1094.72H447.268V1042.57Z" fill="#EBEBEB"/>
<path d="M447.269 1042.57H443.044V1094.72H447.269V1042.57Z" fill="#263238"/>
<path d="M447.3 1049.43V1042.54H422.228V1049.43H447.3Z" fill="#263238"/>
<path d="M422.197 1094.69H447.268" stroke="white" stroke-width="0.75" stroke-miterlimit="10"/>
<path d="M530.37 1108.34H505.299V1160.48H530.37V1108.34Z" fill="#EBEBEB"/>
<path d="M530.338 1108.34H526.113V1160.48H530.338V1108.34Z" fill="#263238"/>
<path d="M530.368 1115.25V1108.37H505.297V1115.25H530.368Z" fill="#263238"/>
<path d="M488.835 1108.34H463.764V1160.48H488.835V1108.34Z" fill="#EBEBEB"/>
<path d="M488.804 1108.34H484.578V1160.48H488.804V1108.34Z" fill="#263238"/>
<path d="M488.836 1115.25V1108.37H463.765V1115.25H488.836Z" fill="#263238"/>
<path d="M447.268 1108.34H422.197V1160.48H447.268V1108.34Z" fill="#EBEBEB"/>
<path d="M447.269 1108.34H443.044V1160.48H447.269V1108.34Z" fill="#263238"/>
<path d="M447.269 1115.22V1108.34H422.198V1115.22H447.269Z" fill="#263238"/>
<path d="M408.175 297.848H175.272V1189.59H408.175V297.848Z" fill="#455A64"/>
<path d="M408.175 347.772H175.272V357.131H408.175V347.772Z" fill="#37474F"/>
<path d="M408.176 247.737H258.281V297.848H408.176V247.737Z" fill="#37474F"/>
<path d="M408.175 297.848H478.599V247.736H408.175V297.848Z" fill="#263238"/>
<path d="M240.94 384.706H200.219V436.852H240.94V384.706Z" fill="#EBEBEB"/>
<path d="M200.22 436.853H207.105V384.706H200.22V436.853Z" fill="#263238"/>
<path d="M240.91 391.592V384.707H200.189V391.592H240.91Z" fill="#263238"/>
<path d="M240.94 436.853H200.219" stroke="white" stroke-width="0.75" stroke-miterlimit="10"/>
<path d="M308.392 384.707H267.67V436.853H308.392V384.707Z" fill="#EBEBEB"/>
<path d="M267.668 436.853H274.555V384.706H267.668V436.853Z" fill="#263238"/>
<path d="M308.36 391.592V384.706H267.639V391.592H308.36Z" fill="#263238"/>
<path d="M308.392 436.853H267.67" stroke="white" stroke-width="0.75" stroke-miterlimit="10"/>
<path d="M375.84 384.706H335.119V436.852H375.84V384.706Z" fill="#EBEBEB"/>
<path d="M335.09 436.853H341.976V384.706H335.09V436.853Z" fill="#263238"/>
<path d="M375.811 391.561V384.675H335.09V391.561H375.811Z" fill="#263238"/>
<path d="M375.809 436.853H335.119" stroke="white" stroke-width="0.75" stroke-miterlimit="10"/>
<path d="M240.94 450.5H200.219V502.646H240.94V450.5Z" fill="#EBEBEB"/>
<path d="M200.22 502.614H207.105V450.468H200.22V502.614Z" fill="#263238"/>
<path d="M240.91 457.385V450.5H200.189V457.385H240.91Z" fill="#263238"/>
<path d="M240.94 502.614H200.219" stroke="white" stroke-width="0.75" stroke-miterlimit="10"/>
<path d="M308.392 450.5H267.67V502.646H308.392V450.5Z" fill="#EBEBEB"/>
<path d="M267.668 502.614H274.555V450.468H267.668V502.614Z" fill="#263238"/>
<path d="M308.36 457.386V450.5H267.639V457.386H308.36Z" fill="#263238"/>
<path d="M308.392 502.614H267.67" stroke="white" stroke-width="0.75" stroke-miterlimit="10"/>
<path d="M375.84 450.5H335.119V502.646H375.84V450.5Z" fill="#EBEBEB"/>
<path d="M335.09 502.614H341.976V450.468H335.09V502.614Z" fill="#263238"/>
<path d="M375.811 457.354V450.468H335.09V457.354H375.811Z" fill="#263238"/>
<path d="M375.809 502.614H335.119" stroke="white" stroke-width="0.75" stroke-miterlimit="10"/>
<path d="M240.94 516.261H200.219V568.407H240.94V516.261Z" fill="#EBEBEB"/>
<path d="M200.22 568.407H207.105V516.261H200.22V568.407Z" fill="#263238"/>
<path d="M240.941 523.178V516.292H200.22V523.178H240.941Z" fill="#263238"/>
<path d="M240.94 568.407H200.219" stroke="white" stroke-width="0.75" stroke-miterlimit="10"/>
<path d="M308.392 516.261H267.67V568.407H308.392V516.261Z" fill="#EBEBEB"/>
<path d="M267.668 568.407H274.555V516.261H267.668V568.407Z" fill="#263238"/>
<path d="M308.392 523.179V516.292H267.671V523.179H308.392Z" fill="#263238"/>
<path d="M308.392 568.407H267.67" stroke="white" stroke-width="0.75" stroke-miterlimit="10"/>
<path d="M375.84 516.261H335.119V568.407H375.84V516.261Z" fill="#EBEBEB"/>
<path d="M335.09 568.407H341.976V516.261H335.09V568.407Z" fill="#263238"/>
<path d="M375.844 523.147V516.261H335.123V523.147H375.844Z" fill="#263238"/>
<path d="M375.809 568.407H335.119" stroke="white" stroke-width="0.75" stroke-miterlimit="10"/>
<path d="M240.94 582.054H200.219V634.2H240.94V582.054Z" fill="#EBEBEB"/>
<path d="M200.22 634.169H207.105V582.023H200.22V634.169Z" fill="#263238"/>
<path d="M240.941 588.94V582.054H200.22V588.94H240.941Z" fill="#263238"/>
<path d="M240.94 634.2H200.219" stroke="white" stroke-width="0.75" stroke-miterlimit="10"/>
<path d="M308.392 582.054H267.67V634.2H308.392V582.054Z" fill="#EBEBEB"/>
<path d="M267.668 634.169H274.555V582.023H267.668V634.169Z" fill="#263238"/>
<path d="M308.392 588.972V582.085H267.671V588.972H308.392Z" fill="#263238"/>
<path d="M308.392 634.2H267.67" stroke="white" stroke-width="0.75" stroke-miterlimit="10"/>
<path d="M375.84 582.054H335.119V634.2H375.84V582.054Z" fill="#EBEBEB"/>
<path d="M335.09 634.169H341.976V582.023H335.09V634.169Z" fill="#263238"/>
<path d="M375.811 588.94V582.054H335.09V588.94H375.811Z" fill="#263238"/>
<path d="M375.809 634.2H335.119" stroke="white" stroke-width="0.75" stroke-miterlimit="10"/>
<path d="M240.94 647.847H200.219V699.993H240.94V647.847Z" fill="#EBEBEB"/>
<path d="M200.22 699.993H207.105V647.847H200.22V699.993Z" fill="#263238"/>
<path d="M240.941 654.734V647.848H200.22V654.734H240.941Z" fill="#263238"/>
<path d="M240.94 699.993H200.219" stroke="white" stroke-width="0.75" stroke-miterlimit="10"/>
<path d="M308.392 647.847H267.67V699.993H308.392V647.847Z" fill="#EBEBEB"/>
<path d="M267.668 699.993H274.555V647.847H267.668V699.993Z" fill="#263238"/>
<path d="M308.36 654.733V647.847H267.639V654.733H308.36Z" fill="#263238"/>
<path d="M308.392 699.993H267.67" stroke="white" stroke-width="0.75" stroke-miterlimit="10"/>
<path d="M375.84 647.847H335.119V699.993H375.84V647.847Z" fill="#EBEBEB"/>
<path d="M335.09 699.993H341.976V647.847H335.09V699.993Z" fill="#263238"/>
<path d="M375.811 654.733V647.847H335.09V654.733H375.811Z" fill="#263238"/>
<path d="M375.809 699.993H335.119" stroke="white" stroke-width="0.75" stroke-miterlimit="10"/>
<path d="M240.94 713.641H200.219V765.787H240.94V713.641Z" fill="#EBEBEB"/>
<path d="M200.22 765.755H207.105V713.609H200.22V765.755Z" fill="#263238"/>
<path d="M240.91 720.527V713.641H200.189V720.527H240.91Z" fill="#263238"/>
<path d="M240.94 765.755H200.219" stroke="white" stroke-width="0.75" stroke-miterlimit="10"/>
<path d="M308.392 713.641H267.67V765.787H308.392V713.641Z" fill="#EBEBEB"/>
<path d="M267.668 765.755H274.555V713.609H267.668V765.755Z" fill="#263238"/>
<path d="M308.36 720.526V713.64H267.639V720.526H308.36Z" fill="#263238"/>
<path d="M308.392 765.755H267.67" stroke="white" stroke-width="0.75" stroke-miterlimit="10"/>
<path d="M375.84 713.641H335.119V765.787H375.84V713.641Z" fill="#EBEBEB"/>
<path d="M335.09 765.755H341.976V713.609H335.09V765.755Z" fill="#263238"/>
<path d="M375.811 720.495V713.609H335.09V720.495H375.811Z" fill="#263238"/>
<path d="M375.809 765.755H335.119" stroke="white" stroke-width="0.75" stroke-miterlimit="10"/>
<path d="M240.94 779.402H200.219V831.549H240.94V779.402Z" fill="#EBEBEB"/>
<path d="M200.22 831.548H207.105V779.402H200.22V831.548Z" fill="#263238"/>
<path d="M240.941 786.319V779.434H200.22V786.319H240.941Z" fill="#263238"/>
<path d="M240.94 831.548H200.219" stroke="white" stroke-width="0.75" stroke-miterlimit="10"/>
<path d="M308.392 779.402H267.67V831.549H308.392V779.402Z" fill="#EBEBEB"/>
<path d="M267.668 831.548H274.555V779.402H267.668V831.548Z" fill="#263238"/>
<path d="M308.392 786.32V779.434H267.671V786.32H308.392Z" fill="#263238"/>
<path d="M308.392 831.548H267.67" stroke="white" stroke-width="0.75" stroke-miterlimit="10"/>
<path d="M375.84 779.402H335.119V831.549H375.84V779.402Z" fill="#EBEBEB"/>
<path d="M335.09 831.548H341.976V779.402H335.09V831.548Z" fill="#263238"/>
<path d="M375.844 786.288V779.402H335.123V786.288H375.844Z" fill="#263238"/>
<path d="M375.809 831.548H335.119" stroke="white" stroke-width="0.75" stroke-miterlimit="10"/>
<path d="M240.94 845.195H200.219V897.341H240.94V845.195Z" fill="#EBEBEB"/>
<path d="M200.22 897.31H207.105V845.164H200.22V897.31Z" fill="#263238"/>
<path d="M240.941 852.081V845.195H200.22V852.081H240.941Z" fill="#263238"/>
<path d="M240.94 897.341H200.219" stroke="white" stroke-width="0.75" stroke-miterlimit="10"/>
<path d="M308.392 845.195H267.67V897.341H308.392V845.195Z" fill="#EBEBEB"/>
<path d="M267.668 897.31H274.555V845.164H267.668V897.31Z" fill="#263238"/>
<path d="M308.392 852.113V845.227H267.671V852.113H308.392Z" fill="#263238"/>
<path d="M308.392 897.341H267.67" stroke="white" stroke-width="0.75" stroke-miterlimit="10"/>
<path d="M375.84 845.195H335.119V897.341H375.84V845.195Z" fill="#EBEBEB"/>
<path d="M335.09 897.31H341.976V845.164H335.09V897.31Z" fill="#263238"/>
<path d="M375.811 852.081V845.195H335.09V852.081H375.811Z" fill="#263238"/>
<path d="M375.809 897.341H335.119" stroke="white" stroke-width="0.75" stroke-miterlimit="10"/>
<path d="M240.94 910.988H200.219V963.134H240.94V910.988Z" fill="#EBEBEB"/>
<path d="M200.22 963.134H207.105V910.988H200.22V963.134Z" fill="#263238"/>
<path d="M240.941 917.874V910.988H200.22V917.874H240.941Z" fill="#263238"/>
<path d="M240.94 963.134H200.219" stroke="white" stroke-width="0.75" stroke-miterlimit="10"/>
<path d="M308.392 910.988H267.67V963.134H308.392V910.988Z" fill="#EBEBEB"/>
<path d="M267.668 963.134H274.555V910.988H267.668V963.134Z" fill="#263238"/>
<path d="M308.36 917.875V910.988H267.639V917.875H308.36Z" fill="#263238"/>
<path d="M308.392 963.134H267.67" stroke="white" stroke-width="0.75" stroke-miterlimit="10"/>
<path d="M375.84 910.988H335.119V963.134H375.84V910.988Z" fill="#EBEBEB"/>
<path d="M335.09 963.134H341.976V910.988H335.09V963.134Z" fill="#263238"/>
<path d="M375.811 917.874V910.988H335.09V917.874H375.811Z" fill="#263238"/>
<path d="M375.809 963.134H335.119" stroke="white" stroke-width="0.75" stroke-miterlimit="10"/>
<path d="M240.94 976.781H200.219V1028.93H240.94V976.781Z" fill="#EBEBEB"/>
<path d="M200.22 1028.93H207.105V976.781H200.22V1028.93Z" fill="#263238"/>
<path d="M240.91 983.667V976.781H200.189V983.667H240.91Z" fill="#263238"/>
<path d="M240.94 1028.9H200.219" stroke="white" stroke-width="0.75" stroke-miterlimit="10"/>
<path d="M308.392 976.781H267.67V1028.93H308.392V976.781Z" fill="#EBEBEB"/>
<path d="M267.668 1028.93H274.555V976.781H267.668V1028.93Z" fill="#263238"/>
<path d="M308.36 983.668V976.781H267.639V983.668H308.36Z" fill="#263238"/>
<path d="M308.392 1028.9H267.67" stroke="white" stroke-width="0.75" stroke-miterlimit="10"/>
<path d="M375.84 976.781H335.119V1028.93H375.84V976.781Z" fill="#EBEBEB"/>
<path d="M335.09 1028.93H341.976V976.781H335.09V1028.93Z" fill="#263238"/>
<path d="M375.811 983.636V976.75H335.09V983.636H375.811Z" fill="#263238"/>
<path d="M375.809 1028.9H335.119" stroke="white" stroke-width="0.75" stroke-miterlimit="10"/>
<path d="M240.94 1042.57H200.219V1094.72H240.94V1042.57Z" fill="#EBEBEB"/>
<path d="M200.22 1094.69H207.105V1042.54H200.22V1094.69Z" fill="#263238"/>
<path d="M240.941 1049.46V1042.57H200.22V1049.46H240.941Z" fill="#263238"/>
<path d="M240.94 1094.69H200.219" stroke="white" stroke-width="0.75" stroke-miterlimit="10"/>
<path d="M308.392 1042.57H267.67V1094.72H308.392V1042.57Z" fill="#EBEBEB"/>
<path d="M267.668 1094.69H274.555V1042.54H267.668V1094.69Z" fill="#263238"/>
<path d="M308.392 1049.46V1042.57H267.671V1049.46H308.392Z" fill="#263238"/>
<path d="M308.392 1094.69H267.67" stroke="white" stroke-width="0.75" stroke-miterlimit="10"/>
<path d="M375.84 1042.57H335.119V1094.72H375.84V1042.57Z" fill="#EBEBEB"/>
<path d="M335.09 1094.69H341.976V1042.54H335.09V1094.69Z" fill="#263238"/>
<path d="M375.844 1049.43V1042.54H335.123V1049.43H375.844Z" fill="#263238"/>
<path d="M375.809 1094.69H335.119" stroke="white" stroke-width="0.75" stroke-miterlimit="10"/>
<path d="M240.94 1108.34H200.219V1160.48H240.94V1108.34Z" fill="#EBEBEB"/>
<path d="M200.22 1160.48H207.105V1108.34H200.22V1160.48Z" fill="#263238"/>
<path d="M240.941 1115.22V1108.34H200.22V1115.22H240.941Z" fill="#263238"/>
<path d="M308.392 1108.34H267.67V1160.48H308.392V1108.34Z" fill="#EBEBEB"/>
<path d="M267.668 1160.48H274.555V1108.34H267.668V1160.48Z" fill="#263238"/>
<path d="M308.392 1115.25V1108.37H267.671V1115.25H308.392Z" fill="#263238"/>
<path d="M375.84 1108.34H335.119V1160.48H375.84V1108.34Z" fill="#EBEBEB"/>
<path d="M335.09 1160.48H341.976V1108.34H335.09V1160.48Z" fill="#263238"/>
<path d="M375.811 1115.22V1108.34H335.09V1115.22H375.811Z" fill="#263238"/>
<path d="M61.5914 1189.56H-133.657V577.046L61.5914 450.5V1189.56Z" fill="#FFC727"/>
<path opacity="0.7" d="M61.5914 1189.56H-133.657V577.046L61.5914 450.5V1189.56Z" fill="white"/>
<path d="M36.4895 1189.56H-111.684V594.167L36.4895 498.138V1189.56Z" fill="#FFC727"/>
<path d="M36.4895 1189.56H-111.684V594.167L36.4895 498.138V1189.56Z" fill="#455A64"/>
<g opacity="0.1">
<path d="M36.4895 527.561V570.442L-111.684 718.617V675.736L36.4895 527.561Z" fill="white"/>
<path d="M36.4895 913.117V955.998L-111.684 1104.17V1061.29L36.4895 913.117Z" fill="white"/>
<path d="M36.4895 606.25V627.753L-111.684 775.897V754.456L36.4895 606.25Z" fill="white"/>
<path d="M36.4895 874.398V895.902L-111.684 1044.05V1022.6L36.4895 874.398Z" fill="white"/>
<path d="M36.4889 1094.91V1116.35L-36.7527 1189.59H-58.1931L36.4889 1094.91Z" fill="white"/>
<path d="M36.4895 784.348V789.637L-111.684 937.813V932.523L36.4895 784.348Z" fill="white"/>
</g>
<path d="M36.4894 604.465H-94.7195V609.192H36.4894V604.465Z" fill="#FFC727"/>
<path d="M36.4894 643.152H-94.7195V647.879H36.4894V643.152Z" fill="#FFC727"/>
<path d="M36.4894 681.871H-94.7195V686.597H36.4894V681.871Z" fill="#FFC727"/>
<path d="M36.4894 720.558H-94.7195V725.284H36.4894V720.558Z" fill="#FFC727"/>
<path d="M36.4894 759.245H-94.7195V763.971H36.4894V759.245Z" fill="#FFC727"/>
<path d="M36.4894 797.932H-94.7195V802.658H36.4894V797.932Z" fill="#FFC727"/>
<path d="M36.4894 836.619H-94.7195V841.346H36.4894V836.619Z" fill="#FFC727"/>
<path d="M36.4894 875.306H-94.7195V880.032H36.4894V875.306Z" fill="#FFC727"/>
<path d="M36.4894 913.993H-94.7195V918.72H36.4894V913.993Z" fill="#FFC727"/>
<path d="M36.4894 952.711H-94.7195V957.438H36.4894V952.711Z" fill="#FFC727"/>
<path d="M36.4894 991.398H-94.7195V996.125H36.4894V991.398Z" fill="#FFC727"/>
<path d="M36.4894 1030.09H-94.7195V1034.81H36.4894V1030.09Z" fill="#FFC727"/>
<path d="M36.4894 1068.77H-94.7195V1073.5H36.4894V1068.77Z" fill="#FFC727"/>
<path d="M36.4894 1107.46H-94.7195V1112.19H36.4894V1107.46Z" fill="#FFC727"/>
<path d="M36.4895 498.138V519.454L-94.7193 604.465V1189.56H-111.684V594.167L36.4895 498.138Z" fill="#FFC727"/>
<path opacity="0.1" d="M36.4895 498.138V519.454L-94.7193 604.465V1189.56H-111.684V594.167L36.4895 498.138Z" fill="black"/>
<path d="M233.616 450.5H61.592V1189.59H233.616V450.5Z" fill="#FFC727"/>
<path opacity="0.2" d="M233.616 450.5H61.592V1189.59H233.616V450.5Z" fill="white"/>
<path d="M216.901 498.138H78.2744V514.852H216.901V498.138Z" fill="#455A64"/>
<path d="M216.901 536.043H78.2744V552.757H216.901V536.043Z" fill="#455A64"/>
<path d="M216.901 573.916H78.2744V590.63H216.901V573.916Z" fill="#455A64"/>
<path d="M216.901 611.821H78.2744V628.535H216.901V611.821Z" fill="#455A64"/>
<path d="M216.901 649.725H78.2744V666.439H216.901V649.725Z" fill="#455A64"/>
<path d="M216.901 687.63H78.2744V704.344H216.901V687.63Z" fill="#455A64"/>
<path d="M216.901 725.534H78.2744V742.248H216.901V725.534Z" fill="#455A64"/>
<path d="M216.901 763.439H78.2744V780.153H216.901V763.439Z" fill="#455A64"/>
<path d="M216.901 801.344H78.2744V818.058H216.901V801.344Z" fill="#455A64"/>
<path d="M216.901 839.248H78.2744V855.962H216.901V839.248Z" fill="#455A64"/>
<path d="M216.901 877.153H78.2744V893.867H216.901V877.153Z" fill="#455A64"/>
<path d="M216.901 915.057H78.2744V931.771H216.901V915.057Z" fill="#455A64"/>
<path d="M216.901 952.931H78.2744V969.645H216.901V952.931Z" fill="#455A64"/>
<path d="M216.901 990.835H78.2744V1007.55H216.901V990.835Z" fill="#455A64"/>
<path d="M216.901 1028.74H78.2744V1045.45H216.901V1028.74Z" fill="#455A64"/>
<path d="M216.901 1066.64H78.2744V1083.36H216.901V1066.64Z" fill="#455A64"/>
<path d="M216.901 1104.55H78.2744V1121.26H216.901V1104.55Z" fill="#455A64"/>
<path d="M706.524 687.692H607.272V1189.56H706.524V687.692Z" fill="#FFC727"/>
<path opacity="0.2" d="M706.524 687.692H607.272V1189.56H706.524V687.692Z" fill="black"/>
<path d="M607.273 687.692H712.472V671.26H607.273V687.692Z" fill="#FFC727"/>
<path d="M607.273 671.229H696.478V645.562H607.273V671.229Z" fill="#FFC727"/>
<path opacity="0.2" d="M607.273 671.229H696.478V645.562H607.273V671.229Z" fill="black"/>
<path d="M607.272 645.594H675.506V588.972H607.272V645.594Z" fill="#FFC727"/>
<path opacity="0.3" d="M607.272 645.594H675.506V588.972H607.272V645.594Z" fill="black"/>
<path d="M630.246 706.723H616.787V759.495H630.246V706.723Z" fill="#455A64"/>
<path d="M630.278 706.723H627.711V759.495H630.278V706.723Z" fill="#37474F"/>
<path d="M630.279 711.981V706.723H616.82V711.981H630.279Z" fill="#37474F"/>
<path d="M630.246 758.024H616.787V759.526H630.246V758.024Z" fill="white"/>
<path d="M652.531 706.723H639.073V759.495H652.531V706.723Z" fill="#455A64"/>
<path d="M652.533 706.723H649.966V759.495H652.533V706.723Z" fill="#37474F"/>
<path d="M652.532 711.981V706.723H639.073V711.981H652.532Z" fill="#37474F"/>
<path d="M652.531 758.024H639.073V759.526H652.531V758.024Z" fill="white"/>
<path d="M674.786 706.723H661.327V759.495H674.786V706.723Z" fill="#455A64"/>
<path d="M674.788 706.723H672.221V759.495H674.788V706.723Z" fill="#37474F"/>
<path d="M674.787 711.981V706.723H661.328V711.981H674.787Z" fill="#37474F"/>
<path d="M674.786 758.024H661.327V759.526H674.786V758.024Z" fill="white"/>
<path d="M697.041 706.723H683.582V759.495H697.041V706.723Z" fill="#455A64"/>
<path d="M697.042 706.723H694.476V759.495H697.042V706.723Z" fill="#37474F"/>
<path d="M697.042 711.982V706.723H683.583V711.982H697.042Z" fill="#37474F"/>
<path d="M697.041 758.024H683.582V759.526H697.041V758.024Z" fill="white"/>
<path d="M630.246 778.62H616.787V831.392H630.246V778.62Z" fill="#455A64"/>
<path d="M630.278 778.62H627.711V831.392H630.278V778.62Z" fill="#37474F"/>
<path d="M630.249 783.878V778.62H616.79V783.878H630.249Z" fill="#37474F"/>
<path d="M630.246 829.921H616.787V831.423H630.246V829.921Z" fill="white"/>
<path d="M652.531 778.62H639.073V831.392H652.531V778.62Z" fill="#455A64"/>
<path d="M652.533 778.62H649.966V831.392H652.533V778.62Z" fill="#37474F"/>
<path d="M652.501 783.878V778.62H639.043V783.878H652.501Z" fill="#37474F"/>
<path d="M652.531 829.921H639.073V831.423H652.531V829.921Z" fill="white"/>
<path d="M674.786 778.62H661.327V831.392H674.786V778.62Z" fill="#455A64"/>
<path d="M674.788 778.62H672.221V831.392H674.788V778.62Z" fill="#37474F"/>
<path d="M674.754 783.878V778.62H661.295V783.878H674.754Z" fill="#37474F"/>
<path d="M674.786 829.921H661.327V831.423H674.786V829.921Z" fill="white"/>
<path d="M697.041 778.62H683.582V831.392H697.041V778.62Z" fill="#455A64"/>
<path d="M697.042 778.62H694.476V831.392H697.042V778.62Z" fill="#37474F"/>
<path d="M697.011 783.878V778.62H683.552V783.878H697.011Z" fill="#37474F"/>
<path d="M697.041 829.921H683.582V831.423H697.041V829.921Z" fill="white"/>
<path d="M630.246 850.547H616.787V903.319H630.246V850.547Z" fill="#455A64"/>
<path d="M630.278 850.548H627.711V903.32H630.278V850.548Z" fill="#37474F"/>
<path d="M630.279 855.806V850.548H616.82V855.806H630.279Z" fill="#37474F"/>
<path d="M630.246 901.849H616.787V903.351H630.246V901.849Z" fill="white"/>
<path d="M652.531 850.548H639.073V903.32H652.531V850.548Z" fill="#455A64"/>
<path d="M652.533 850.547H649.966V903.319H652.533V850.547Z" fill="#37474F"/>
<path d="M652.532 855.806V850.548H639.073V855.806H652.532Z" fill="#37474F"/>
<path d="M652.531 901.849H639.073V903.351H652.531V901.849Z" fill="white"/>
<path d="M674.786 850.548H661.327V903.32H674.786V850.548Z" fill="#455A64"/>
<path d="M674.788 850.547H672.221V903.319H674.788V850.547Z" fill="#37474F"/>
<path d="M674.787 855.806V850.548H661.328V855.806H674.787Z" fill="#37474F"/>
<path d="M674.786 901.849H661.327V903.351H674.786V901.849Z" fill="white"/>
<path d="M697.041 850.547H683.582V903.319H697.041V850.547Z" fill="#455A64"/>
<path d="M697.042 850.548H694.476V903.32H697.042V850.548Z" fill="#37474F"/>
<path d="M697.042 855.806V850.547H683.583V855.806H697.042Z" fill="#37474F"/>
<path d="M697.041 901.849H683.582V903.351H697.041V901.849Z" fill="white"/>
<path d="M630.246 922.476H616.787V975.248H630.246V922.476Z" fill="#455A64"/>
<path d="M630.278 922.476H627.711V975.248H630.278V922.476Z" fill="#37474F"/>
<path d="M630.249 927.734V922.476H616.79V927.734H630.249Z" fill="#37474F"/>
<path d="M630.246 973.745H616.787V975.248H630.246V973.745Z" fill="white"/>
<path d="M652.531 922.476H639.073V975.248H652.531V922.476Z" fill="#455A64"/>
<path d="M652.533 922.476H649.966V975.248H652.533V922.476Z" fill="#37474F"/>
<path d="M652.501 927.703V922.444H639.042V927.703H652.501Z" fill="#37474F"/>
<path d="M652.531 973.745H639.073V975.248H652.531V973.745Z" fill="white"/>
<path d="M674.786 922.476H661.327V975.248H674.786V922.476Z" fill="#455A64"/>
<path d="M674.788 922.476H672.221V975.248H674.788V922.476Z" fill="#37474F"/>
<path d="M674.754 927.703V922.444H661.295V927.703H674.754Z" fill="#37474F"/>
<path d="M674.786 973.745H661.327V975.248H674.786V973.745Z" fill="white"/>
<path d="M697.041 922.476H683.582V975.248H697.041V922.476Z" fill="#455A64"/>
<path d="M697.042 922.476H694.476V975.248H697.042V922.476Z" fill="#37474F"/>
<path d="M697.042 927.703V922.444H683.583V927.703H697.042Z" fill="#37474F"/>
<path d="M697.041 973.745H683.582V975.248H697.041V973.745Z" fill="white"/>
<path d="M630.246 994.372H616.787V1047.14H630.246V994.372Z" fill="#455A64"/>
<path d="M630.278 994.372H627.711V1047.14H630.278V994.372Z" fill="#37474F"/>
<path d="M630.279 999.63V994.372H616.82V999.63H630.279Z" fill="#37474F"/>
<path d="M630.246 1045.67H616.787V1047.18H630.246V1045.67Z" fill="white"/>
<path d="M652.531 994.372H639.073V1047.14H652.531V994.372Z" fill="#455A64"/>
<path d="M652.533 994.372H649.966V1047.14H652.533V994.372Z" fill="#37474F"/>
<path d="M652.532 999.63V994.372H639.073V999.63H652.532Z" fill="#37474F"/>
<path d="M652.531 1045.67H639.073V1047.18H652.531V1045.67Z" fill="white"/>
<path d="M674.786 994.372H661.327V1047.14H674.786V994.372Z" fill="#455A64"/>
<path d="M674.788 994.372H672.221V1047.14H674.788V994.372Z" fill="#37474F"/>
<path d="M674.787 999.63V994.372H661.328V999.63H674.787Z" fill="#37474F"/>
<path d="M674.786 1045.67H661.327V1047.18H674.786V1045.67Z" fill="white"/>
<path d="M697.041 994.372H683.582V1047.14H697.041V994.372Z" fill="#455A64"/>
<path d="M697.042 994.372H694.476V1047.14H697.042V994.372Z" fill="#37474F"/>
<path d="M697.042 999.631V994.372H683.583V999.631H697.042Z" fill="#37474F"/>
<path d="M697.041 1045.67H683.582V1047.18H697.041V1045.67Z" fill="white"/>
<path d="M630.246 1066.3H616.787V1119.07H630.246V1066.3Z" fill="#455A64"/>
<path d="M630.278 1066.3H627.711V1119.07H630.278V1066.3Z" fill="#37474F"/>
<path d="M630.249 1071.56V1066.3H616.79V1071.56H630.249Z" fill="#37474F"/>
<path d="M630.246 1117.6H616.787V1119.1H630.246V1117.6Z" fill="white"/>
<path d="M652.531 1066.3H639.073V1119.07H652.531V1066.3Z" fill="#455A64"/>
<path d="M652.533 1066.3H649.966V1119.07H652.533V1066.3Z" fill="#37474F"/>
<path d="M652.532 1071.56V1066.3H639.073V1071.56H652.532Z" fill="#37474F"/>
<path d="M652.531 1117.6H639.073V1119.1H652.531V1117.6Z" fill="white"/>
<path d="M674.786 1066.3H661.327V1119.07H674.786V1066.3Z" fill="#455A64"/>
<path d="M674.788 1066.3H672.221V1119.07H674.788V1066.3Z" fill="#37474F"/>
<path d="M674.787 1071.56V1066.3H661.328V1071.56H674.787Z" fill="#37474F"/>
<path d="M674.786 1117.6H661.327V1119.1H674.786V1117.6Z" fill="white"/>
<path d="M697.041 1066.3H683.582V1119.07H697.041V1066.3Z" fill="#455A64"/>
<path d="M697.042 1066.3H694.476V1119.07H697.042V1066.3Z" fill="#37474F"/>
<path d="M697.042 1071.53V1066.27H683.583V1071.53H697.042Z" fill="#37474F"/>
<path d="M697.041 1117.6H683.582V1119.1H697.041V1117.6Z" fill="white"/>
<path d="M607.493 764.754H709.218V759.495H607.493V764.754Z" fill="#FFC727"/>
<path d="M607.493 836.682H709.218V831.423H607.493V836.682Z" fill="#FFC727"/>
<path d="M607.493 908.578H709.218V903.32H607.493V908.578Z" fill="#FFC727"/>
<path d="M607.493 980.506H709.218V975.247H607.493V980.506Z" fill="#FFC727"/>
<path d="M607.493 1052.4H709.218V1047.14H607.493V1052.4Z" fill="#FFC727"/>
<path d="M607.493 1124.3H709.218V1119.04H607.493V1124.3Z" fill="#FFC727"/>
<path d="M607.273 687.692H403.793V1189.56H607.273V687.692Z" fill="#FFC727"/>
<path d="M607.304 645.562H413.558V671.229H607.304V645.562Z" fill="#FFC727"/>
<path d="M607.274 588.94H461.511V645.563H607.274V588.94Z" fill="#FFC727"/>
<path opacity="0.2" d="M607.274 588.94H461.511V645.563H607.274V588.94Z" fill="black"/>
<path d="M607.305 671.26H397.721V687.692H607.305V671.26Z" fill="#FFC727"/>
<path opacity="0.2" d="M607.305 671.26H397.721V687.692H607.305V671.26Z" fill="black"/>
<path d="M560.23 759.526H587.836V706.754H560.23V759.526Z" fill="#455A64"/>
<path d="M560.198 759.526H565.456V706.754H560.198V759.526Z" fill="#37474F"/>
<path d="M587.836 711.982V706.723H560.23V711.982H587.836Z" fill="#37474F"/>
<path d="M560.23 759.495H587.836V757.993H560.23V759.495Z" fill="white"/>
<path d="M514.594 759.526H542.2V706.754H514.594V759.526Z" fill="#455A64"/>
<path d="M514.563 759.526H519.822V706.754H514.563V759.526Z" fill="#37474F"/>
<path d="M542.17 711.981V706.723H514.563V711.981H542.17Z" fill="#37474F"/>
<path d="M514.594 759.495H542.2V757.993H514.594V759.495Z" fill="white"/>
<path d="M468.929 759.526H496.536V706.754H468.929V759.526Z" fill="#455A64"/>
<path d="M468.896 759.526H474.155V706.754H468.896V759.526Z" fill="#37474F"/>
<path d="M496.536 711.981V706.723H468.929V711.981H496.536Z" fill="#37474F"/>
<path d="M468.929 759.495H496.536V757.993H468.929V759.495Z" fill="white"/>
<path d="M423.293 759.526H450.899V706.754H423.293V759.526Z" fill="#455A64"/>
<path d="M423.262 759.526H428.521V706.754H423.262V759.526Z" fill="#37474F"/>
<path d="M450.866 711.982V706.723H423.26V711.982H450.866Z" fill="#37474F"/>
<path d="M423.293 759.495H450.899V757.993H423.293V759.495Z" fill="white"/>
<path d="M560.23 831.423H587.836V778.651H560.23V831.423Z" fill="#455A64"/>
<path d="M560.198 831.423H565.456V778.651H560.198V831.423Z" fill="#37474F"/>
<path d="M587.836 783.878V778.62H560.23V783.878H587.836Z" fill="#37474F"/>
<path d="M560.23 831.423H587.836V829.921H560.23V831.423Z" fill="white"/>
<path d="M514.594 831.423H542.2V778.651H514.594V831.423Z" fill="#455A64"/>
<path d="M514.563 831.423H519.822V778.651H514.563V831.423Z" fill="#37474F"/>
<path d="M542.2 783.909V778.651H514.594V783.909H542.2Z" fill="#37474F"/>
<path d="M514.594 831.423H542.2V829.921H514.594V831.423Z" fill="white"/>
<path d="M468.929 831.423H496.536V778.651H468.929V831.423Z" fill="#455A64"/>
<path d="M468.896 831.423H474.155V778.651H468.896V831.423Z" fill="#37474F"/>
<path d="M496.536 783.878V778.62H468.929V783.878H496.536Z" fill="#37474F"/>
<path d="M468.929 831.423H496.536V829.921H468.929V831.423Z" fill="white"/>
<path d="M423.293 831.423H450.899V778.651H423.293V831.423Z" fill="#455A64"/>
<path d="M423.262 831.423H428.521V778.651H423.262V831.423Z" fill="#37474F"/>
<path d="M450.899 783.909V778.651H423.292V783.909H450.899Z" fill="#37474F"/>
<path d="M423.293 831.423H450.899V829.921H423.293V831.423Z" fill="white"/>
<path d="M560.23 903.351H587.836V850.579H560.23V903.351Z" fill="#455A64"/>
<path d="M560.198 903.351H565.456V850.579H560.198V903.351Z" fill="#37474F"/>
<path d="M587.836 855.806V850.547H560.23V855.806H587.836Z" fill="#37474F"/>
<path d="M560.23 903.351H587.836V901.849H560.23V903.351Z" fill="white"/>
<path d="M514.594 903.351H542.2V850.579H514.594V903.351Z" fill="#455A64"/>
<path d="M514.563 903.351H519.822V850.579H514.563V903.351Z" fill="#37474F"/>
<path d="M542.17 855.806V850.548H514.563V855.806H542.17Z" fill="#37474F"/>
<path d="M514.594 903.351H542.2V901.849H514.594V903.351Z" fill="white"/>
<path d="M468.929 903.351H496.536V850.579H468.929V903.351Z" fill="#455A64"/>
<path d="M468.896 903.351H474.155V850.579H468.896V903.351Z" fill="#37474F"/>
<path d="M496.536 855.806V850.548H468.929V855.806H496.536Z" fill="#37474F"/>
<path d="M468.929 903.351H496.536V901.849H468.929V903.351Z" fill="white"/>
<path d="M423.293 903.351H450.899V850.579H423.293V903.351Z" fill="#455A64"/>
<path d="M423.262 903.351H428.521V850.579H423.262V903.351Z" fill="#37474F"/>
<path d="M450.866 855.806V850.547H423.26V855.806H450.866Z" fill="#37474F"/>
<path d="M423.293 903.351H450.899V901.849H423.293V903.351Z" fill="white"/>
<path d="M560.23 975.248H587.836V922.475H560.23V975.248Z" fill="#455A64"/>
<path d="M560.198 975.248H565.456V922.475H560.198V975.248Z" fill="#37474F"/>
<path d="M587.806 927.703V922.444H560.2V927.703H587.806Z" fill="#37474F"/>
<path d="M560.23 975.248H587.836V973.745H560.23V975.248Z" fill="white"/>
<path d="M514.594 975.248H542.2V922.475H514.594V975.248Z" fill="#455A64"/>
<path d="M514.563 975.248H519.822V922.475H514.563V975.248Z" fill="#37474F"/>
<path d="M542.17 927.734V922.476H514.563V927.734H542.17Z" fill="#37474F"/>
<path d="M514.594 975.248H542.2V973.745H514.594V975.248Z" fill="white"/>
<path d="M468.929 975.248H496.536V922.475H468.929V975.248Z" fill="#455A64"/>
<path d="M468.896 975.248H474.155V922.475H468.896V975.248Z" fill="#37474F"/>
<path d="M496.503 927.703V922.444H468.896V927.703H496.503Z" fill="#37474F"/>
<path d="M468.929 975.248H496.536V973.745H468.929V975.248Z" fill="white"/>
<path d="M423.293 975.248H450.899V922.475H423.293V975.248Z" fill="#455A64"/>
<path d="M423.262 975.248H428.521V922.475H423.262V975.248Z" fill="#37474F"/>
<path d="M450.866 927.734V922.476H423.26V927.734H450.866Z" fill="#37474F"/>
<path d="M423.293 975.248H450.899V973.745H423.293V975.248Z" fill="white"/>
<path d="M560.23 1047.14H587.836V994.372H560.23V1047.14Z" fill="#455A64"/>
<path d="M560.198 1047.14H565.456V994.372H560.198V1047.14Z" fill="#37474F"/>
<path d="M587.836 999.631V994.372H560.23V999.631H587.836Z" fill="#37474F"/>
<path d="M560.23 1047.18H587.836V1045.67H560.23V1047.18Z" fill="white"/>
<path d="M514.594 1047.14H542.2V994.372H514.594V1047.14Z" fill="#455A64"/>
<path d="M514.563 1047.14H519.822V994.372H514.563V1047.14Z" fill="#37474F"/>
<path d="M542.2 999.63V994.372H514.594V999.63H542.2Z" fill="#37474F"/>
<path d="M514.594 1047.18H542.2V1045.67H514.594V1047.18Z" fill="white"/>
<path d="M468.929 1047.14H496.536V994.372H468.929V1047.14Z" fill="#455A64"/>
<path d="M468.896 1047.14H474.155V994.372H468.896V1047.14Z" fill="#37474F"/>
<path d="M496.536 999.63V994.372H468.929V999.63H496.536Z" fill="#37474F"/>
<path d="M468.929 1047.18H496.536V1045.67H468.929V1047.18Z" fill="white"/>
<path d="M423.293 1047.14H450.899V994.372H423.293V1047.14Z" fill="#455A64"/>
<path d="M423.262 1047.14H428.521V994.372H423.262V1047.14Z" fill="#37474F"/>
<path d="M450.899 999.631V994.372H423.292V999.631H450.899Z" fill="#37474F"/>
<path d="M423.293 1047.18H450.899V1045.67H423.293V1047.18Z" fill="white"/>
<path d="M560.23 1119.07H587.836V1066.3H560.23V1119.07Z" fill="#455A64"/>
<path d="M560.198 1119.07H565.456V1066.3H560.198V1119.07Z" fill="#37474F"/>
<path d="M587.836 1071.56V1066.3H560.23V1071.56H587.836Z" fill="#37474F"/>
<path d="M560.23 1119.07H587.836V1117.57H560.23V1119.07Z" fill="white"/>
<path d="M514.594 1119.07H542.2V1066.3H514.594V1119.07Z" fill="#455A64"/>
<path d="M514.563 1119.07H519.822V1066.3H514.563V1119.07Z" fill="#37474F"/>
<path d="M542.17 1071.56V1066.3H514.563V1071.56H542.17Z" fill="#37474F"/>
<path d="M514.594 1119.07H542.2V1117.57H514.594V1119.07Z" fill="white"/>
<path d="M468.929 1119.07H496.536V1066.3H468.929V1119.07Z" fill="#455A64"/>
<path d="M468.896 1119.07H474.155V1066.3H468.896V1119.07Z" fill="#37474F"/>
<path d="M496.536 1071.56V1066.3H468.929V1071.56H496.536Z" fill="#37474F"/>
<path d="M468.929 1119.07H496.536V1117.57H468.929V1119.07Z" fill="white"/>
<path d="M423.293 1119.07H450.899V1066.3H423.293V1119.07Z" fill="#455A64"/>
<path d="M423.262 1119.07H428.521V1066.3H423.262V1119.07Z" fill="#37474F"/>
<path d="M450.866 1071.56V1066.3H423.26V1071.56H450.866Z" fill="#37474F"/>
<path d="M423.293 1119.07H450.899V1117.57H423.293V1119.07Z" fill="white"/>
<path d="M607.462 759.495H400.164V764.754H607.462V759.495Z" fill="#FFC727"/>
<path opacity="0.1" d="M607.462 759.495H400.164V764.754H607.462V759.495Z" fill="black"/>
<path d="M607.462 831.455H400.164V836.713H607.462V831.455Z" fill="#FFC727"/>
<path opacity="0.1" d="M607.462 831.455H400.164V836.713H607.462V831.455Z" fill="black"/>
<path d="M607.462 903.32H400.164V908.578H607.462V903.32Z" fill="#FFC727"/>
<path opacity="0.1" d="M607.462 903.32H400.164V908.578H607.462V903.32Z" fill="black"/>
<path d="M607.462 975.248H400.164V980.506H607.462V975.248Z" fill="#FFC727"/>
<path opacity="0.1" d="M607.462 975.248H400.164V980.506H607.462V975.248Z" fill="black"/>
<path d="M607.462 1047.18H400.164V1052.43H607.462V1047.18Z" fill="#FFC727"/>
<path opacity="0.1" d="M607.462 1047.18H400.164V1052.43H607.462V1047.18Z" fill="black"/>
<path d="M607.462 1119.07H400.164V1124.33H607.462V1119.07Z" fill="#FFC727"/>
<path opacity="0.1" d="M607.462 1119.07H400.164V1124.33H607.462V1119.07Z" fill="black"/>
<path d="M910.194 903.382H810.942V1189.56H910.194V903.382Z" fill="#FFC727"/>
<path opacity="0.2" d="M910.194 903.382H810.942V1189.56H910.194V903.382Z" fill="black"/>
<path d="M810.972 903.382H916.17V886.95H810.972V903.382Z" fill="#FFC727"/>
<path d="M810.941 886.918H900.146V861.252H810.941V886.918Z" fill="#FFC727"/>
<path opacity="0.2" d="M810.941 886.918H900.146V861.252H810.941V886.918Z" fill="black"/>
<path d="M833.916 922.476H820.457V975.248H833.916V922.476Z" fill="#455A64"/>
<path d="M833.945 922.476H831.379V975.248H833.945V922.476Z" fill="#37474F"/>
<path d="M833.916 927.734V922.476H820.457V927.734H833.916Z" fill="#37474F"/>
<path d="M833.916 973.745H820.457V975.248H833.916V973.745Z" fill="white"/>
<path d="M856.169 922.476H842.71V975.248H856.169V922.476Z" fill="#455A64"/>
<path d="M856.2 922.476H853.634V975.248H856.2V922.476Z" fill="#37474F"/>
<path d="M856.169 927.734V922.476H842.71V927.734H856.169Z" fill="#37474F"/>
<path d="M856.169 973.745H842.71V975.248H856.169V973.745Z" fill="white"/>
<path d="M878.424 922.476H864.965V975.248H878.424V922.476Z" fill="#455A64"/>
<path d="M878.455 922.476H875.888V975.248H878.455V922.476Z" fill="#37474F"/>
<path d="M878.424 927.734V922.475H864.965V927.734H878.424Z" fill="#37474F"/>
<path d="M878.424 973.745H864.965V975.248H878.424V973.745Z" fill="white"/>
<path d="M900.679 922.476H887.22V975.248H900.679V922.476Z" fill="#455A64"/>
<path d="M900.71 922.476H898.143V975.248H900.71V922.476Z" fill="#37474F"/>
<path d="M900.679 927.734V922.475H887.22V927.734H900.679Z" fill="#37474F"/>
<path d="M900.679 973.745H887.22V975.248H900.679V973.745Z" fill="white"/>
<path d="M833.916 994.372H820.457V1047.14H833.916V994.372Z" fill="#455A64"/>
<path d="M833.945 994.372H831.379V1047.14H833.945V994.372Z" fill="#37474F"/>
<path d="M833.947 999.631V994.372H820.488V999.631H833.947Z" fill="#37474F"/>
<path d="M833.916 1045.67H820.457V1047.18H833.916V1045.67Z" fill="white"/>
<path d="M856.169 994.372H842.71V1047.14H856.169V994.372Z" fill="#455A64"/>
<path d="M856.2 994.372H853.634V1047.14H856.2V994.372Z" fill="#37474F"/>
<path d="M856.199 999.631V994.372H842.74V999.631H856.199Z" fill="#37474F"/>
<path d="M856.169 1045.67H842.71V1047.18H856.169V1045.67Z" fill="white"/>
<path d="M878.424 994.372H864.965V1047.14H878.424V994.372Z" fill="#455A64"/>
<path d="M878.455 994.372H875.888V1047.14H878.455V994.372Z" fill="#37474F"/>
<path d="M878.454 999.631V994.372H864.995V999.631H878.454Z" fill="#37474F"/>
<path d="M878.424 1045.67H864.965V1047.18H878.424V1045.67Z" fill="white"/>
<path d="M900.679 994.372H887.22V1047.14H900.679V994.372Z" fill="#455A64"/>
<path d="M900.71 994.372H898.143V1047.14H900.71V994.372Z" fill="#37474F"/>
<path d="M900.709 999.631V994.372H887.25V999.631H900.709Z" fill="#37474F"/>
<path d="M900.679 1045.67H887.22V1047.18H900.679V1045.67Z" fill="white"/>
<path d="M833.916 1066.3H820.457V1119.07H833.916V1066.3Z" fill="#455A64"/>
<path d="M833.945 1066.3H831.379V1119.07H833.945V1066.3Z" fill="#37474F"/>
<path d="M833.916 1071.56V1066.3H820.457V1071.56H833.916Z" fill="#37474F"/>
<path d="M833.916 1117.6H820.457V1119.1H833.916V1117.6Z" fill="white"/>
<path d="M856.169 1066.3H842.71V1119.07H856.169V1066.3Z" fill="#455A64"/>
<path d="M856.2 1066.3H853.634V1119.07H856.2V1066.3Z" fill="#37474F"/>
<path d="M856.169 1071.56V1066.3H842.71V1071.56H856.169Z" fill="#37474F"/>
<path d="M856.169 1117.6H842.71V1119.1H856.169V1117.6Z" fill="white"/>
<path d="M878.424 1066.3H864.965V1119.07H878.424V1066.3Z" fill="#455A64"/>
<path d="M878.455 1066.3H875.888V1119.07H878.455V1066.3Z" fill="#37474F"/>
<path d="M878.424 1071.56V1066.3H864.965V1071.56H878.424Z" fill="#37474F"/>
<path d="M878.424 1117.6H864.965V1119.1H878.424V1117.6Z" fill="white"/>
<path d="M900.679 1066.3H887.22V1119.07H900.679V1066.3Z" fill="#455A64"/>
<path d="M900.71 1066.3H898.143V1119.07H900.71V1066.3Z" fill="#37474F"/>
<path d="M900.679 1071.56V1066.3H887.22V1071.56H900.679Z" fill="#37474F"/>
<path d="M900.679 1117.6H887.22V1119.1H900.679V1117.6Z" fill="white"/>
<path d="M914.607 975.248H810.942V980.506H914.607V975.248Z" fill="#FFC727"/>
<path d="M914.607 1047.18H810.942V1052.43H914.607V1047.18Z" fill="#FFC727"/>
<path d="M914.607 1119.07H810.942V1124.33H914.607V1119.07Z" fill="#FFC727"/>
<path d="M810.941 903.382H607.461V1189.56H810.941V903.382Z" fill="#FFC727"/>
<path d="M810.941 861.252H617.195V886.918H810.941V861.252Z" fill="#FFC727"/>
<path d="M810.973 886.95H601.389V903.382H810.973V886.95Z" fill="#FFC727"/>
<path opacity="0.2" d="M810.973 886.95H601.389V903.382H810.973V886.95Z" fill="black"/>
<path d="M763.897 975.248H791.504V922.475H763.897V975.248Z" fill="#455A64"/>
<path d="M763.865 975.248H769.124V922.475H763.865V975.248Z" fill="#37474F"/>
<path d="M791.474 927.734V922.476H763.867V927.734H791.474Z" fill="#37474F"/>
<path d="M763.897 975.248H791.504V973.745H763.897V975.248Z" fill="white"/>
<path d="M718.231 975.248H745.837V922.475H718.231V975.248Z" fill="#455A64"/>
<path d="M718.201 975.248H723.459V922.475H718.201V975.248Z" fill="#37474F"/>
<path d="M745.837 927.703V922.444H718.231V927.703H745.837Z" fill="#37474F"/>
<path d="M718.231 975.248H745.837V973.745H718.231V975.248Z" fill="white"/>
<path d="M672.597 975.248H700.203V922.475H672.597V975.248Z" fill="#455A64"/>
<path d="M672.564 975.248H677.823V922.475H672.564V975.248Z" fill="#37474F"/>
<path d="M700.17 927.734V922.476H672.564V927.734H700.17Z" fill="#37474F"/>
<path d="M672.597 975.248H700.203V973.745H672.597V975.248Z" fill="white"/>
<path d="M626.929 975.248H654.536V922.475H626.929V975.248Z" fill="#455A64"/>
<path d="M626.897 975.248H632.156V922.475H626.897V975.248Z" fill="#37474F"/>
<path d="M654.536 927.703V922.444H626.93V927.703H654.536Z" fill="#37474F"/>
<path d="M626.929 975.248H654.536V973.745H626.929V975.248Z" fill="white"/>
<path d="M763.897 1047.14H791.504V994.372H763.897V1047.14Z" fill="#455A64"/>
<path d="M763.865 1047.14H769.124V994.372H763.865V1047.14Z" fill="#37474F"/>
<path d="M791.504 999.63V994.372H763.897V999.63H791.504Z" fill="#37474F"/>
<path d="M763.897 1047.18H791.504V1045.67H763.897V1047.18Z" fill="white"/>
<path d="M718.231 1047.14H745.837V994.372H718.231V1047.14Z" fill="#455A64"/>
<path d="M718.201 1047.14H723.459V994.372H718.201V1047.14Z" fill="#37474F"/>
<path d="M745.837 999.631V994.372H718.231V999.631H745.837Z" fill="#37474F"/>
<path d="M718.231 1047.18H745.837V1045.67H718.231V1047.18Z" fill="white"/>
<path d="M672.597 1047.14H700.203V994.372H672.597V1047.14Z" fill="#455A64"/>
<path d="M672.564 1047.14H677.823V994.372H672.564V1047.14Z" fill="#37474F"/>
<path d="M700.203 999.631V994.372H672.597V999.631H700.203Z" fill="#37474F"/>
<path d="M672.597 1047.18H700.203V1045.67H672.597V1047.18Z" fill="white"/>
<path d="M626.929 1047.14H654.536V994.372H626.929V1047.14Z" fill="#455A64"/>
<path d="M626.897 1047.14H632.156V994.372H626.897V1047.14Z" fill="#37474F"/>
<path d="M654.536 999.63V994.372H626.93V999.63H654.536Z" fill="#37474F"/>
<path d="M626.929 1047.18H654.536V1045.67H626.929V1047.18Z" fill="white"/>
<path d="M763.897 1119.07H791.504V1066.3H763.897V1119.07Z" fill="#455A64"/>
<path d="M763.865 1119.07H769.124V1066.3H763.865V1119.07Z" fill="#37474F"/>
<path d="M791.474 1071.56V1066.3H763.867V1071.56H791.474Z" fill="#37474F"/>
<path d="M763.897 1119.07H791.504V1117.57H763.897V1119.07Z" fill="white"/>
<path d="M718.231 1119.07H745.837V1066.3H718.231V1119.07Z" fill="#455A64"/>
<path d="M718.201 1119.07H723.459V1066.3H718.201V1119.07Z" fill="#37474F"/>
<path d="M745.837 1071.53V1066.27H718.231V1071.53H745.837Z" fill="#37474F"/>
<path d="M718.231 1119.07H745.837V1117.57H718.231V1119.07Z" fill="white"/>
<path d="M672.597 1119.07H700.203V1066.3H672.597V1119.07Z" fill="#455A64"/>
<path d="M672.564 1119.07H677.823V1066.3H672.564V1119.07Z" fill="#37474F"/>
<path d="M700.17 1071.56V1066.3H672.564V1071.56H700.17Z" fill="#37474F"/>
<path d="M672.597 1119.07H700.203V1117.57H672.597V1119.07Z" fill="white"/>
<path d="M626.929 1119.07H654.536V1066.3H626.929V1119.07Z" fill="#455A64"/>
<path d="M626.897 1119.07H632.156V1066.3H626.897V1119.07Z" fill="#37474F"/>
<path d="M654.536 1071.53V1066.27H626.93V1071.53H654.536Z" fill="#37474F"/>
<path d="M626.929 1119.07H654.536V1117.57H626.929V1119.07Z" fill="white"/>
<path d="M814.76 975.248H607.461V980.506H814.76V975.248Z" fill="#FFC727"/>
<path opacity="0.1" d="M814.76 975.248H607.461V980.506H814.76V975.248Z" fill="black"/>
<path d="M814.76 1047.18H607.461V1052.43H814.76V1047.18Z" fill="#FFC727"/>
<path opacity="0.1" d="M814.76 1047.18H607.461V1052.43H814.76V1047.18Z" fill="black"/>
<path d="M814.76 1119.07H607.461V1124.33H814.76V1119.07Z" fill="#FFC727"/>
<path opacity="0.1" d="M814.76 1119.07H607.461V1124.33H814.76V1119.07Z" fill="black"/>
<path d="M44.5329 989.677H-179.198V1189.59H44.5329V989.677Z" fill="#455A64"/>
<path d="M95.1453 989.677H44.5334V1189.59H95.1453V989.677Z" fill="#37474F"/>
<path d="M48.039 989.708H-182.735V994.34H48.039V989.708Z" fill="#455A64"/>
<path d="M30.042 969.019H-164.737V989.677H30.042V969.019Z" fill="#37474F"/>
<path d="M5.87824 972.712H2.31006V986.203H5.87824V972.712Z" fill="#455A64"/>
<path d="M15.3934 972.712H11.8252V986.203H15.3934V972.712Z" fill="#455A64"/>
<path d="M24.9388 972.712H21.3706V986.203H24.9388V972.712Z" fill="#455A64"/>
<path d="M87.7279 969.019H29.8545V989.677H87.7279V969.019Z" fill="#263238"/>
<path d="M35.4245 972.712H33.1396V986.203H35.4245V972.712Z" fill="#37474F"/>
<path d="M41.4963 972.712H39.2114V986.203H41.4963V972.712Z" fill="#37474F"/>
<path d="M47.6018 972.712H45.3169V986.203H47.6018V972.712Z" fill="#37474F"/>
<path d="M53.7038 972.712H51.4189V986.203H53.7038V972.712Z" fill="#37474F"/>
<path d="M59.7768 972.712H57.4919V986.203H59.7768V972.712Z" fill="#37474F"/>
<path d="M65.8798 972.712H63.595V986.203H65.8798V972.712Z" fill="#37474F"/>
<path d="M71.9521 972.712H69.6672V986.203H71.9521V972.712Z" fill="#37474F"/>
<path d="M78.0557 972.712H75.7708V986.203H78.0557V972.712Z" fill="#37474F"/>
<path d="M84.1284 972.712H81.8435V986.203H84.1284V972.712Z" fill="#37474F"/>
<path d="M21.9031 1013.09H2.99805V1045.86H21.9031V1013.09Z" fill="#C7C7C7"/>
<path d="M2.96653 1045.83H8.81958L8.81958 1013.06H2.96653L2.96653 1045.83Z" fill="#263238"/>
<path d="M21.9026 1019.07V1013.09H2.99746V1019.07H21.9026Z" fill="#263238"/>
<path d="M21.9031 1045.83H2.99805V1048.62H21.9031V1045.83Z" fill="white"/>
<path d="M21.9031 1065.61H2.99805V1098.38H21.9031V1065.61Z" fill="#C7C7C7"/>
<path d="M2.96653 1098.38H8.81958L8.81958 1065.61H2.96653L2.96653 1098.38Z" fill="#263238"/>
<path d="M21.9026 1071.59V1065.61H2.99746V1071.59H21.9026Z" fill="#263238"/>
<path d="M21.9031 1098.38H2.99805V1101.17H21.9031V1098.38Z" fill="white"/>
<path d="M79.2772 1013.09H60.3721V1045.86H79.2772V1013.09Z" fill="#C7C7C7"/>
<path d="M60.3708 1045.83H66.2239V1013.06H60.3708L60.3708 1045.83Z" fill="#263238"/>
<path d="M79.3081 1019.04V1013.06H60.403V1019.04H79.3081Z" fill="#263238"/>
<path d="M79.2772 1045.83H60.3721V1048.62H79.2772V1045.83Z" fill="white"/>
<path d="M79.2772 1065.61H60.3721V1098.38H79.2772V1065.61Z" fill="#C7C7C7"/>
<path d="M60.3708 1098.38H66.2239V1065.61H60.3708L60.3708 1098.38Z" fill="#263238"/>
<path d="M79.3081 1071.59V1065.61H60.403V1071.59H79.3081Z" fill="#263238"/>
<path d="M79.2772 1098.38H60.3721V1101.17H79.2772V1098.38Z" fill="white"/>
<path d="M1214.11 786.414H966.563V1189.56H1214.11V786.414Z" fill="#FFC727"/>
<path opacity="0.5" d="M1214.11 786.414H966.563V1189.56H1214.11V786.414Z" fill="white"/>
<path d="M989.444 786.414H966.563V1189.56H989.444V786.414Z" fill="#FFC727"/>
<path opacity="0.6" d="M989.444 786.414H966.563V1189.56H989.444V786.414Z" fill="white"/>
<path d="M1214.08 786.414H1191.2V1189.56H1214.08V786.414Z" fill="#FFC727"/>
<path opacity="0.6" d="M1214.08 786.414H1191.2V1189.56H1214.08V786.414Z" fill="white"/>
<path opacity="0.5" d="M1186.91 1189.56H1191.2V786.414H1182.22L1186.91 1189.56Z" fill="#FFC727"/>
<path opacity="0.5" d="M993.764 1189.56H989.444V786.414H998.427L993.764 1189.56Z" fill="#FFC727"/>
<path d="M989.475 873.303H1191.23V867.982H989.475V873.303Z" fill="white"/>
<path opacity="0.5" d="M989.444 873.271H1191.2V877.121L989.444 875.181V873.271Z" fill="#FFC727"/>
<path opacity="0.5" d="M989.444 944.824H1191.2V948.642L989.444 946.733V944.824Z" fill="#FFC727"/>
<path opacity="0.5" d="M989.444 1016.38H1191.2V1020.19L989.444 1018.29V1016.38Z" fill="#FFC727"/>
<path d="M989.475 944.824H1191.23V939.503H989.475V944.824Z" fill="white"/>
<path opacity="0.5" d="M989.444 1016.34H1191.2V1020.19L989.444 1018.29V1016.34Z" fill="#FFC727"/>
<path d="M989.475 1016.34H1191.23V1011.02H989.475V1016.34Z" fill="white"/>
<path opacity="0.5" d="M989.444 1087.9H1191.2V1091.75L989.444 1089.81V1087.9Z" fill="#FFC727"/>
<path opacity="0.5" d="M989.444 1087.9H1191.2V1091.72L989.444 1089.81V1087.9Z" fill="#FFC727"/>
<path d="M989.475 1087.9H1191.23V1082.58H989.475V1087.9Z" fill="white"/>
<path d="M1051.48 1189.56H1130.95V1115.03H1051.48V1189.56Z" fill="white"/>
<path d="M1093.26 1189.53H1130.95V1119.92H1093.26V1189.53Z" fill="#37474F"/>
<path d="M1051.51 1189.53H1089.2V1119.92H1051.51V1189.53Z" fill="#37474F"/>
<path d="M1130.95 1189.56H1143.09V1115.03H1130.95V1189.56Z" fill="white"/>
<path d="M1149.42 1115V1102.86H1031.23V1115H1149.42Z" fill="white"/>
<path d="M1039.34 1189.56H1051.48V1115.03H1039.34V1189.56Z" fill="white"/>
<path d="M1143.1 1115.03V1117.1L1039.34 1117.85V1115.03H1143.1Z" fill="#EBEBEB"/>
<path d="M1139.68 857.903H1171.77V811.766H1139.68V857.903Z" fill="#455A64"/>
<path d="M1139.68 857.903H1145.79V811.766H1139.68V857.903Z" fill="#263238"/>
<path d="M1171.8 816.368V811.766H1139.71V816.368H1171.8Z" fill="#263238"/>
<path d="M1139.68 857.903H1171.77V856.589H1139.68V857.903Z" fill="white"/>
<path d="M1096.02 857.903H1128.1V811.766H1096.02V857.903Z" fill="#455A64"/>
<path d="M1095.99 857.903H1102.09V811.766H1095.99V857.903Z" fill="#263238"/>
<path d="M1128.1 816.399V811.798H1096.02V816.399H1128.1Z" fill="#263238"/>
<path d="M1096.02 857.903H1128.1V856.589H1096.02V857.903Z" fill="white"/>
<path d="M1052.3 857.903H1084.38V811.766H1052.3V857.903Z" fill="#455A64"/>
<path d="M1052.26 857.903H1058.37V811.766H1052.26V857.903Z" fill="#263238"/>
<path d="M1084.38 816.368V811.767H1052.3V816.368H1084.38Z" fill="#263238"/>
<path d="M1052.3 857.903H1084.38V856.589H1052.3V857.903Z" fill="white"/>
<path d="M1008.6 857.903H1040.68V811.766H1008.6V857.903Z" fill="#455A64"/>
<path d="M1008.57 857.903H1014.67V811.766H1008.57V857.903Z" fill="#263238"/>
<path d="M1040.68 816.399V811.798H1008.6V816.399H1040.68Z" fill="#263238"/>
<path d="M1008.6 857.903H1040.68V856.589H1008.6V857.903Z" fill="white"/>
<path d="M1139.68 929.455H1171.77V883.319H1139.68V929.455Z" fill="#455A64"/>
<path d="M1139.68 929.455H1145.79V883.319H1139.68V929.455Z" fill="#263238"/>
<path d="M1171.8 887.92V883.318H1139.71V887.92H1171.8Z" fill="#263238"/>
<path d="M1139.68 929.424H1171.77V928.109H1139.68V929.424Z" fill="white"/>
<path d="M1096.02 929.455H1128.1V883.319H1096.02V929.455Z" fill="#455A64"/>
<path d="M1095.99 929.455H1102.09V883.319H1095.99V929.455Z" fill="#263238"/>
<path d="M1128.07 887.92V883.319H1095.99V887.92H1128.07Z" fill="#263238"/>
<path d="M1096.02 929.424H1128.1V928.109H1096.02V929.424Z" fill="white"/>
<path d="M1052.3 929.455H1084.38V883.319H1052.3V929.455Z" fill="#455A64"/>
<path d="M1052.26 929.455H1058.37V883.319H1052.26V929.455Z" fill="#263238"/>
<path d="M1084.38 887.92V883.319H1052.3V887.92H1084.38Z" fill="#263238"/>
<path d="M1052.3 929.424H1084.38V928.109H1052.3V929.424Z" fill="white"/>
<path d="M1008.6 929.455H1040.68V883.319H1008.6V929.455Z" fill="#455A64"/>
<path d="M1008.57 929.455H1014.67V883.319H1008.57V929.455Z" fill="#263238"/>
<path d="M1040.65 887.92V883.319H1008.57V887.92H1040.65Z" fill="#263238"/>
<path d="M1008.6 929.424H1040.68V928.109H1008.6V929.424Z" fill="white"/>
<path d="M1139.68 1001.01H1171.77V954.871H1139.68V1001.01Z" fill="#455A64"/>
<path d="M1139.68 1001.01H1145.79V954.871H1139.68V1001.01Z" fill="#263238"/>
<path d="M1171.8 959.473V954.871H1139.71V959.473H1171.8Z" fill="#263238"/>
<path d="M1139.68 1001.01H1171.77V999.693H1139.68V1001.01Z" fill="white"/>
<path d="M1096.02 1001.01H1128.1V954.871H1096.02V1001.01Z" fill="#455A64"/>
<path d="M1095.99 1001.01H1102.09V954.871H1095.99V1001.01Z" fill="#263238"/>
<path d="M1128.07 959.472V954.871H1095.99V959.472H1128.07Z" fill="#263238"/>
<path d="M1096.02 1001.01H1128.1V999.693H1096.02V1001.01Z" fill="white"/>
<path d="M1052.3 1001.01H1084.38V954.871H1052.3V1001.01Z" fill="#455A64"/>
<path d="M1052.26 1001.01H1058.37V954.871H1052.26V1001.01Z" fill="#263238"/>
<path d="M1084.38 959.472V954.871H1052.3V959.472H1084.38Z" fill="#263238"/>
<path d="M1052.3 1001.01H1084.38V999.693H1052.3V1001.01Z" fill="white"/>
<path d="M1008.6 1001.01H1040.68V954.871H1008.6V1001.01Z" fill="#455A64"/>
<path d="M1008.57 1001.01H1014.67V954.871H1008.57V1001.01Z" fill="#263238"/>
<path d="M1040.65 959.473V954.872H1008.57V959.473H1040.65Z" fill="#263238"/>
<path d="M1008.6 1001.01H1040.68V999.693H1008.6V1001.01Z" fill="white"/>
<path d="M1139.68 1072.53H1171.77V1026.39H1139.68V1072.53Z" fill="#455A64"/>
<path d="M1139.68 1072.53H1145.79V1026.39H1139.68V1072.53Z" fill="#263238"/>
<path d="M1171.77 1031.02V1026.42H1139.68V1031.02H1171.77Z" fill="#263238"/>
<path d="M1139.68 1072.56H1171.77V1071.25H1139.68V1072.56Z" fill="white"/>
<path d="M1096.02 1072.53H1128.1V1026.39H1096.02V1072.53Z" fill="#455A64"/>
<path d="M1095.99 1072.53H1102.09V1026.39H1095.99V1072.53Z" fill="#263238"/>
<path d="M1128.07 1031.02V1026.42H1095.99V1031.02H1128.07Z" fill="#263238"/>
<path d="M1096.02 1072.56H1128.1V1071.25H1096.02V1072.56Z" fill="white"/>
<path d="M1052.3 1072.53H1084.38V1026.39H1052.3V1072.53Z" fill="#455A64"/>
<path d="M1052.26 1072.53H1058.37V1026.39H1052.26V1072.53Z" fill="#263238"/>
<path d="M1084.34 1030.99V1026.39H1052.26V1030.99H1084.34Z" fill="#263238"/>
<path d="M1052.3 1072.56H1084.38V1071.25H1052.3V1072.56Z" fill="white"/>
<path d="M1008.6 1072.53H1040.68V1026.39H1008.6V1072.53Z" fill="#455A64"/>
<path d="M1008.57 1072.53H1014.67V1026.39H1008.57V1072.53Z" fill="#263238"/>
<path d="M1040.65 1031.02V1026.42H1008.57V1031.02H1040.65Z" fill="#263238"/>
<path d="M1008.6 1072.56H1040.68V1071.25H1008.6V1072.56Z" fill="white"/>
<path d="M1182.22 752.265H998.429V786.413H1182.22V752.265Z" fill="#FFC727"/>
<path opacity="0.5" d="M1182.22 752.265H998.429V786.413H1182.22V752.265Z" fill="white"/>
<path d="M1265.7 752.265H1182.22V786.413H1265.7V752.265Z" fill="#FFC727"/>
<path opacity="0.2" d="M1265.7 752.265H1182.22V786.413H1265.7V752.265Z" fill="white"/>
<path d="M1190.83 743.501H989.789V752.265H1190.83V743.501Z" fill="#FFC727"/>
<path d="M1273.18 743.501H1190.86V752.265H1273.18V743.501Z" fill="#FFC727"/>
<path opacity="0.1" d="M1273.18 743.501H1190.86V752.265H1273.18V743.501Z" fill="black"/>
<path d="M1281.47 786.414H1214.08V1189.56H1281.47V786.414Z" fill="#FFC727"/>
<path opacity="0.3" d="M1281.47 786.414H1214.08V1189.56H1281.47V786.414Z" fill="white"/>
<path d="M1257.84 811.767H1238.28V857.903H1257.84V811.767Z" fill="#455A64"/>
<path d="M1257.84 811.767H1254.11V857.903H1257.84V811.767Z" fill="#263238"/>
<path d="M1257.84 816.368V811.767H1238.28V816.368H1257.84Z" fill="#263238"/>
<path d="M1257.84 856.588H1238.28V857.903H1257.84V856.588Z" fill="white"/>
<path d="M1257.84 883.319H1238.28V929.455H1257.84V883.319Z" fill="#455A64"/>
<path d="M1257.84 883.319H1254.11V929.455H1257.84V883.319Z" fill="#263238"/>
<path d="M1257.84 887.92V883.319H1238.28V887.92H1257.84Z" fill="#263238"/>
<path d="M1257.84 928.141H1238.28V929.455H1257.84V928.141Z" fill="white"/>
<path d="M1257.84 954.871H1238.28V1001.01H1257.84V954.871Z" fill="#455A64"/>
<path d="M1257.84 954.871H1254.11V1001.01H1257.84V954.871Z" fill="#263238"/>
<path d="M1257.84 959.473V954.872H1238.28V959.473H1257.84Z" fill="#263238"/>
<path d="M1257.84 999.693H1238.28V1001.01H1257.84V999.693Z" fill="white"/>
<path d="M1257.84 1026.42H1238.28V1072.56H1257.84V1026.42Z" fill="#455A64"/>
<path d="M1257.84 1026.42H1254.11V1072.56H1257.84V1026.42Z" fill="#263238"/>
<path d="M1257.81 1030.99V1026.39H1238.25V1030.99H1257.81Z" fill="#263238"/>
<path d="M1257.84 1071.25H1238.28V1072.56H1257.84V1071.25Z" fill="white"/>
<path d="M1281.47 867.95H1214.08V873.271H1281.47V867.95Z" fill="white"/>
<path opacity="0.5" d="M1281.5 873.271H1214.08V877.121L1281.5 875.181V873.271Z" fill="#FFC727"/>
<path opacity="0.5" d="M1281.5 944.824H1214.08V948.642L1281.5 946.733V944.824Z" fill="#FFC727"/>
<path opacity="0.5" d="M1281.5 1016.38H1214.08V1020.19L1281.5 1018.29V1016.38Z" fill="#FFC727"/>
<path d="M1281.47 939.503H1214.08V944.824H1281.47V939.503Z" fill="white"/>
<path opacity="0.5" d="M1281.5 1016.34H1214.08V1020.19L1281.5 1018.29V1016.34Z" fill="#FFC727"/>
<path d="M1281.47 1011.02H1214.08V1016.35H1281.47V1011.02Z" fill="white"/>
<path opacity="0.5" d="M1281.5 1087.9H1214.08V1091.75L1281.5 1089.81V1087.9Z" fill="#FFC727"/>
<path opacity="0.5" d="M1281.5 1087.9H1214.08V1091.72L1281.5 1089.81V1087.9Z" fill="#FFC727"/>
<path d="M1281.47 1082.58H1214.08V1087.9H1281.47V1082.58Z" fill="white"/>
<path d="M1501.64 880.815H1422.51V937.437H1501.64V880.815Z" fill="#FFC727"/>
<path opacity="0.1" d="M1501.64 880.815H1422.51V937.437H1501.64V880.815Z" fill="black"/>
<path d="M1520.07 937.437H1392.15V1189.59H1520.07V937.437Z" fill="#FFC727"/>
<path opacity="0.2" d="M1520.07 937.437H1392.15V953.306H1520.07V937.437Z" fill="white"/>
<path opacity="0.2" d="M1520.07 1007.27H1392.15V1023.14H1520.07V1007.27Z" fill="white"/>
<path d="M1430.21 967.36H1406.45V991.117H1430.21V967.36Z" fill="#455A64"/>
<path d="M1409.96 967.36H1406.45V991.117H1409.96V967.36Z" fill="#37474F"/>
<path d="M1406.42 967.391V970.897H1430.18V967.391H1406.42Z" fill="#37474F"/>
<path d="M1403.26 991.117V996.375H1433.37V991.117H1403.26Z" fill="white"/>
<path opacity="0.2" d="M1520.07 1073.09H1392.15V1088.96H1520.07V1073.09Z" fill="white"/>
<path d="M1430.21 1033.18H1406.45V1056.94H1430.21V1033.18Z" fill="#455A64"/>
<path d="M1409.96 1033.18H1406.45V1056.94H1409.96V1033.18Z" fill="#37474F"/>
<path d="M1406.42 1033.18V1036.69H1430.18V1033.18H1406.42Z" fill="#37474F"/>
<path d="M1403.26 1056.94V1062.2H1433.37V1056.94H1403.26Z" fill="white"/>
<path d="M1430.21 1099.01H1406.45V1122.77H1430.21V1099.01Z" fill="#455A64"/>
<path d="M1409.96 1099.01H1406.45V1122.77H1409.96V1099.01Z" fill="#37474F"/>
<path d="M1406.45 1099.01V1102.51H1430.21V1099.01H1406.45Z" fill="#37474F"/>
<path d="M1403.26 1122.73V1127.99H1433.37V1122.73H1403.26Z" fill="white"/>
</svg>
