<svg width="115" height="110" viewBox="0 0 115 110" fill="none" xmlns="http://www.w3.org/2000/svg">
<g id="Frame" clip-path="url(#clip0_3123_7396)">
<g id="Group">
<path id="Vector" d="M57.5 109.966C42.0568 109.966 26.6472 109.966 11.2039 109.966C8.57958 109.966 6.12346 109.397 4.03745 107.722C1.44675 105.679 0 103.033 0 99.7167C0 79.7867 0 59.8232 0 39.8263C0 36.3427 1.54769 33.5961 4.34026 31.6198C16.5535 22.8439 28.8005 14.068 41.0474 5.32566C50.9055 -1.70845 63.8253 -1.77544 73.6834 5.22517C85.964 13.9341 98.1773 22.7434 110.391 31.4858C113.486 33.6965 114.966 36.7447 114.966 40.4962C114.966 59.9907 114.966 79.5187 114.933 99.0132C114.933 104.44 111.804 108.493 106.791 109.665C105.748 109.899 104.637 109.966 103.527 109.966C88.2183 110 72.8759 109.966 57.5 109.966Z" fill="#1C2040"/>
<path id="Vector_2" d="M23.0133 61.0959C21.6338 55.7031 21.6002 50.2768 22.8787 44.8505C25.4357 34.0649 31.7611 26.1264 41.6192 21.102C54.9428 14.3024 71.3954 16.9151 82.0946 27.3322C90.1359 35.1702 93.5677 44.75 92.8275 55.8371C92.7266 57.6124 92.4911 59.4212 91.8518 61.1294C91.2798 62.3688 90.1022 63.0052 89.1602 63.8761C85.9638 66.7902 82.8012 69.7044 79.0665 71.9486C78.259 72.4175 77.4515 72.8195 76.6777 73.3219C75.2982 74.1928 74.0534 74.1258 72.7412 73.0539C71.0253 71.6136 69.1075 70.5083 67.0215 69.6709C63.8252 68.3645 60.4943 67.7616 57.0624 67.7281C55.8848 67.7281 54.7409 67.9626 53.5633 68.0966C53.0586 68.1635 52.5539 68.331 52.1838 67.7951C52.2511 67.3262 52.6549 67.2257 52.9913 67.1252C54.2026 66.7567 55.0774 65.9863 55.9858 65.1154C61.7728 59.6221 67.5934 54.1623 73.3468 48.602C74.6253 47.3962 75.9039 46.1903 77.1824 44.9845C78.4273 43.8456 79.403 42.6063 79.7394 40.9315C79.9413 40.4291 79.9413 39.9601 79.7394 39.4577C79.0665 37.18 77.8553 35.4717 75.3319 34.9358C73.7169 34.6008 72.3038 34.9358 71.0589 35.9072C69.4776 37.1465 67.9299 38.4528 66.6177 39.9601C65.7766 40.9315 64.6999 41.7019 63.7579 42.6063C60.9989 45.3195 58.1054 47.8316 55.4475 50.6118C54.4381 51.6502 53.2605 52.454 52.2848 53.4924C51.8137 53.9949 51.3091 54.0283 50.7034 53.6264C50.0978 53.191 49.5259 52.6885 48.9875 52.1526C47.3726 50.5783 45.8249 48.937 44.0417 47.4967C41.8547 45.7214 38.692 45.8554 36.7406 47.8986C34.7219 49.9754 34.6209 53.0235 36.5051 55.1672C37.8845 56.7415 39.3649 58.2153 41.0136 59.5216C42.5276 60.7275 43.6379 62.3353 45.1183 63.5746C46.1277 64.412 47.1034 65.2159 48.0118 66.1873C48.7184 66.9577 49.8287 67.0247 50.7371 67.3931C51.1072 67.6276 51.881 67.4601 51.881 67.9626C51.881 68.5655 51.1408 68.4985 50.7034 68.6325C47.4398 69.6039 44.4454 71.0777 41.8547 73.2549C40.9126 74.0588 40.0042 74.0588 38.9612 73.5229C35.7649 71.9821 32.8041 70.0728 30.1461 67.7281C27.9928 65.8188 25.7722 63.9431 23.6862 61.9333C23.4507 61.6989 23.1815 61.4309 23.0133 61.0959Z" fill="#679F42"/>
<path id="Vector_3" d="M106.622 107.655C73.7508 107.655 41.182 107.655 8.24316 107.655C10.6993 105.478 12.8526 103.501 15.0395 101.592C23.35 94.1896 31.6604 86.8206 39.9708 79.418C43.9073 75.901 48.3485 73.4893 53.5972 72.7189C60.73 71.6805 67.2909 73.2883 72.9096 77.8437C79.6387 83.27 85.8968 89.2658 92.3567 94.9601C96.7642 98.8456 101.138 102.765 105.512 106.684C105.848 106.918 106.118 107.186 106.622 107.655Z" fill="#FABF2A"/>
<path id="Vector_4" d="M2.52334 37.4481C2.96073 35.7398 3.97009 34.4335 5.34955 33.4286C17.8656 24.4518 30.3144 15.3744 42.8978 6.53154C51.7466 0.334826 63.657 0.5358 72.4721 6.7995C84.7527 15.5419 96.966 24.3178 109.213 33.1272C110.962 34.4 112.275 35.9743 112.611 38.185C112.039 39.1229 111.097 39.7258 110.323 40.4627C105.613 44.6497 100.869 48.8367 96.1922 53.0571C95.923 53.2916 95.6202 53.6935 95.2501 53.5261C94.8463 53.3586 95.0819 52.8561 95.0482 52.4877C94.9809 51.8178 95.1492 51.1479 94.9473 50.5114C93.5678 33.3951 82.3975 20.2313 65.844 16.2118C46.1951 11.4889 25.4359 24.3513 20.961 43.9798C20.2545 47.1284 19.918 50.3105 19.918 53.5596C19.1105 53.5931 18.6395 52.9566 18.1685 52.5212C14.6693 49.3056 11.0356 46.224 7.50286 43.0084C6.22433 41.8695 4.97945 40.6972 3.66728 39.5918C2.99437 39.0559 2.11959 38.5535 2.52334 37.4481Z" fill="#E88C0A"/>
<path id="Vector_5" d="M2.08585 47.2959C4.81112 49.7076 7.40182 52.0188 9.99252 54.33C17.1253 60.6942 24.2582 67.0584 31.4246 73.3891C33.5107 75.2313 35.8995 76.6382 38.4902 78.0115C37.178 79.1838 35.9668 80.2892 34.7219 81.3946C25.503 89.601 16.2842 97.774 7.09901 106.014C6.32517 106.717 5.85413 106.65 5.11393 106.014C3.19614 104.339 2.0522 102.329 2.0522 99.7837C2.01855 82.5334 2.01855 65.2496 2.01855 47.9658C2.01855 47.7983 2.0522 47.6644 2.08585 47.2959Z" fill="#F9A823"/>
<path id="Vector_6" d="M112.645 47.4297C112.981 47.9991 112.847 48.4011 112.847 48.803C112.847 65.4839 112.847 82.1983 112.88 98.8791C112.88 101.927 111.871 104.406 109.415 106.282C108.944 106.65 108.607 106.65 108.136 106.248C97.7063 96.9364 87.2762 87.6581 76.8462 78.3797C76.7116 78.2793 76.6443 78.1453 76.4761 77.9778C82.8687 74.7957 87.68 69.7043 92.8614 65.1154C99.4559 59.2872 106.017 53.3919 112.645 47.4297Z" fill="#F9A823"/>
<path id="Vector_7" d="M52.2515 67.6614C53.3281 68.1638 54.4048 67.6614 55.4142 67.5609C59.3843 67.0584 63.1189 67.8958 66.8199 69.2357C69.2088 70.1065 71.3284 71.4464 73.2462 73.0542C74.121 73.7911 74.9958 73.8246 76.0388 73.2551C79.8744 71.2454 83.3398 68.7332 86.5025 65.8191C88.2521 64.2113 90.0689 62.6705 91.8521 61.0962C91.6503 62.6035 91.1792 63.9098 89.9007 64.9817C86.2333 68.0298 82.9361 71.5134 78.8986 74.126C77.6874 74.8964 76.5098 75.8678 75.1977 76.2028C73.7173 76.5712 72.8088 74.9969 71.6312 74.26C62.2442 68.5322 49.829 69.1017 41.1485 75.7673C40.4419 76.3033 39.9373 76.3703 39.1298 75.9683C35.5634 74.126 32.468 71.6473 29.5072 68.9677C28.0268 67.6614 26.6137 66.288 25.066 65.0822C23.7202 64.0438 23.2828 62.637 22.98 61.0962C25.2679 62.771 27.2866 64.7807 29.4063 66.69C32.4343 69.3696 35.6979 71.6474 39.3316 73.3891C40.0046 73.7241 40.6775 73.8581 41.3167 73.2886C44.3448 70.6425 47.8776 69.0682 51.7468 68.0298C51.4103 67.7284 50.9393 68.0298 50.6702 67.6614C51.2421 67.1924 51.7468 67.1924 52.2515 67.6614Z" fill="#629043"/>
<path id="Vector_8" d="M94.9475 50.5447C95.4186 51.4156 94.9812 52.4205 95.2503 53.4588C96.3606 52.6214 97.2354 51.6836 98.2111 50.8462C102.619 46.9941 106.925 43.0416 111.299 39.1561C111.703 38.7877 112.174 38.5197 112.645 38.2183C113.15 40.228 112.813 42.2712 112.881 44.3145C112.881 44.6494 112.645 44.8169 112.41 45.0179C106.488 50.2767 100.6 55.5356 94.6784 60.7609C94.5774 60.8614 94.4092 60.9284 94.0728 61.1293C94.9139 57.5118 94.9812 54.0282 94.9475 50.5447Z" fill="#D5810B"/>
<path id="Vector_9" d="M2.52362 37.4482C2.48998 38.4866 3.36476 38.9555 3.97038 39.4915C6.96482 42.2046 9.99291 44.8843 13.021 47.5305C15.3089 49.5402 17.5968 51.5165 19.8847 53.5262C19.9519 55.9379 20.3557 58.3161 20.6921 60.6943C20.2211 60.8953 20.0529 60.5938 19.851 60.4263C14.0976 55.3015 8.31064 50.1766 2.55727 45.0518C2.3554 44.8508 2.01894 44.7168 2.01894 44.3819C2.15352 42.0707 1.6152 39.6925 2.52362 37.4482Z" fill="#D5810B"/>
<path id="Vector_10" d="M52.2514 67.6614C51.7467 67.6614 51.2421 67.6614 50.7374 67.6614C49.1897 67.3599 47.9785 66.5225 46.8009 65.4506C43.9074 62.8715 41.2494 60.0243 38.3222 57.5121C36.9428 56.3063 35.4287 54.9665 35.0586 52.8897C34.6212 50.478 35.5969 47.9994 37.7166 46.76C39.8363 45.5207 42.6288 45.7216 44.412 47.3294C46.5653 49.2722 48.6514 51.2484 50.7374 53.2582C51.3093 53.7941 51.6458 53.8611 52.2514 53.2582C54.7412 50.8465 57.3992 48.6023 59.788 46.0901C62.1768 43.5779 64.9694 41.5012 67.2236 38.855C68.3003 37.5822 69.6797 36.5773 70.9919 35.5724C73.9863 33.3282 78.4275 34.7685 79.6724 38.2856C79.807 38.6875 79.9079 39.0895 80.0425 39.4914C80.1771 39.9939 80.1771 40.4963 80.0425 40.9652C79.7734 42.6065 78.8649 43.8459 77.6537 44.9847C70.2517 51.9853 62.8497 59.0195 55.4814 66.0201C54.5393 66.9244 53.429 67.3264 52.2514 67.6614Z" fill="#1C2040"/>
<path id="Vector_11" d="M80.0425 40.965C80.0425 40.4626 80.0425 39.9602 80.0425 39.4912C80.3789 39.9936 80.3789 40.4961 80.0425 40.965Z" fill="#6E8F61"/>
<path id="Vector_12" d="M51.5112 65.6516C50.3673 65.6851 49.4925 65.2831 48.7186 64.5462C45.1522 61.1631 41.5858 57.8136 38.053 54.397C36.4381 52.8227 36.4044 50.545 37.9185 49.0042C39.3652 47.5304 41.6531 47.4634 43.2344 48.9372C45.6233 51.1144 47.9448 53.3251 50.2663 55.6029C51.1075 56.4403 51.7467 56.4068 52.5879 55.6029C58.8123 49.6741 65.0703 43.7789 71.2947 37.8501C72.3377 36.8787 73.4817 36.2758 74.9284 36.5438C77.8556 37.1132 79.0331 40.5298 77.0481 42.8075C76.8462 43.042 76.6443 43.2094 76.4088 43.4439C69.0741 50.411 61.7394 57.3446 54.4047 64.3118C53.6309 65.0822 52.6888 65.6851 51.5112 65.6516Z" fill="#F2F7E8"/>
</g>
</g>
<defs>
<clipPath id="clip0_3123_7396">
<rect width="115" height="110" fill="white"/>
</clipPath>
</defs>
</svg>
