<svg width="66" height="66" viewBox="0 0 66 66" fill="none" xmlns="http://www.w3.org/2000/svg">
<path d="M64.0663 62.1327H62.0038V23.9766C62.0038 22.9087 61.138 22.043 60.0702 22.043H52.3358C51.268 22.043 50.4022 22.9087 50.4022 23.9766V62.1327H46.5351V36.8672C46.5351 35.7993 45.6693 34.9336 44.6015 34.9336H36.8671C35.7993 34.9336 34.9335 35.7993 34.9335 36.8672V62.1327H31.0663V43.957C31.0663 42.8891 30.2006 42.0234 29.1328 42.0234H21.3984C20.3305 42.0234 19.4648 42.8891 19.4648 43.957V62.1327H15.5976V48.5976C15.5976 47.5297 14.7319 46.664 13.664 46.664H5.92968C4.86182 46.664 3.99609 47.5297 3.99609 48.5976V62.1327H1.93359C0.865733 62.1327 0 62.9985 0 64.0663C0 65.1342 0.865733 65.9999 1.93359 65.9999H64.0663C65.1341 65.9999 65.9999 65.1342 65.9999 64.0663C65.9999 62.9985 65.1341 62.1327 64.0663 62.1327Z" fill="#E2BC72"/>
<path d="M1.93359 41.5473C14.0015 41.5473 27.0883 37.2132 38.7834 29.3434C47.9428 23.1798 55.5781 15.3058 60.3208 7.24311L62.1987 14.2513C62.4302 15.1153 63.5479 15.8616 64.5668 15.6185C65.6055 15.3708 66.2104 14.2819 65.934 13.2504L62.7677 1.43358C62.4912 0.402201 61.4314 -0.210102 60.3995 0.0664009L48.5827 3.23272C47.5512 3.50909 46.9392 4.56934 47.2156 5.60085C47.4921 6.63236 48.5518 7.24466 49.5837 6.96803L57.1962 4.92822C52.7715 12.6169 45.459 20.1899 36.6244 26.1349C25.5606 33.58 13.2406 37.6801 1.93359 37.6801C0.865733 37.6801 0 38.5459 0 39.6137C0 40.6816 0.865733 41.5473 1.93359 41.5473Z" fill="#E2BC72"/>
</svg>
