<svg width="321" height="70" viewBox="0 0 321 70" fill="none" xmlns="http://www.w3.org/2000/svg">
<path d="M34.7963 69.9567C26.7461 69.9568 18.9448 67.1508 12.7219 62.0171C6.49888 56.8833 2.23922 49.7393 0.66867 41.8024C-0.901882 33.8655 0.313849 25.6266 4.10871 18.4898C7.90357 11.3529 14.0428 5.75946 21.4803 2.6626C28.9177 -0.434251 37.1933 -0.842946 44.897 1.50615C52.6006 3.85524 59.2557 8.81678 63.7282 15.5454C68.2007 22.274 70.214 30.3533 69.4249 38.4068C68.6359 46.4602 65.0933 53.9895 59.4009 59.7118C56.1775 62.9702 52.343 65.5535 48.1196 67.312C43.8962 69.0706 39.3677 69.9695 34.7963 69.9567ZM34.7963 1.31041C16.3342 1.31041 1.30373 16.4145 1.30373 34.9784C1.30373 53.5422 16.3342 68.6463 34.7963 68.6463C53.2585 68.6463 68.289 53.5422 68.289 34.9784C68.289 16.4145 53.2585 1.31041 34.7963 1.31041Z" fill="black"/>
<path d="M34.7937 67.4064C27.3337 67.4058 20.1046 64.8185 14.3383 60.0855C8.5719 55.3525 4.62501 48.7665 3.17005 41.4497C1.7151 34.1329 2.84211 26.5379 6.35906 19.9589C9.87601 13.3799 15.5653 8.22382 22.4576 5.3692C29.3499 2.51459 37.0187 2.13804 44.1575 4.30371C51.2963 6.46939 57.4634 11.0433 61.6079 17.2461C65.7525 23.449 67.6181 30.897 66.887 38.3211C66.1558 45.7452 62.8731 52.6862 57.5982 57.9614C54.6104 60.9654 51.0565 63.3471 47.1421 64.9683C43.2277 66.5896 39.0306 67.4182 34.7937 67.4064ZM34.7937 4.13045C17.6792 4.13045 3.75594 18.0537 3.75594 35.167C3.75594 52.2803 17.6792 66.2035 34.7937 66.2035C51.9083 66.2035 65.8303 52.2803 65.8303 35.167C65.8303 18.0537 51.9071 4.12418 34.7937 4.12418V4.13045Z" fill="black"/>
<path d="M27.4247 22.3224C27.1967 22.4322 26.9415 22.4715 26.6912 22.4355C26.441 22.3994 26.207 22.2896 26.0189 22.1198C25.8307 21.9501 25.6969 21.7281 25.6342 21.4819C25.5715 21.2357 25.5828 20.9763 25.6668 20.7365C25.7507 20.4968 25.9034 20.2875 26.1056 20.135C26.3079 19.9825 26.5505 19.8937 26.8029 19.8798C27.0553 19.866 27.3062 19.9277 27.5237 20.0571C27.7413 20.1865 27.9157 20.3779 28.0251 20.6071C28.1712 20.9147 28.1901 21.268 28.0775 21.5895C27.965 21.911 27.7302 22.1746 27.4247 22.3224ZM27.0332 14.1153C27.371 13.9529 27.7491 13.8949 28.1197 13.9485C28.4904 14.0021 28.8368 14.165 29.1154 14.4166C29.394 14.6681 29.5921 14.9971 29.6848 15.3618C29.7775 15.7265 29.7606 16.1107 29.6361 16.4658C29.5117 16.8209 29.2854 17.1309 28.9858 17.3567C28.6862 17.5824 28.3267 17.7139 27.9529 17.7343C27.579 17.7548 27.2074 17.6633 26.8852 17.4716C26.563 17.2798 26.3046 16.9963 26.1426 16.6569C25.9261 16.201 25.8983 15.6774 26.0652 15.201C26.2322 14.7245 26.5803 14.334 27.0332 14.1153ZM22.9454 20.3077C22.6074 20.4706 22.2289 20.529 21.8578 20.4756C21.4867 20.4221 21.1398 20.2592 20.8608 20.0075C20.5818 19.7558 20.3833 19.4265 20.2905 19.0614C20.1977 18.6962 20.2146 18.3116 20.3393 17.9562C20.4639 17.6007 20.6905 17.2904 20.9906 17.0645C21.2906 16.8386 21.6506 16.7072 22.0249 16.687C22.3992 16.6668 22.7711 16.7587 23.0935 16.951C23.4159 17.1433 23.6743 17.4274 23.836 17.7674C24.0525 18.2231 24.0803 18.7465 23.9133 19.2227C23.7463 19.699 23.3982 20.0892 22.9454 20.3077ZM22.8003 12.6162C23.0031 12.5186 23.2302 12.4836 23.4527 12.5157C23.6753 12.5477 23.8834 12.6454 24.0508 12.7964C24.2181 12.9474 24.3372 13.1449 24.3929 13.3639C24.4487 13.5829 24.4386 13.8136 24.3639 14.0268C24.2892 14.2401 24.1534 14.4263 23.9735 14.5619C23.7936 14.6975 23.5777 14.7764 23.3532 14.7887C23.1287 14.801 22.9056 14.7461 22.7121 14.6309C22.5186 14.5158 22.3635 14.3455 22.2662 14.1417C22.1361 13.8681 22.1192 13.5539 22.2194 13.2678C22.3195 12.9818 22.5285 12.7475 22.8003 12.6162ZM45.0417 50.0401L45.6346 51.2852L44.3537 51.9027L43.7596 50.6564L42.4787 51.2739L31.0209 27.2271C31.2651 27.0839 31.4468 26.8535 31.5298 26.5818C31.6128 26.3101 31.591 26.0169 31.4689 25.7605C31.3468 25.5042 31.1332 25.3034 30.8706 25.1981C30.608 25.0929 30.3156 25.0908 30.0515 25.1923L29.2197 23.4442C29.6824 22.962 29.9878 22.3492 30.0948 21.6878C30.2019 21.0265 30.1056 20.348 29.8189 19.7431C29.7487 19.5992 29.6684 19.4605 29.5787 19.3281C30.5041 18.8741 31.2122 18.0692 31.5473 17.0903C31.8824 16.1114 31.817 15.0388 31.3655 14.1084C30.914 13.178 30.1134 12.466 29.1398 12.1291C28.1661 11.7922 27.0993 11.8579 26.1739 12.3119C26.1576 12.3194 26.1451 12.3282 26.1301 12.3358C26.1226 12.3207 26.1176 12.3043 26.1101 12.2892C25.7406 11.5562 25.1004 10.9978 24.3265 10.7335C23.5526 10.4692 22.7065 10.52 21.9694 10.8751C21.2323 11.2302 20.6628 11.8613 20.3828 12.6333C20.1028 13.4053 20.1345 14.2569 20.4712 15.0057C20.4788 15.0208 20.4875 15.0346 20.4963 15.0497C20.48 15.0497 20.465 15.061 20.45 15.0685C19.5181 15.5083 18.7982 16.3023 18.4485 17.2757C18.0989 18.2492 18.1482 19.3224 18.5856 20.2593C19.023 21.1962 19.8127 21.9201 20.7809 22.2716C21.7491 22.6231 22.8166 22.5736 23.7485 22.1338C23.9646 22.8553 24.4233 23.479 25.0462 23.8981C25.6691 24.3172 26.4174 24.5057 27.1633 24.4314L27.9964 26.1795C27.7522 26.3228 27.5705 26.5531 27.4875 26.8249C27.4045 27.0966 27.4262 27.3897 27.5484 27.6461C27.6705 27.9024 27.8841 28.1032 28.1467 28.2085C28.4093 28.3138 28.7017 28.3159 28.9658 28.2143L40.4236 52.2611L42.6538 56.9419L43.8196 59.3905L45.8698 58.4032L44.704 55.9547L45.9848 55.3385L45.3919 54.0922L46.6741 53.4747L47.267 54.721L49.1883 53.7954L46.9593 49.1133L45.0417 50.0401Z" fill="black"/>
<path d="M31.7991 40.4438L25.7483 52.6069L24.6712 52.1043L24.1556 53.0846L23.0785 52.5807L23.5953 51.6004L21.9814 50.8453L20.04 54.5302L21.6539 55.2865L22.1707 54.305L23.2478 54.8088L22.7311 55.7891L23.807 56.293L22.7921 58.2212L24.5143 59.0261L25.5292 57.0991L27.4693 53.413L33.5213 41.2487L31.7991 40.4438Z" fill="black"/>
<path d="M49.162 19.5681C48.9955 19.9072 48.7333 20.1887 48.4085 20.3771C48.0838 20.5655 47.7111 20.6523 47.3376 20.6266C46.9641 20.6008 46.6065 20.4636 46.3101 20.2324C46.0136 20.0012 45.7917 19.6863 45.6722 19.3275C45.5528 18.9687 45.5413 18.5822 45.6391 18.2168C45.7369 17.8514 45.9397 17.5235 46.2218 17.2746C46.5039 17.0257 46.8526 16.867 47.2239 16.8185C47.5952 16.77 47.9724 16.8339 48.3078 17.0022C48.7569 17.2286 49.099 17.6258 49.2591 18.1068C49.4192 18.5877 49.3843 19.1132 49.162 19.5681ZM43.4803 16.7164C43.3137 17.0557 43.0513 17.3375 42.7263 17.526C42.4013 17.7145 42.0284 17.8014 41.6546 17.7756C41.2808 17.7498 40.9229 17.6125 40.6263 17.3811C40.3297 17.1497 40.1076 16.8345 39.9881 16.4754C39.8686 16.1164 39.8572 15.7295 39.9551 15.3639C40.0531 14.9982 40.2561 14.6702 40.5385 14.4212C40.8208 14.1722 41.1699 14.0134 41.5415 13.965C41.9131 13.9166 42.2905 13.9807 42.6261 14.1492C43.0753 14.3759 43.4174 14.7733 43.5775 15.2544C43.7376 15.7356 43.7026 16.2613 43.4803 16.7164ZM43.8336 21.8107C43.721 22.0395 43.5439 22.2293 43.3246 22.3563C43.1053 22.4834 42.8537 22.5418 42.6015 22.5242C42.3494 22.5067 42.1081 22.414 41.9081 22.2578C41.708 22.1016 41.5583 21.889 41.4778 21.6468C41.3972 21.4046 41.3895 21.1437 41.4556 20.897C41.5216 20.6504 41.6585 20.4291 41.849 20.2611C42.0394 20.0931 42.2748 19.9859 42.5254 19.9532C42.7761 19.9204 43.0307 19.9635 43.2571 20.0771C43.5606 20.23 43.7918 20.4984 43.8998 20.8234C44.0079 21.1484 43.9841 21.5034 43.8336 21.8107ZM45.3535 13.2203C45.4536 13.0171 45.611 12.8485 45.8059 12.7357C46.0007 12.6229 46.2243 12.5711 46.4482 12.5867C46.6722 12.6024 46.8866 12.6848 47.0643 12.8236C47.2419 12.9623 47.3749 13.1513 47.4464 13.3665C47.518 13.5816 47.5248 13.8134 47.4661 14.0325C47.4073 14.2517 47.2857 14.4482 47.1165 14.5975C46.9473 14.7467 46.7382 14.8419 46.5155 14.871C46.2929 14.9001 46.0667 14.8618 45.8655 14.7609C45.5956 14.6252 45.3901 14.3867 45.2941 14.0978C45.198 13.8089 45.2194 13.4933 45.3535 13.2203ZM49.1967 15.2009L49.1508 15.1808C49.1582 15.1658 49.1682 15.152 49.1756 15.137C49.3584 14.765 49.467 14.3603 49.4952 13.9459C49.5233 13.5315 49.4704 13.1156 49.3396 12.7219C49.2088 12.3282 49.0025 11.9644 48.7326 11.6512C48.4627 11.3381 48.1345 11.0818 47.7666 10.8969C47.3988 10.7121 46.9985 10.6023 46.5887 10.5738C46.1789 10.5454 45.7675 10.5988 45.3781 10.7311C44.9887 10.8634 44.6289 11.0719 44.3192 11.3448C44.0096 11.6177 43.7561 11.9496 43.5732 12.3216C43.5658 12.3379 43.5608 12.3529 43.5534 12.3679L43.51 12.3441C42.5915 11.8747 41.5262 11.7934 40.5485 12.1182C39.5707 12.443 38.7606 13.1471 38.2963 14.0759C37.832 15.0046 37.7517 16.0817 38.0729 17.0703C38.3941 18.059 39.0905 18.8781 40.009 19.3475C39.9168 19.4793 39.8339 19.6175 39.7611 19.7612C39.466 20.3651 39.3604 21.0456 39.4584 21.7118C39.5563 22.378 39.8531 22.9981 40.309 23.4891L39.4536 25.234C39.1931 25.1408 38.9079 25.1473 38.6518 25.2522C38.3957 25.3571 38.1864 25.5532 38.0636 25.8035C37.9407 26.0538 37.9128 26.3409 37.985 26.6106C38.0572 26.8802 38.2247 27.1138 38.4556 27.2672L33.5215 36.8604L35.5596 37.8933L40.4925 28.2989C40.7525 28.3898 41.0363 28.3816 41.2907 28.276C41.5451 28.1703 41.7526 27.9744 41.8744 27.725C41.9961 27.4756 42.0236 27.1899 41.9518 26.9215C41.88 26.653 41.7138 26.4203 41.4843 26.2669L42.3409 24.522C43.0035 24.5929 43.6716 24.4572 44.2557 24.1333C44.8398 23.8093 45.312 23.3125 45.6089 22.7095C45.6791 22.5646 45.7384 22.4146 45.7862 22.2607C46.7116 22.718 47.7787 22.7848 48.7529 22.4466C49.727 22.1083 50.5284 21.3926 50.9806 20.4569C51.4329 19.5212 51.499 18.4422 51.1645 17.4572C50.8299 16.4722 50.1221 15.6619 49.1967 15.2046V15.2009Z" fill="black"/>
<path d="M30.2422 52.8318H38.9868L37.8329 50.2812H31.3936L30.2422 52.8318Z" fill="black"/>
<path d="M35.9779 56.1114L36.7998 55.9347L36.0017 55.7471H33.9544L33.1562 55.9347L33.9769 56.1114H35.9779Z" fill="black"/>
<path d="M33.8852 56.3641L33.0504 56.1113L32.4277 56.6873L33.6635 57.2044L33.8852 56.3641Z" fill="black"/>
<path d="M32.4277 56.8398L34.9782 59.7547L33.7782 57.3995L32.4277 56.8398Z" fill="black"/>
<path d="M33.8857 57.2043H36.4363L36.1859 56.4756H34.1347L33.8857 57.2043Z" fill="black"/>
<path d="M33.8857 57.5688L35.1596 59.755L36.4363 57.5688H33.8857Z" fill="black"/>
<path d="M35.3428 59.7547L37.8933 56.8398L36.5382 57.3991L35.3428 59.7547Z" fill="black"/>
<path d="M36.4355 56.365L36.6563 57.2044L37.893 56.6878L37.2632 56.1113L36.4355 56.365Z" fill="black"/>
<path d="M84.5312 48.8242V20.7686H106.757V23.994H88.0404V32.2283H99.3583V35.4574H88.0404V48.8242H84.5312Z" fill="black"/>
<path d="M89.141 49.9171H83.4385V19.6753H107.851V25.0813H89.141V31.1376H100.454V36.5473H89.141V49.9171ZM85.6331 47.7372H86.9463V34.3675H98.2598V33.3175H86.9463V22.9014H105.656V21.8551H85.6331V47.7372Z" fill="black"/>
<path d="M110.037 48.8242V20.7686H126.295C129.07 20.7686 131.245 21.4587 132.818 22.8389C134.392 24.2192 135.18 26.1298 135.182 28.5707C135.229 30.4764 134.571 32.3334 133.332 33.7933C132.093 35.2532 130.359 36.2156 128.454 36.4999L135.542 48.8242H131.636L124.548 36.5471H113.557V48.8205L110.037 48.8242ZM113.557 33.2781H126.064C127.843 33.2781 129.189 32.8882 130.102 32.1085C131.015 31.3288 131.472 30.1858 131.475 28.6796C131.475 27.2049 131.017 26.0571 130.102 25.2362C129.187 24.4153 127.898 24.0037 126.237 24.0012H113.557V33.2781Z" fill="black"/>
<path d="M137.363 49.9171H130.943L123.874 37.6387H114.65V49.9134H108.943V19.6753H126.254C129.285 19.6753 131.719 20.4636 133.487 22.0183C135.255 23.5731 136.214 25.8144 136.214 28.5571C136.259 30.7192 135.512 32.8242 134.113 34.482C133.051 35.7398 131.657 36.6783 130.086 37.1919L137.363 49.9171ZM132.22 47.7375H133.586L126.682 35.6989L128.212 35.4301C129.859 35.1847 131.359 34.3531 132.433 33.0906C133.501 31.8278 134.065 30.2198 134.018 28.5716C134.018 26.4393 133.37 24.83 132.03 23.6567C130.69 22.4833 128.736 21.8403 126.254 21.8403H111.14V47.7193H112.454V35.4591H125.152L132.22 47.7375ZM126.023 34.3693H112.454V22.9119H126.203C128.132 22.9119 129.676 23.4242 130.796 24.4304C131.917 25.4367 132.524 26.8933 132.524 28.6806C132.524 30.4679 131.935 31.95 130.774 32.9381C129.614 33.9262 128.062 34.3693 126.023 34.3693ZM114.65 32.1897H126.023C127.52 32.1897 128.637 31.8846 129.343 31.2852C130.05 30.6858 130.328 29.8648 130.328 28.6806C130.328 27.4963 129.998 26.6536 129.321 26.0433C128.644 25.433 127.572 25.0915 126.203 25.0915H114.65V32.1897Z" fill="black"/>
<path d="M135.178 48.8242L148.949 20.7686H151.86L165.784 48.8242H161.985L158.165 41.269H142.644L138.925 48.8169L135.178 48.8242ZM144.241 38H156.611L150.401 25.5704L144.241 38Z" fill="black"/>
<path d="M167.605 49.9171H161.359L157.53 42.3621H143.292L139.561 49.9098H133.355L148.246 19.6753H152.521L167.605 49.9171ZM162.706 47.7377H164.075L151.189 21.8619H149.637L136.893 47.7377H138.211L141.938 40.1827H158.877L162.706 47.7377ZM158.413 39.0931H142.467L150.407 23.1113L158.413 39.0931ZM146.001 36.9137H154.879L150.422 28.0221L146.001 36.9137Z" fill="black"/>
<path d="M192.513 39.8323L195.297 41.9247C194.109 44.2732 192.282 46.2329 190.03 47.5752C187.721 48.9137 185.094 49.5965 182.429 49.551C178.241 49.551 174.784 48.1608 172.06 45.3806C169.335 42.6003 167.972 39.0764 167.97 34.8088C167.97 30.5267 169.337 26.9942 172.071 24.2115C174.804 21.4289 178.257 20.0388 182.429 20.0412C184.889 20.0105 187.317 20.5981 189.495 21.7509C191.619 22.8879 193.409 24.5675 194.685 26.6212L191.789 28.7137C190.93 27.052 189.61 25.6777 187.989 24.7584C186.298 23.798 184.385 23.3062 182.444 23.333C179.307 23.333 176.707 24.4169 174.644 26.5847C172.581 28.7525 171.54 31.4939 171.52 34.8088C171.52 38.1262 172.551 40.8639 174.611 43.022C176.672 45.1801 179.272 46.2604 182.411 46.2628C184.477 46.2979 186.508 45.7307 188.26 44.6296C190.072 43.4343 191.538 41.7797 192.513 39.8323Z" fill="black"/>
<path d="M182.467 50.6442C177.988 50.6442 174.227 49.1314 171.291 46.1495C168.354 43.1676 166.877 39.3546 166.877 34.8089C166.877 30.2632 168.365 26.4246 171.305 23.4427C174.246 20.4608 178.002 18.948 182.467 18.948C185.111 18.9147 187.721 19.541 190.065 20.7707C192.36 21.9981 194.294 23.808 195.676 26.02L196.235 26.8949L191.455 30.3178L190.874 29.2242C190.115 27.7451 188.938 26.5239 187.491 25.7138C185.958 24.8496 184.225 24.407 182.467 24.4306C179.603 24.4306 177.302 25.3821 175.433 27.3469C173.563 29.3117 172.619 31.7505 172.619 34.8089C172.619 37.8673 173.534 40.2987 175.414 42.2636C177.295 44.2284 179.585 45.1799 182.453 45.1799C184.317 45.2146 186.153 44.7083 187.738 43.7217C189.382 42.6259 190.714 41.1181 191.6 39.3473L192.195 38.2246L196.754 41.6366L196.319 42.4641C195.028 44.9777 193.06 47.076 190.638 48.519C188.155 49.9529 185.332 50.6871 182.467 50.6442ZM182.467 21.1352C178.551 21.1352 175.407 22.3929 172.852 24.9811C170.296 27.5693 169.055 30.7881 169.055 34.8235C169.055 38.8589 170.293 42.0376 172.841 44.6258C175.389 47.2139 178.536 48.4716 182.467 48.4716C184.944 48.5152 187.386 47.8854 189.535 46.6489C191.349 45.5732 192.867 44.058 193.948 42.2417L192.903 41.4616C191.893 43.1126 190.529 44.5163 188.91 45.5699C186.979 46.7878 184.74 47.4206 182.46 47.3926C179.019 47.3926 176.122 46.1896 173.854 43.8165C171.585 41.4434 170.449 38.4396 170.449 34.8453C170.449 31.251 171.596 28.2327 173.85 25.8632C176.104 23.4938 179.015 22.2762 182.46 22.2762C184.596 22.2516 186.701 22.7935 188.562 23.8473C190.001 24.6614 191.232 25.7994 192.159 27.1719L193.248 26.3918C192.131 24.877 190.691 23.6317 189.034 22.7465C187.011 21.6721 184.755 21.1184 182.467 21.1352Z" fill="black"/>
<path d="M201.49 48.8242V20.7686H217.512C220.23 20.7686 222.368 21.4466 223.926 22.8026C225.484 24.1587 226.264 26.0135 226.267 28.3672C226.267 30.8081 225.512 32.7817 224.002 34.2878C222.492 35.794 220.479 36.5471 217.961 36.5471H204.938V48.8205L201.49 48.8242ZM204.956 33.2708H217.284C219.038 33.2708 220.364 32.8809 221.264 32.1012C222.163 31.3215 222.614 30.1785 222.617 28.6723C222.617 27.1976 222.166 26.0498 221.264 25.2289C220.362 24.4081 219.092 23.9964 217.454 23.994H204.949L204.956 33.2708Z" fill="#E2BC72"/>
<path d="M231.732 48.8242V20.7686H247.991C250.763 20.7686 252.938 21.4587 254.514 22.8389C256.09 24.2192 256.878 26.1298 256.878 28.5707C256.924 30.4764 256.266 32.3334 255.028 33.7933C253.789 35.2532 252.054 36.2156 250.149 36.4999L257.238 48.8242H253.332L246.258 36.5471H235.245V48.8205L231.732 48.8242ZM235.245 33.2781H247.756C249.537 33.2781 250.883 32.8882 251.794 32.1085C252.704 31.3288 253.162 30.1858 253.167 28.6796C253.167 27.2049 252.709 26.0571 251.794 25.2362C250.878 24.4153 249.59 24.0037 247.928 24.0012H235.245V33.2781Z" fill="#E2BC72"/>
<path d="M275.415 49.5531C271.205 49.5531 267.73 48.1628 264.992 45.3823C262.254 42.6017 260.883 39.0774 260.881 34.8093C260.881 30.5267 262.256 26.9939 265.006 24.2109C267.757 21.4279 271.226 20.0376 275.415 20.04C279.626 20.04 283.113 21.434 285.878 24.2218C288.643 27.0097 290.027 30.534 290.03 34.7947C290.03 39.0628 288.651 42.5871 285.893 45.3677C283.135 48.1482 279.643 49.5434 275.415 49.5531ZM275.415 46.2718C278.568 46.2718 281.182 45.1915 283.255 43.0307C285.329 40.8699 286.365 38.1319 286.362 34.8166C286.362 31.4843 285.332 28.7378 283.27 26.5771C281.208 24.4163 278.59 23.3371 275.415 23.3395C272.262 23.3395 269.649 24.4235 267.575 26.5916C265.501 28.7597 264.467 31.5014 264.472 34.8166C264.472 38.1344 265.506 40.8723 267.575 43.0307C269.644 45.189 272.257 46.267 275.415 46.2646V46.2718Z" fill="#E2BC72"/>
<path d="M295.859 48.8242V20.7686H312.115C314.872 20.7686 317.041 21.4466 318.622 22.8026C320.202 24.1587 320.995 26.0135 321 28.3672C321 30.8081 320.233 32.7817 318.699 34.2878C317.165 35.794 315.124 36.5483 312.577 36.5507H299.364V48.8242H295.859ZM299.375 33.2708H311.883C313.662 33.2708 315.008 32.8809 315.921 32.1012C316.833 31.3215 317.291 30.1785 317.293 28.6723C317.293 27.1976 316.836 26.0498 315.921 25.2289C315.006 24.4081 313.717 23.9964 312.056 23.994H299.375V33.2708Z" fill="#E2BC72"/>
</svg>
