<svg width="20" height="20" viewBox="0 0 20 20" fill="none" xmlns="http://www.w3.org/2000/svg">
<path d="M10 2.17054L11.8956 2.92992L7.75 3.44742M10 2.17054L8.10437 2.92992C8.0006 2.97124 7.91148 3.04253 7.84837 3.13469C7.78525 3.22686 7.75101 3.33572 7.75 3.44742M10 2.17054L9.96281 2.26337L10 2.27827L10.0372 2.26337L10 2.17054ZM7.75 3.44742L7.85 3.44832C7.85 3.44819 7.85 3.44806 7.85 3.44792V3.44742H7.75ZM18.906 14.5946C18.8055 14.4942 18.6762 14.4293 18.5375 14.4081V4.93804C18.5375 4.46397 18.3492 4.00931 18.014 3.67409C17.6787 3.33887 17.2241 3.15054 16.75 3.15054H15.0625C14.8868 3.15054 14.7183 3.22034 14.594 3.34459C14.4698 3.46883 14.4 3.63734 14.4 3.81304C14.4 3.98875 14.4698 4.15726 14.594 4.2815C14.7183 4.40575 14.8868 4.47554 15.0625 4.47554H16.75C16.8727 4.47554 16.9903 4.52427 17.077 4.61101C17.1638 4.69774 17.2125 4.81538 17.2125 4.93804V14.4005H15.725V11.688C15.725 10.9156 15.4181 10.1748 14.8719 9.6286C14.3257 9.0824 13.5849 8.77554 12.8125 8.77554H12.724C13.2074 8.16534 13.4732 7.40844 13.475 6.62577V6.62554V3.44742L13.475 3.44718C13.4742 3.0902 13.3664 2.74165 13.1657 2.44643C12.9651 2.15124 12.6806 1.9229 12.349 1.79081C12.349 1.7908 12.3489 1.79078 12.3489 1.79077L10.2453 0.947106L10.2451 0.947016C10.0877 0.884328 9.91228 0.884328 9.75487 0.947016L9.75465 0.947106L7.65113 1.79077C7.65108 1.79078 7.65103 1.7908 7.65099 1.79082C7.3194 1.92291 7.03494 2.15125 6.83426 2.44643C6.63356 2.74165 6.52584 3.0902 6.525 3.44718V3.44742L6.525 6.62554L6.525 6.62577C6.52677 7.40844 6.79261 8.16533 7.27596 8.77554H7.1875C6.41506 8.77554 5.67425 9.0824 5.12805 9.6286C4.58185 10.1748 4.275 10.9156 4.275 11.688V14.4005H2.7875V4.93804C2.7875 4.81538 2.83623 4.69774 2.92296 4.61101C3.0097 4.52427 3.12734 4.47554 3.25 4.47554H4.9375C5.11321 4.47554 5.28172 4.40575 5.40596 4.2815C5.5302 4.15726 5.6 3.98875 5.6 3.81304C5.6 3.63734 5.5302 3.46883 5.40596 3.34459C5.28172 3.22034 5.11321 3.15054 4.9375 3.15054H3.25C2.77593 3.15054 2.32127 3.33887 1.98605 3.67409C1.65083 4.00931 1.4625 4.46397 1.4625 4.93804V14.4081C1.32381 14.4293 1.19447 14.4942 1.09404 14.5946C0.969799 14.7188 0.9 14.8873 0.9 15.063V16.188C0.9 16.9605 1.20685 17.7013 1.75305 18.2475C2.29925 18.7937 3.04006 19.1005 3.8125 19.1005H16.1875C16.9599 19.1005 17.7007 18.7937 18.2469 18.2475C18.7931 17.7013 19.1 16.9605 19.1 16.188V15.063C19.1 14.8873 19.0302 14.7188 18.906 14.5946ZM7.85 4.27554H7.75V4.37554H7.85V4.27554ZM12.25 4.37554H12.15V4.27554H12.25V4.37554ZM12.15 3.44783C12.15 3.44799 12.15 3.44816 12.15 3.44832L12.25 3.44742H12.15V3.44783ZM7.85 6.62554V5.60054H12.15V6.62554C12.15 7.19576 11.9235 7.74262 11.5203 8.14582C11.1171 8.54903 10.5702 8.77554 10 8.77554C9.42978 8.77554 8.88292 8.54903 8.47972 8.14582C8.07652 7.74262 7.85 7.19576 7.85 6.62554ZM5.6 11.688C5.6 11.267 5.76725 10.8632 6.06497 10.5655C6.36268 10.2678 6.76647 10.1005 7.1875 10.1005H9.3375V11.1255C9.3375 11.3013 9.4073 11.4698 9.53154 11.594C9.65578 11.7182 9.82429 11.788 10 11.788C10.1757 11.788 10.3442 11.7182 10.4685 11.594C10.5927 11.4698 10.6625 11.3013 10.6625 11.1255V10.1005H12.8125C13.2335 10.1005 13.6373 10.2678 13.935 10.5655C14.2327 10.8632 14.4 11.267 14.4 11.688V14.4005H5.6V11.688ZM17.775 16.188C17.775 16.6091 17.6077 17.0129 17.31 17.3106C17.0123 17.6083 16.6085 17.7755 16.1875 17.7755H3.8125C3.39147 17.7755 2.98768 17.6083 2.68997 17.3106C2.39225 17.0129 2.225 16.6091 2.225 16.188V15.7255H17.775V16.188Z" fill="white" stroke="white" stroke-width="0.2"/>
</svg>
