<svg width="20" height="20" viewBox="0 0 20 20" fill="none" xmlns="http://www.w3.org/2000/svg">
<path d="M18.1642 10.7316L18.1648 10.7313C19.1055 10.2216 19.6942 9.24147 19.6942 8.18158L19.694 3.14429C19.694 3.00791 19.6481 2.88652 19.5605 2.79899C19.473 2.71146 19.3516 2.66562 19.2153 2.66562H13.9886C13.8522 2.66562 13.7308 2.71153 13.6433 2.79909C13.5557 2.88665 13.5099 3.00802 13.5099 3.14429V8.18158C13.5099 9.24141 14.0985 10.2216 15.0394 10.7313L15.0399 10.7316L16.1232 11.3094V14.3549C16.1232 15.4737 15.2211 16.3758 14.1023 16.3758H13.8236V16.2485C13.8236 13.2506 11.8515 10.6914 9.15273 9.81665C10.1765 9.13663 10.8694 7.98899 10.8694 6.66681C10.8694 4.56581 9.15751 2.89308 7.09568 2.89308C5.03317 2.89308 3.32195 4.60431 3.32195 6.66681C3.32195 7.98925 4.01503 9.13668 5.03868 9.81667C2.33986 10.6918 0.367744 13.2508 0.367744 16.2485V16.8453C0.32376 17.0984 0.527905 17.3334 0.80863 17.3334H0.817128L0.817378 17.3333H14.1025C15.7484 17.3333 17.0809 16.0008 17.0809 14.3549V11.3094L18.1642 10.7316ZM14.4677 3.62305H18.6989V8.18148C18.6989 8.90222 18.3026 9.54964 17.6917 9.87308L17.6914 9.87322L16.6023 10.4541L15.5131 9.87322L15.5132 9.87319L15.5108 9.87199C14.8639 9.54886 14.4677 8.86471 14.4677 8.18168V3.62305ZM7.05812 9.4828H7.05811C5.52185 9.483 4.24189 8.23919 4.24189 6.66658C4.24189 5.09402 5.5218 3.85035 7.05812 3.85035C8.59354 3.85035 9.87435 5.1311 9.87435 6.66658C9.87435 8.202 8.59359 9.4828 7.05812 9.4828ZM1.28768 16.2487V16.2485C1.28768 13.0466 3.89401 10.4405 7.09569 10.4405C10.2974 10.4405 12.9037 13.0468 12.9037 16.2485V16.3758L1.2874 16.3756L1.28768 16.2487Z" fill="white" stroke="white" stroke-width="0.2"/>
<path d="M17.0435 8.09287H17.0325C16.9881 8.294 16.8129 8.47178 16.5645 8.47134M17.0435 8.09287L16.5647 8.37134M17.0435 8.09287V7.99287V7.18397M17.0435 8.09287V7.18397M16.5645 8.47134L16.5647 8.37134M16.5645 8.47134C16.5646 8.47134 16.5646 8.47134 16.5647 8.47134V8.37134M16.5645 8.47134C16.4283 8.4713 16.307 8.42546 16.2195 8.33798C16.1319 8.25044 16.086 8.12906 16.086 7.99267V7.18377M16.5647 8.37134C16.3376 8.37134 16.186 8.21999 16.186 7.99267V7.18377H16.086M16.086 7.18377V7.08377H15.2771C15.05 7.08377 14.8984 6.93242 14.8984 6.7051C14.8984 6.47798 15.0498 6.32643 15.2771 6.32643L16.0862 6.32661V6.22661M16.086 7.18377H15.2771C15.1408 7.18377 15.0195 7.13793 14.9319 7.05041C14.8443 6.96287 14.7984 6.84149 14.7984 6.7051C14.7984 6.56883 14.8443 6.44746 14.9318 6.3599C15.0193 6.27233 15.1407 6.22643 15.2771 6.22643H15.2771L16.0862 6.22661M16.0862 6.22661V5.41773C16.0862 5.28146 16.132 5.16009 16.2196 5.07253C16.3071 4.98496 16.4285 4.93906 16.5649 4.93906C16.7012 4.93906 16.8225 4.9849 16.9101 5.07243C16.9976 5.15996 17.0435 5.28134 17.0435 5.41773V6.22663H17.8525C17.9887 6.22663 18.1101 6.27247 18.1977 6.36C18.2852 6.44753 18.3311 6.56891 18.3311 6.7053C18.3311 6.84157 18.2853 6.96294 18.1978 7.0505C18.1102 7.13807 17.9888 7.18397 17.8525 7.18397H17.0435M16.0862 6.22661L17.0435 7.18397" fill="white" stroke="white" stroke-width="0.2"/>
</svg>
