<svg width="15" height="20" viewBox="0 0 15 20" fill="none" xmlns="http://www.w3.org/2000/svg">
<path d="M2.50007 0.85H2.50008L8.9995 0.850125L8.99996 0.850125L8.99996 1.00012C9.13092 0.99925 9.25718 1.04965 9.35152 1.14085L2.50007 0.85ZM2.50007 0.85C1.59483 0.85 0.85 1.59483 0.85 2.50007V17.4999C0.85 18.4052 1.59483 19.15 2.50007 19.15H12.5C13.4052 19.15 14.15 18.4052 14.15 17.4999V6.00054M2.50007 0.85L14.15 6.00054M14.15 6.00054V6.00004H14L14.15 6.00054ZM11.7136 9.96281L11.7135 9.9629C11.5898 10.0848 11.4225 10.1521 11.249 10.1499M11.7136 9.96281L5.75007 9.99993M11.7136 9.96281C11.8373 9.84066 11.9071 9.67389 11.9071 9.49996C11.9071 9.32584 11.8373 9.15925 11.7136 9.03712L11.7135 9.03703L11.7136 9.96281ZM11.249 10.1499C11.2486 10.1499 11.2482 10.1499 11.2479 10.1499L11.25 9.99993V10.1499H11.249ZM11.249 10.1499H5.7534M5.7534 10.1499C5.75466 10.1499 5.75591 10.1498 5.75716 10.1498L5.75007 9.99993M5.7534 10.1499C5.5822 10.157 5.41526 10.0963 5.28859 9.98088M5.7534 10.1499H5.75007V9.99993M5.75007 9.99993L5.28859 9.98088M5.28859 9.98088C5.28863 9.98092 5.28867 9.98095 5.2887 9.98098L5.38962 9.87001L5.28859 9.98088ZM5.28859 9.98088C5.16107 9.86486 5.08467 9.7028 5.07673 9.53023L5.22657 9.52333L5.07674 9.53043C5.06858 9.3581 5.12934 9.18946 5.24562 9.06186C5.36158 8.9344 5.52341 8.8583 5.69561 8.8502M5.28859 9.98088L5.69561 8.8502M5.69628 11.8501L5.69651 11.8501C5.71538 11.8492 5.73418 11.8492 5.75319 11.8499H11.249H11.25V11.9999C11.3838 11.998 11.5128 12.0498 11.6082 12.1438L5.69628 11.8501ZM5.69628 11.8501C5.52367 11.858 5.36163 11.9344 5.24562 12.0618M5.69628 11.8501L5.70317 11.9999M5.70317 11.9999C5.57046 12.006 5.44578 12.0648 5.35649 12.1628M5.70317 11.9999C5.71886 11.9992 5.73438 11.9992 5.75007 11.9999L5.70317 11.9999ZM5.35649 12.1628L5.24562 12.0618M5.35649 12.1628L5.24561 12.0618C5.24561 12.0618 5.24562 12.0618 5.24562 12.0618M5.35649 12.1628C5.26703 12.261 5.2203 12.3907 5.22657 12.5233L5.07673 12.5302C5.08467 12.7028 5.16112 12.8648 5.28859 12.981L5.2887 12.9811C5.41533 13.0962 5.58222 13.157 5.75341 13.1498H11.249H11.25V12.9998L5.24562 12.0618M5.69628 14.85L5.69651 14.85C5.7154 14.8492 5.7342 14.8491 5.75319 14.8498H11.249H11.25V14.9998C11.3838 14.9979 11.5128 15.0497 11.6082 15.1437L5.69628 14.85ZM5.69628 14.85C5.5237 14.858 5.36164 14.9344 5.24562 15.0619M5.69628 14.85L5.70317 14.9999M5.70317 14.9999C5.57046 15.006 5.44578 15.0647 5.35649 15.1629L5.24562 15.0619M5.70317 14.9999C5.71886 14.9992 5.73438 14.9992 5.75007 14.9998L5.70317 14.9999ZM5.24562 15.0619C5.12936 15.1895 5.06858 15.3579 5.07674 15.5304M5.24562 15.0619L5.07674 15.5304M5.07674 15.5304C5.07674 15.5304 5.07674 15.5303 5.07673 15.5303L5.22657 15.5234L5.07674 15.5304ZM5.07674 15.5304C5.08473 15.7029 5.16119 15.8648 5.28859 15.9809L5.2887 15.981C5.41533 16.0962 5.58222 16.1569 5.75341 16.1498H11.249H11.25V15.9998L5.07674 15.5304ZM5.69561 8.8502C5.71505 8.84914 5.7344 8.84907 5.75392 8.85H11.249H11.25V9L5.69561 8.8502ZM9.00014 6.65008H12.85V17.5C12.85 17.7028 12.7029 17.8499 12.5001 17.8499H2.50016C2.29737 17.8499 2.15021 17.7028 2.15021 17.5V2.50012C2.15021 2.29725 2.29736 2.15008 2.50007 2.15008H8.35001V5.99995V6.00004C8.35024 6.35904 8.64106 6.64985 9.00005 6.65008H9.00014ZM9.65 3.06533L11.9346 5.34996H9.65V3.06533ZM3.75006 8.85001C3.39099 8.85001 3.10011 9.1409 3.10011 9.49996C3.10011 9.85882 3.39097 10.1499 3.75006 10.1499C4.10915 10.1499 4.40001 9.85881 4.40001 9.49996C4.40001 9.14089 4.10912 8.85001 3.75006 8.85001ZM3.75006 11.8499C3.39099 11.8499 3.10011 12.1408 3.10011 12.4999C3.10011 12.8589 3.391 13.1498 3.75006 13.1498C4.10912 13.1498 4.40001 12.8589 4.40001 12.4999C4.40001 12.1408 4.10912 11.8499 3.75006 11.8499ZM3.75006 14.8499C3.39096 14.8499 3.10011 15.141 3.10011 15.4998C3.10011 15.8589 3.39101 16.1498 3.75006 16.1498C4.10912 16.1498 4.40001 15.8589 4.40001 15.4998C4.40001 15.141 4.10915 14.8499 3.75006 14.8499Z" fill="white" stroke="white" stroke-width="0.3"/>
</svg>
