<svg width="18" height="18" viewBox="0 0 18 18" fill="none" xmlns="http://www.w3.org/2000/svg">
<path d="M17.2618 12.3517C17.2618 12.1257 17.1738 11.9493 17.037 11.8307C16.9021 11.7139 16.7256 11.6578 16.5527 11.6578C16.3798 11.6578 16.2032 11.7139 16.0684 11.8307C15.9315 11.9493 15.8435 12.1257 15.8435 12.3517L15.8436 15.8455H12.3498C12.1238 15.8455 11.9474 15.9335 11.8288 16.0704C11.7119 16.2052 11.6559 16.3817 11.6559 16.5546C11.6559 16.7276 11.7119 16.9041 11.8288 17.0389C11.9474 17.1758 12.1238 17.2638 12.3498 17.2638H16.5527C16.9059 17.2638 17.2618 16.9817 17.2618 16.5546V12.3517Z" fill="white" stroke="white" stroke-width="0.2"/>
<path d="M12.3498 2.15424H12.3498L15.8435 2.15418V5.64801C15.8435 5.87401 15.9315 6.0504 16.0684 6.16901C16.2032 6.28586 16.3798 6.34192 16.5527 6.34192C16.7256 6.34192 16.9021 6.28586 17.037 6.16901C17.1738 6.0504 17.2618 5.87401 17.2618 5.64801V1.44509C17.2618 1.09189 16.9797 0.735937 16.5527 0.735937H12.3498C12.1238 0.735937 11.9474 0.823951 11.8288 0.960806C11.7119 1.09563 11.6559 1.27217 11.6559 1.44509C11.6559 1.61801 11.7119 1.79455 11.8288 1.92937C11.9474 2.06623 12.1238 2.15424 12.3498 2.15424Z" fill="white" stroke="white" stroke-width="0.2"/>
<path d="M5.64996 17.2638C5.87596 17.2638 6.05236 17.1758 6.17096 17.0389C6.28781 16.9041 6.34387 16.7276 6.34387 16.5546C6.34387 16.3817 6.28781 16.2052 6.17096 16.0704C6.05236 15.9335 5.87596 15.8455 5.64996 15.8455L2.1562 15.8456V12.3517C2.1562 12.1257 2.06818 11.9493 1.93133 11.8307C1.7965 11.7139 1.61996 11.6578 1.44704 11.6578C1.27412 11.6578 1.09759 11.7139 0.962759 11.8307C0.825904 11.9493 0.737891 12.1257 0.737891 12.3517V16.5546C0.737891 16.9078 1.01998 17.2638 1.44704 17.2638H5.64996Z" fill="white" stroke="white" stroke-width="0.2"/>
<path d="M0.737891 5.64801C0.737891 5.87401 0.825904 6.0504 0.962759 6.16901C1.09759 6.28586 1.27412 6.34192 1.44704 6.34192C1.61996 6.34192 1.7965 6.28586 1.93133 6.16901C2.06818 6.0504 2.1562 5.87401 2.1562 5.64801L2.15613 2.15424H5.64996C5.87596 2.15424 6.05236 2.06623 6.17096 1.92937C6.28781 1.79455 6.34387 1.61801 6.34387 1.44509C6.34387 1.27217 6.28781 1.09563 6.17096 0.960806C6.05236 0.823951 5.87596 0.735937 5.64996 0.735937H1.44704C1.09384 0.735937 0.737891 1.01803 0.737891 1.44509V5.64801Z" fill="white" stroke="white" stroke-width="0.2"/>
<path d="M11.6608 6.38285C11.6608 4.92833 10.4572 3.72812 8.99965 3.72812C7.54207 3.72812 6.33848 4.92833 6.33848 6.38285C6.33848 7.8966 7.54054 9.09834 8.99965 9.09834C10.4588 9.09834 11.6608 7.8966 11.6608 6.38285ZM7.75814 6.38285C7.75814 5.70847 8.32283 5.14472 8.99965 5.14472C9.67634 5.14472 10.2412 5.70835 10.2412 6.38285C10.2412 7.12109 9.67358 7.68192 8.99965 7.68192C8.32585 7.68192 7.75814 7.12108 7.75814 6.38285Z" fill="white" stroke="white" stroke-width="0.2"/>
<path d="M9.85349 9.25937H8.14638C8.14636 9.25937 8.14634 9.25937 8.14632 9.25937C6.74653 9.25941 5.66855 10.4036 5.66855 11.7954V13.5615C5.66855 13.9148 5.95098 14.2705 6.37828 14.2705H11.6216C11.8272 14.2705 12.0063 14.2016 12.1343 14.0738C12.2623 13.9459 12.3313 13.767 12.3313 13.5615V11.7954C12.3313 10.4036 11.2532 9.25937 9.85349 9.25937ZM8.14632 10.6775H9.85349H9.85356C10.4624 10.6775 10.9119 11.1741 10.9119 11.7955V12.8526H7.08794V11.7955C7.08794 11.174 7.5374 10.6775 8.14632 10.6775Z" fill="white" stroke="white" stroke-width="0.2"/>
</svg>
