<svg width="18" height="18" viewBox="0 0 18 18" fill="none" xmlns="http://www.w3.org/2000/svg">
<path d="M14.5287 6.1898C14.3671 5.83347 13.6655 5.62408 13.3055 6.1898C13.1916 6.36612 12.7912 6.99061 12.3026 7.82449V5.34857C12.3026 4.9298 11.9573 4.58449 11.5385 4.58449H9.96994V0.764082C9.96994 0.345306 9.62464 0 9.20586 0H3.12994C2.71117 0 2.36586 0.345306 2.36586 0.764082V4.58449H0.874433C0.455658 4.58449 0.110352 4.9298 0.110352 5.34857V17.0082C0.110352 17.4269 0.455658 17.7722 0.874433 17.7722H11.5385C11.7479 17.7722 11.9463 17.6694 12.0895 17.5114C12.6332 17.8237 13.254 18 13.9153 18C16.0936 18 17.8899 16.0127 17.8899 13.6065C17.8899 11.4282 14.8704 6.72612 14.5287 6.1898ZM3.89403 1.52816H8.47852V4.58449H3.89403V1.52816ZM1.60178 14.9033H3.12994C3.54872 14.9033 3.89403 14.558 3.89403 14.1392C3.89403 13.7204 3.54872 13.3751 3.12994 13.3751H1.60178V11.9241H3.12994C3.54872 11.9241 3.89403 11.5788 3.89403 11.16C3.89403 10.7412 3.54872 10.3959 3.12994 10.3959H1.60178V8.9449H3.12994C3.54872 8.9449 3.89403 8.59959 3.89403 8.18082C3.89403 7.76204 3.54872 7.41673 3.12994 7.41673H1.60178V6.11633H10.7744V10.7522C10.2969 11.8212 9.94056 12.8645 9.94056 13.6102C9.94056 14.6131 10.2455 15.5424 10.7597 16.2845H1.60178V14.9033ZM13.9153 16.4718C12.5377 16.4718 11.432 15.1714 11.432 13.5661C11.432 12.4971 12.7691 9.89633 13.9153 7.98612C15.0614 9.89633 16.3985 12.4971 16.3985 13.5661C16.3985 15.1714 15.2928 16.4718 13.9153 16.4718Z" fill="white"/>
</svg>
