<svg width="15" height="22" viewBox="0 0 15 22" fill="none" xmlns="http://www.w3.org/2000/svg">
<path d="M3.07848 21.6565C3.16985 21.7935 3.30681 21.8848 3.44396 21.9306H3.48955C3.62651 21.9306 3.76367 21.8393 3.85504 21.7479L7.23542 16.5859L10.5702 21.7479C10.6616 21.8848 10.7986 21.9762 10.9357 21.9762H10.9813C11.1641 21.9762 11.301 21.8848 11.3468 21.7021L14.3617 15.4439C14.4531 15.2611 14.4073 15.0784 14.3161 14.9414L10.9357 10.8758L13.1285 7.49547C14.3161 5.62263 13.8594 2.88167 12.0778 1.3284C11.3924 0.323493 9.06269 -0.0419876 7.14394 0.00378196C6.23043 0.00378196 3.30673 0.140743 2.43875 1.28282C0.65726 2.83595 0.200432 5.57691 1.38808 7.44989L3.58082 10.8303L0.109279 15.0786C-0.0276821 15.2156 -0.0276822 15.3983 0.0636875 15.581L3.07848 21.6565ZM12.3973 6.94757L10.3873 10.0996L7.87487 7.08468L11.8491 2.28795C13.0367 3.56713 13.3108 5.57694 12.3973 6.94752L12.3973 6.94757ZM7.28117 6.35377L6.41324 5.3031H8.1491L7.28117 6.35377ZM7.14401 0.917856C9.10825 0.917856 10.5702 1.23756 11.2096 1.64882L8.9255 4.38959H5.68209L3.398 1.64882C3.94642 1.28333 5.27123 0.917856 7.14406 0.917856H7.14401ZM2.16483 6.94795C1.25132 5.57757 1.52522 3.5218 2.71305 2.24276L13.4479 15.2618L10.9355 20.5607L2.16483 6.94795ZM4.12906 11.653L6.77848 15.7185L3.58084 20.5607L1.02262 15.3988L4.12906 11.653Z" fill="white"/>
</svg>
