<svg width="24" height="24" viewBox="0 0 24 24" fill="none" xmlns="http://www.w3.org/2000/svg">
<path d="M5.05833 12C5.05833 8.16622 8.16622 5.05833 12 5.05833C15.8338 5.05833 18.9417 8.16622 18.9417 12C18.9417 15.8338 15.8338 18.9417 12 18.9417C8.16622 18.9417 5.05833 15.8338 5.05833 12ZM12 3.775C7.45744 3.775 3.775 7.45744 3.775 12C3.775 16.5426 7.45744 20.225 12 20.225C16.5426 20.225 20.225 16.5426 20.225 12C20.225 7.45744 16.5426 3.775 12 3.775Z" fill="white" stroke="white" stroke-width="0.2"/>
<path d="M10.9167 1.06797C10.5623 1.06797 10.275 1.35526 10.275 1.70964C10.275 2.06401 10.5623 2.3513 10.9167 2.3513H11.3583V5.5013C11.3583 5.85569 11.6456 6.14297 12 6.14297C12.3544 6.14297 12.6417 5.85569 12.6417 5.5013V2.3513H13.0833C13.4377 2.3513 13.725 2.06401 13.725 1.70964C13.725 1.35526 13.4377 1.06797 13.0833 1.06797H10.9167Z" fill="white" stroke="white" stroke-width="0.2"/>
<path d="M12.6417 18.4987C12.6417 18.1443 12.3544 17.857 12 17.857C11.6456 17.857 11.3583 18.1443 11.3583 18.4987V21.6487H10.9167C10.5623 21.6487 10.275 21.936 10.275 22.2904C10.275 22.6448 10.5623 22.932 10.9167 22.932H13.0833C13.4377 22.932 13.725 22.6448 13.725 22.2904C13.725 21.936 13.4377 21.6487 13.0833 21.6487H12.6417V18.4987Z" fill="white" stroke="white" stroke-width="0.2"/>
<path d="M5.63018 19.2775L5.94247 19.5898C5.94247 19.5898 5.94248 19.5898 5.94248 19.5898C6.19311 19.8404 6.19311 20.2467 5.94248 20.4972L5.63018 19.2775ZM5.63018 19.2775L7.85759 17.0501L7.8576 17.0501C8.10817 16.7995 8.10817 16.3933 7.8576 16.1426L7.85759 16.1426C7.60697 15.8921 7.20073 15.892 6.95015 16.1426L4.72273 18.37L4.41043 18.0577L4.41043 18.0577C4.15984 17.8072 3.75357 17.8072 3.50298 18.0577L3.57369 18.1284L3.50298 18.0577C3.25239 18.3083 3.25239 18.7146 3.50298 18.9652C3.50298 18.9652 3.50298 18.9652 3.50298 18.9652L5.03503 20.4972C5.2856 20.7478 5.6919 20.7478 5.94247 20.4972L5.63018 19.2775Z" fill="white" stroke="white" stroke-width="0.2"/>
<path d="M18.1284 4.33875L18.0577 4.40946L18.37 4.72178L16.1426 6.94915C15.892 7.19972 15.892 7.60602 16.1426 7.85659C16.3932 8.10717 16.7995 8.10717 17.0501 7.85659L19.2774 5.62922L19.5898 5.94153C19.5898 5.94153 19.5898 5.94153 19.5898 5.94153C19.8404 6.19211 20.2466 6.19209 20.4972 5.94154L20.4972 5.94153C20.7478 5.69096 20.7478 5.28466 20.4972 5.03408L18.9651 3.502C18.9651 3.502 18.9651 3.502 18.9651 3.502C18.7145 3.25141 18.3083 3.25142 18.0577 3.50199L18.0577 3.502C17.8071 3.75259 17.8071 4.15887 18.0577 4.40946L18.1284 4.33875Z" fill="white" stroke="white" stroke-width="0.2"/>
<path d="M5.87192 3.57257L5.94249 3.502C6.19306 3.75259 6.19306 4.15887 5.94249 4.40945L5.94249 4.40946L5.63019 4.72177L7.8576 6.94914L7.78689 7.01985L7.85761 6.94914C8.10818 7.19971 8.10818 7.60601 7.85761 7.85659C7.60698 8.10721 7.20073 8.10721 6.9501 7.85659L4.72274 5.62922L4.41043 5.94152L4.41043 5.94153C4.15985 6.1921 3.75357 6.1921 3.50298 5.94153C3.25239 5.69095 3.25239 5.28465 3.50298 5.03408L3.50298 5.03408M5.87192 3.57257L3.57369 5.10479L3.50298 5.03408M5.87192 3.57257L5.94249 3.502M5.87192 3.57257L5.94249 3.502M3.50298 5.03408L5.03504 3.502M3.50298 5.03408L5.03504 3.502M5.03504 3.502C5.03504 3.502 5.03504 3.502 5.03504 3.502M5.03504 3.502L5.03504 3.502M5.94249 3.502C5.69192 3.25142 5.28562 3.25142 5.03504 3.502M5.94249 3.502L5.03504 3.502" fill="white" stroke="white" stroke-width="0.2"/>
<path d="M19.2774 18.37L19.5897 18.0577L19.5897 18.0577C19.8404 17.8072 20.2466 17.8072 20.4972 18.0577L20.4972 18.0577C20.7478 18.3083 20.7478 18.7146 20.4972 18.9652L20.4265 18.8945L20.4972 18.9652L18.9651 20.4972C18.9651 20.4972 18.9651 20.4972 18.9651 20.4972C18.7146 20.7478 18.3083 20.7478 18.0577 20.4972L19.2774 18.37ZM19.2774 18.37L17.0501 16.1427C17.0501 16.1427 17.0501 16.1427 17.0501 16.1427C16.7995 15.892 16.3932 15.892 16.1426 16.1427L19.2774 18.37ZM16.1426 16.1427C15.892 16.3932 15.8921 16.7995 16.1426 17.0501L16.1426 17.0501L18.37 19.2775L18.0577 19.5898C17.8071 19.8403 17.8071 20.2466 18.0577 20.4972L16.1426 16.1427Z" fill="white" stroke="white" stroke-width="0.2"/>
<path d="M1.06699 13.0833C1.06699 13.4377 1.35428 13.725 1.70866 13.725C2.06304 13.725 2.35033 13.4377 2.35033 13.0833V12.6417H5.50033C5.85472 12.6417 6.14199 12.3544 6.14199 12C6.14199 11.6456 5.85472 11.3583 5.50033 11.3583H2.35033V10.9167C2.35033 10.5623 2.06304 10.275 1.70866 10.275C1.35428 10.275 1.06699 10.5623 1.06699 10.9167V13.0833Z" fill="white" stroke="white" stroke-width="0.2"/>
<path d="M18.4997 11.3583C18.1453 11.3583 17.858 11.6456 17.858 12C17.858 12.3544 18.1453 12.6417 18.4997 12.6417H21.6497V13.0833C21.6497 13.4377 21.937 13.725 22.2913 13.725C22.6457 13.725 22.933 13.4377 22.933 13.0833V10.9167C22.933 10.5623 22.6457 10.275 22.2913 10.275C21.937 10.275 21.6497 10.5623 21.6497 10.9167V11.3583H18.4997Z" fill="white" stroke="white" stroke-width="0.2"/>
</svg>
